<svg width="300" height="400"
	xmlns="http://www.w3.org/2000/svg">
	<path fill="#011" d="M80.2,59.9 60.3,87.9C54,96.8 53.3,98.6 53.4,105.5L53.6,109.2H77.7L77.6,121.9H89.2V109.1L96.8,109.2 96.7,100.1 89.2,100.2V59.9ZM77.6,82.9V100.1H65.6Z"/>
	<path fill="#b00" d="M196.9,45C194.8,45 192.8,45.9 192.5,48.1 191.5,65.8 183.5,71.7 176.7,80.6 182.4,79.9 186.2,78.1 190.6,74.4 193.1,78.5 195.7,81.7 199,84.9 197.9,86.3 195.1,90.2 190.8,94 185.7,98.5 177.3,105.6 172.8,108.4 169.4,110.5 166.7,113.1 166.7,114.3 166.6,116.6 175.9,113.7 183.6,109.3 189.9,105.7 196.8,101.1 201.4,96.5 204.3,93.5 205.3,92.6 206.1,91.8 210,96 214.6,100.2 218.4,103.4 224,107.9 229.6,112.4 235.8,115.1 241.7,117.6 245.8,117.6 253,114.5 259.8,111.6 258.4,110.7 251.6,107.5 243.3,103.6 234.2,100.2 226.7,96.3 221.2,93.4 216.6,89.7 212.5,86.1 215.7,83.4 220.1,79.3 223.3,74.6 227.8,67.8 230,60.5 226.8,56.7 224.4,53.8 222.3,52.6 218.1,52.5 213.3,52.4 208.8,53.5 203.9,54.3 204.5,52.5 204,50.5 203.1,48.6 202,46.5 199.6,45.2 197.3,45 197.2,45 197,45 196.9,45ZM211.6,61.7C218.1,61.7 214.6,67 211.8,70.6 207.8,75.7 205.7,77.7 204.9,78.5 201.3,74.9 198.7,71.4 196,67.4 196.8,66.3 197.6,65.2 198.3,64.1L207,62.3C208.6,62 209.9,61.8 210.9,61.8 211.2,61.8 211.4,61.7 211.6,61.7ZM207,102.7C206.9,102.7 206.8,102.7 206.7,102.7 206,102.8 205.4,103.5 204.9,104.6 204.5,105.7 204.3,107.1 204.5,108.8 205.2,114.6 203.8,116.1 202.6,116 200.5,115.7 201.4,119 202.2,122.7 203.6,128.5 203.6,130.5 201.5,132.3 200.3,133.2 199.2,133.7 197.8,133.6 199.6,136.8 201.1,139.4 204,141.4 205.5,142.6 207.4,143.5 209.1,144.1 212.8,145.5 214.9,144.4 217.5,141.6 222.1,136.8 219.4,131.6 215.3,127.9 209.9,123 209.7,121.6 212.1,118.6 215.1,114.8 213.7,108 209.2,103.8 208.4,103.1 207.6,102.7 207,102.7Z"/>
	<path fill="#b00" d="M168.4,132.1C163.8,132 157.8,134.1 155.3,137.4 151.3,142.9 150.7,148.4 152.6,153.6 148.5,151.8 144.9,151.3 141.7,152.3 138.1,153.5 134.9,156.5 133,160 129.7,166.4 130.7,170.8 133.7,174.3 136.5,177.5 141.6,179.5 146.9,179.6 146,181.1 145.2,182.8 144.7,184.5 142.7,190.6 145.3,197.2 150.2,200 155.2,202.9 160.2,202.3 165.1,199.9 168,198.5 169.4,195.8 171.1,192.8 174.1,195.7 178.4,197.4 182.7,197.1 187.5,196.7 192.2,193.9 194.7,190.5 196.7,187.6 197.4,183.6 196.1,178.8 195.7,177.4 195,176 194.2,174.7 196.3,173.1 198.2,171.4 199.8,169.4 203.1,165.4 203.4,158.6 201.5,153.9 199.3,148.5 194.3,146 188.9,146.2 185.8,146.3 184,146.8 181.5,147.9 181.3,143.2 180.7,139.4 177.5,136.1 175.1,133.6 171.9,132.2 168.4,132.1ZM166.5,138.9C171.2,138.9 174.8,142.7 174.7,147.4 174.5,152.1 170.6,155.9 165.9,155.9 161.2,155.9 157.5,152.1 157.7,147.4 157.8,142.7 161.8,138.9 166.5,138.9ZM188.4,152.6C192.8,152.6 196.2,156.2 196.1,160.6 196,165 192.3,168.6 187.8,168.6 183.4,168.6 179.9,165 180.1,160.6 180.2,156.2 183.9,152.6 188.4,152.6ZM146.9,157C151.6,157 155.3,160.8 155.1,165.5 154.9,170.2 151,174 146.3,174 141.6,174 137.9,170.2 138.1,165.5 138.2,160.8 142.2,157 146.9,157ZM167.4,161.3C170.7,161.3 173.3,164 173.2,167.3 173.1,170.6 170.4,173.3 167,173.3 163.7,173.3 161.1,170.6 161.2,167.3 161.3,164 164.1,161.3 167.4,161.3ZM181.1,174.7C185.8,174.7 189.5,178.5 189.3,183.1 189.2,187.8 185.2,191.6 180.5,191.6 175.8,191.6 172.2,187.8 172.3,183.1 172.5,178.5 176.4,174.7 181.1,174.7ZM159.2,179.2C163.9,179.2 167.6,183 167.4,187.7 167.3,192.4 163.3,196.2 158.6,196.2 153.9,196.2 150.3,192.4 150.4,187.7 150.6,183 154.5,179.2 159.2,179.2Z"/>
	<path fill="#050" d="M50.2,160.8C52.5,167.8 56,174.3 57.9,182.3 60.2,191.7 62.4,201.8 65.5,210.1 68.2,217.2 71.8,224.6 77.9,233.5 87.8,248.3 95.9,258.2 110.9,266.8 100.1,269.8 88.9,273.1 78.7,275.9 65.9,279.4 54.5,282.6 41,285.8 54.9,295 66.5,302.6 85.3,300.4 97.3,299 108.6,296.6 118.9,293.8 113.9,303 109,310.7 103.6,318.5 95.5,330.3 88.4,343.3 82.2,355 102.2,349.2 115.4,341.1 129.6,329 142.5,318 153.2,304.7 162.1,291.7 168.9,291.5 176.3,293.4 181.8,295.7 192.7,300.3 198,304.1 197.9,307.2 197.8,309.5 196.3,310 191,308.6 185.1,307.9 174.3,303.5 169,301.7 167.7,304.6 167,310.3 167.6,315.3 168.5,323.1 172.2,331.8 176.1,335.7 184.2,343.6 197,345.1 206.4,345 216.3,344.9 222.3,346.1 228.6,347.1 234.9,348 239.4,348.5 244.5,348.7 243.8,344.3 243.1,339.4 242.6,335.4 241.9,329.7 241.1,320 243.9,311.2 247,301.1 247.7,292.4 245.9,285.3 243.8,276.7 237.2,270.4 230.5,266.5 223.2,262.2 215.2,261.7 206.4,261.7 207.3,253.2 208.8,244.2 211.3,237 213.5,230.9 216.4,225.4 219.9,220.2 224.8,212.8 230.8,206.1 237.7,199.6 246,191.6 252.8,183.3 256.7,174.1 261.8,162.1 261.4,162.1 252.7,167.4 247,170.8 241.1,174.8 235,178 226,182.8 216.7,186.7 209.6,192.2 202.1,197.9 195.8,204.9 191.2,211.9 183.7,223.4 178.3,234 174.8,244.3 175.4,233.1 175.8,222.4 175.8,212.9 175.8,210.3 175.7,208.3 175.5,207.7 174.8,204.8 172.7,204.1 170.6,206.1 169.6,207 169.3,208.5 169,213.2 168.3,223.6 167.6,235.1 167.3,244.6 162.9,238.1 158,231.6 152.8,225.4 144.3,215.4 135.3,206.1 126.9,198.9 122.1,194.8 113.4,187.3 106.4,186 106.8,200.9 113.1,215.4 116.4,228.7 108.7,218.2 103.4,211.7 97.8,202.5 91.5,192.2 82.8,181.3 74.7,174.2 70.6,170.6 58.5,163.1 50.2,160.8ZM65.7,177.9C71.7,182.4 75.5,188.3 79.6,194.3 86.6,204.4 92.8,215.4 100.6,225.6 107.5,234.7 116.3,242.5 124.7,249.8 129.1,253.5 132.8,256.6 137,261L121.5,264.7C107.1,257 94,244.6 86.3,231 79.8,219.6 74.8,206.8 70.3,195.5 67.9,189.6 66.8,183.4 65.7,177.9ZM243,181.1C238.7,187.1 234,193.1 228.8,197.5 218,206.4 210.8,217 205.1,229.3 200.4,239.5 199,246.2 197.6,256.7 196.1,268.4 196.5,281.1 197.6,290.6 184.4,284.5 181.5,274.9 181.9,261.8 182.2,252.6 184.1,243.5 187.5,235 191.7,224.7 198.2,215.1 204.7,206.7 209.4,200.6 214.9,196.7 221,193 228.1,188.7 235.8,185.2 243,181.1ZM120.2,203.4C126.2,206.7 133.2,213.4 136.8,216.9 143.7,223.7 152.1,232.7 157.3,239.3 159.9,242.7 165.7,251.5 166.9,253.8L167,260.3C156.9,261.2 149.1,253.6 142.8,246.7 137.2,240.5 131.3,231.7 127.9,223.7 125.4,217.9 122.8,209.6 120.2,203.4ZM168.2,271.4C169.5,277.9 171.7,281.8 174.9,285.9 158.6,283.7 140.9,281.2 125.5,284.2 106.6,287.8 84.8,297.2 66.2,288 86.6,282.6 107.1,275.7 125.9,271.4 140.3,268.1 154.7,268 168.2,271.4ZM216.1,270.8C219.5,270.9 222.9,271.5 225.9,273.1 232.7,276.7 239,283.2 239.5,289.1 240.1,296.1 237.9,301.6 236.5,306.8 233.4,318.2 230.5,329.2 232.7,340.5 227.8,338.8 222.5,337.2 217.2,336.9 210.2,336.5 203,337.8 197.4,336.9 192.6,336.1 188.4,333.8 183.6,329.8 178.7,325.8 175.4,318.5 176.8,315.3 177.8,312.8 180,313 184.6,315.9 186.1,316.9 189.5,317.5 194,317.5 202.8,317.7 207.4,315.4 209.7,309.9 211.1,306.4 211.3,305.5 208.4,296.9 205.5,288.2 205.2,279.8 205.8,271.2 209.1,270.9 212.6,270.6 216.1,270.8ZM140.1,291.1C143.5,291.1 146.8,291.2 150.2,291.3 145.2,298.8 139.8,307.6 133.1,314.7 123.6,324.9 112.3,332.7 102.1,337.4 107.2,328.7 112.6,321.2 117.4,313.3 121.7,306.2 125.5,298.7 129.5,291.6 133.2,291.3 136.7,291.1 140.1,291.1Z"/>
</svg>
