<svg width="300" height="400"
	xmlns="http://www.w3.org/2000/svg">
	<path fill="#011" d="M74.7,57.2C67.7,57 58.8,61.9 55,66.7 50.9,71.9 49.3,76 54,78.8 58.7,81.7 61.8,78.3 65.3,74.2 67.7,71.5 72,69.1 75.5,70 79.6,71.1 81.6,76.7 79.2,79.2 72.3,86.6 66.6,89 58.7,95.6 55.3,98.4 53.9,100.1 52.2,103.5 50,108 50,112.6 50,117.4L92.6,117.4V105.7L67.6,105.6C71.8,100.8 77.3,96.7 81.8,93.3 92,85.4 96.2,79.1 93.3,70.3 90.5,62 82.8,57.5 74.7,57.2Z"/>
	<path fill="#b00" d="M219,44.1C216,43.7 212.9,45 210.3,46.1 205.8,47.8 200.9,48.8 194.8,49.2 187.7,49.7 183.1,49.5 181.3,51.1 178.7,53.6 181.2,56.4 183,59.1 185.3,62.4 187.3,61.5 201.6,59 205,58.4 208.4,57.6 211.8,56.7L202.2,70.5 190.7,68.5C188.8,68.2 187.1,70.2 187.2,71.2L188.5,79.7 183.9,80.5C181.4,81 178.5,81.6 174.2,81.6 163.3,81.6 162.3,82.7 167.9,88.8 171.5,92.8 173.3,92.9 179.5,91.4L188.7,89.3C187.1,98.3 180.7,103.8 175.9,108 164.8,118.6 163.2,121.6 168.4,121.6 173.2,121.6 179.3,116.9 185.6,110.6 189.5,106.6 192.2,103.1 195.8,98.3L205.6,108.4C199,115.3 190.6,120 184.6,123 180.6,125.1 175.1,127.7 175.1,128.1 178.5,130.1 182.2,131.6 185,130.5 191.6,128.1 197.1,125.1 202.2,121.7 205.3,119.7 208.3,117.5 211.3,115 213.3,117.7 216.4,121.3 220,124.6 225.5,129.5 231.9,133.8 234.8,134.5 242.4,136.3 251.1,135.3 251.1,132.6 251.1,132.1 249.2,130.4 246.9,128.9 243.1,126.5 236.7,123.2 230.8,119.2 226.4,116.2 221.3,112.2 217.7,109.3 219,108 220.3,106.5 221.7,104.9 224.5,101.4 228.6,98.6 224.2,93.5 223.2,92.3 221.4,91.3 219.5,91.2 216.9,90.9 215.2,93.2 214.3,95.1 213.1,97.5 211.7,100 210.2,102.4L199.9,93 204.8,85.9C210.4,84.7 215.6,84.2 221.6,84.5 228.8,84.8 233,85 234.9,81.9 237.4,77.8 232.3,74.8 229.1,74.7 226.5,74.6 225,74.5 222.3,74L213.8,72.6C215.5,70.1 219.5,64.2 222.7,60.7 228.7,54.2 229.6,52.1 225.7,48.6 223.4,46.5 220.6,44.3 219,44.1Z"/>
	<path fill="#b00" d="M182.6,161.2C173.5,162.8 163.5,165.5 156.2,170L154.6,165C148,171.8 140.5,178.5 134.4,185.1 128,191.9 123.2,198.8 120.5,207.1 106.8,198.6 91.3,198.6 76.4,198.8 79.3,214.1 85,229.1 92.3,241.7 103.7,261.4 121.3,266.7 140.6,262.5 140.6,262.5 146,267.4 148.2,270.3 161,286.5 181.3,289.4 199.8,280.8 210.4,275.8 222.1,272.3 232.5,270.7 224.3,249.3 216.2,242.6 198.8,231.5 199.8,227.3 201.4,223.1 201.5,218.9 202,207.7 200.3,196.3 200.6,185.7L195.6,188C192.7,177.2 189.6,169.6 182.6,161.2ZM179,169.6C183.6,176.2 186.5,183.7 188.4,190.6 184.2,192.6 177.4,195.5 175.2,196.1 174.5,192.5 174.1,189.1 172.8,185.9 169.4,186.6 166.4,187.8 163.7,189.6 161.4,185.9 159.9,182.4 158.8,177.6 165.5,173.5 171.6,171.3 179,169.6ZM151.9,181.1C153,186 154.6,190.6 157.3,194.8 150.8,201.3 145.3,207.4 141,214.6 139.2,217.7 137.7,220.9 136.2,224.1 133.1,231.3 130.9,240.8 134.1,248.3 125,237.1 124.5,221.1 128.7,208.8 133,196.1 141.6,188.2 151.9,181.1ZM168.1,195.7C169.2,206.4 168.4,216.3 165.2,225.7 164.5,227.8 163.7,229.8 162.8,231.8 157.8,242.4 150.2,252 144.5,248.7 137.4,244.5 141.8,231.6 143.7,226.5 144.7,223.4 146.1,220.4 147.8,217.6 152.8,209 160.3,200.4 168.1,195.7ZM190.5,197.1C192.9,206.1 193.7,215.9 191.7,224.7 189.4,235.4 183.4,244.8 175.4,251.4 169.5,256.1 161.7,258 153.6,255.9 161.2,251.9 166.5,243.8 170.4,235 171.3,232.8 172.1,230.6 172.9,228.4 175.7,220 176.2,211.1 176,202.7 178.7,201.6 185.3,198.9 190.5,197.1ZM87.7,207.1C98.8,207.1 109.5,210.4 118.6,215.4 116.3,229.4 118.5,244.6 128.6,254 120.7,254.5 114.3,251.9 109.1,247.6 102.8,242.4 98.3,234.8 95.1,227.5 92.1,220.9 90,214 87.7,207.1ZM195.4,239.5C206.7,245.3 214.3,253.4 220.2,264.1 210.9,265.1 202.8,270.1 194.1,273.1 176.6,279.2 167.3,277.3 155.1,264.2 179.5,265.3 184.9,257.4 195.4,239.5Z"/>
	<path fill="#050" d="M63.6,262C61.2,262 62,263.8 68,271.8 76.8,283.5 85,296.5 90.5,308 94.9,317.1 100.3,326.6 105.3,334.3 109.2,340.2 113.1,345.2 117.4,350.2 120.2,353.4 123.1,356 123.9,356 125.7,356 129,353.1 129,351.5 129,350.8 126.4,347.2 123.2,343.4 111.7,329.7 106.5,320.1 102.9,306.1 100.8,297.8 100.3,284.7 102,279 104.3,271.1 102,270.8 96.3,278.5 93.8,281.9 92.5,286 90.8,289.9 88.6,286.7 85.9,282.9 84.1,280 78.4,270.6 68.6,262 63.6,262ZM116.2,277.9C114.2,277.7 112.6,279.5 113,283 115,300 121.4,314.6 127.8,328.9 130.8,335.7 135,341.6 139.3,347.5 140.5,349.2 141.9,350.4 143.2,349.8 147.4,348 144.5,341.8 142.6,338.3 132.8,320.6 125.8,302.5 121.5,283.8 120.7,279.9 118.1,278 116.2,277.9ZM142.2,284.1C140.6,284.3 138.8,283.9 139.5,290.5 140.3,298.6 141.9,305.6 143.2,311.4 145.6,321.5 158.1,350.4 162.2,352 167,353.8 167,349.9 162.2,338.3 156,323.2 149.4,305 148.4,294.8 147.7,287.2 145.5,283.6 142.2,284.1ZM228.5,298.6C218.6,298.7 209.5,304.9 203.3,310.6 200,313.7 193.3,320 193.3,320L185.9,312.2C180.1,306 171,302 167.5,302 165,302 161.6,305 163.3,305.7 166.7,306.9 174.3,312.3 176.4,315.5 180.9,322.6 184.1,332.8 181.5,339.2 179.6,343.9 179.8,344 181.3,347.4 184.7,355 187.5,346.8 189.3,343.7 200.8,323.7 217.5,310.2 227.5,309.2 235.9,308.4 247.3,311.8 250.4,317.5 254,324.3 257.3,322 254.4,314.9 250,304.2 239,298.4 228.5,298.6Z"/>
</svg>
