<svg width="300" height="400"
	xmlns="http://www.w3.org/2000/svg">
	<path fill="#011" d="M71.5,62.5 63,62.6 45,81.5 52,88.1 60.6,79V118.9H71.6Z"/>
	<path fill="#b00" d="M207.4,42.5C204.9,42.5 202.6,43.3 200.7,44.8 197.3,47.4 197.3,48.3 201.2,51.6 202.7,53 205,55.3 205,57.1L205,58.8 199.7,59.8C191.5,61.5 185.4,54 183.6,59.6 181.6,65.9 191,71.6 200,70.1L205.2,69.2 205,107.2 196.6,108.5C183.5,110.4 179.6,110.7 174,108.1 171.1,106.8 168.4,106 167.9,106.3 165.7,107.7 167.1,112.8 170.9,116.7 174.1,120.1 177,122.5 181.8,120.5 187.9,118 193,116.9 198.2,116.1L192.1,128.7 186.5,128.1C179.4,127.4 183.1,135.3 185.2,137.9 188.2,141.8 188.6,142 192.6,141.4 194.8,141.1 202.2,138.8 208.9,136.2 224.8,130.1 225.8,130.3 229.2,141.5 230.4,145.6 231.1,145.5 234.8,145.5 243.6,145.5 243.4,136.4 238.7,130L229.1,116.8C227.4,114.4 223.2,112.8 222.6,116.2 221.4,122.6 223.7,126.5 215.9,127.2L205.4,127.9 208.6,114.8C220.3,113.8 232.2,112.2 242.2,112.2 247.4,112.2 248.4,112.6 250.2,110.7 252.6,108.4 252.6,103.9 250.2,102.7 234.4,94.8 232.2,94.4 232.1,99.5 232.1,104.2 230.8,104.9 223.7,105.7L215.2,106.6 215,91.3 227.4,85.6C231.4,83.7 232.3,81.8 229.6,77.9 227.6,75.1 226.1,75.4 221.2,78.3L215,82 214.9,68.2 224.8,67.4C233.2,66.8 237.2,66.4 237.7,62.6 238.7,55.7 229.3,56.4 225.1,56.8L214.8,57.9C214.9,50.9 218.8,51.4 218.4,48.2 217.8,44.7 214.8,44.4 212.3,43.5 210.6,42.8 209,42.5 207.4,42.5ZM195.3,78.9C193.3,78.9 190.3,79.1 185.6,79.4 173,80 171.9,80.8 176.2,85.4 178.1,87.4 179.3,87.7 186.2,87.7 196.3,87.7 199.2,86.7 199.1,82.8 199,79.9 198.6,79 195.3,78.9ZM197,94.3C195.4,94.2 192.6,95.5 187.3,95.7 178.6,96 173.8,96.5 177.7,101.6 179.7,104.1 185.4,102.2 188,101.8 192,101.1 200.1,101.7 198.8,96.4 198.5,94.9 198,94.3 197,94.3Z"/>
	<path fill="#b00" d="M147.8,141.3C143.1,141.5 138.6,144.2 134.1,150L129.3,156.1C127.5,155.3 123.8,153.7 119.6,151.9 115.2,150 110.8,148.7 106.6,147.8 102.9,152.7 99.3,158.3 97.4,163.8 95.1,170.5 93.8,177.6 93.2,184.7 88.4,185.6 83.3,187.6 81,191.4 77.9,196.3 78.4,204.2 80.3,209.2 82.9,215.9 87.2,221.1 92.6,224.9 98,228.6 101.6,230.7 106.6,233 106.6,237.9 107.4,243.1 108.5,247.3 109.8,252.4 111.4,257.5 112.9,262.6L123.9,262.1C129.4,261.9 134.5,261.5 140.1,260.6 145.9,259.8 149.9,257.4 154.6,254.6 159,257.9 163.6,261.7 168,263.9 174,267 179.9,268.4 186.3,270.9L193.7,263.5C196.9,260.2 200,254.7 200.4,249.1 200.7,244.9 199.5,240.2 197.7,237.6L207.8,235.3C215.5,233.6 220.5,229.5 222.8,223.2 224.9,217.5 225.3,211.6 222.7,206.6 219.9,201.1 216.3,198.6 211.6,195.2 213.8,191 215.6,185.4 216.7,181.2 217.9,176.8 218.7,172.1 219.7,167.6 212,164.3 203.3,161.6 195.9,161.1 188.2,160.6 181.7,161.7 174.1,162.7 174.1,162.7 166.9,152.3 162.9,148.1 157.6,142.5 152.5,141.1 147.8,141.3ZM148.5,148.8C152.8,148.6 157.2,153.2 159.4,156.2 162.3,160.1 163.9,162.9 167,167.2 164.3,171.5 161.4,175.7 158.3,179.8 155.3,179.5 152.9,180 149.9,180.9 148.3,177.1 146.3,172.4 144.1,169.3 141.5,165.7 139.1,163.7 136.1,160.3 136.1,160.3 138.6,156.1 140.3,154.2 142.6,151.6 145.4,148.9 148.5,148.8ZM109.9,157.6C116.7,159.9 124,163 129,166.6 135.6,171.3 138.5,177.3 142,184.2 142,184.2 138,187.1 136.4,188.8 134.6,190.6 131.6,194.6 131.6,194.6 127.2,191.5 122.1,189.4 117.7,187.8 112.5,185.9 107.3,184.9 101.7,184.3 101.7,184.3 103.2,175.2 104.5,170.8 106,165.9 107.7,161.8 109.9,157.6ZM193.5,167.9C200.2,168.1 204.9,170.4 211.3,172.4 210.2,177.1 209.1,182.5 207.3,186.7 205.1,191.8 202.4,197.4 198.5,200.9 194.5,204.4 189.6,205.3 182,206.5 182,206.5 177,196.8 174.7,193.3 171.6,188.4 166.3,183.2 166.3,183.2L170.3,176.9C172.7,173 173.5,171.5 176.3,170.2 181.2,168.1 187.9,167.9 193.5,167.9ZM155.7,188.6C164.9,189.2 171.6,201.4 174.2,208.9 176.2,214.4 174.2,218 170,220.3 160.4,225.5 146.9,227.6 138.7,220.2 135.2,217 133.6,210.9 137.3,203.7 140.9,196.6 147.3,188.1 155.7,188.6ZM114.7,194.9C120.1,196.3 123.3,198.1 128.2,201.6 127.1,203.9 126.5,206.3 126,208.8 126,208.8 116.2,213 112.9,215.7 108.9,219 107.8,223.9 107.8,223.9L99.9,219.2C95.7,216.8 90.6,211.7 88.4,206.6 83.9,196.4 89.2,193.5 95.6,192.8 101.7,192.2 108.3,193.1 114.7,194.9ZM207.9,202.3C211.3,204.7 215,207.5 215.8,211.3 216.6,215.7 215.1,220.3 212.5,223.3 207.4,229.1 200.2,229.3 193,230.9 189.1,227.4 185.3,224 181.4,220.6 182.9,218.3 183.4,216.2 183.3,213.4 188.1,212.8 193.7,212.5 197.7,210.6 201.9,208.7 204.5,205.6 207.9,202.3ZM126.7,218.2C128,223.2 131.1,226.7 135.4,228.9 141.6,232.1 147.8,232.4 154.8,232.3 153.9,237.3 152.8,242.8 150,246.7 147,250.9 141.4,252.9 136.9,253.8 130.8,255 124.8,254.5 118.5,254.4 118.5,254.4 117.1,248.5 116.4,245.6 114.9,239.7 114.6,233 115.4,227.3 116.1,221.2 120.7,220.4 126.7,218.2ZM175.4,225.6C179.2,229.2 183.4,233.1 186.6,236.5 190.1,240.3 193.3,244.9 192,249.8 190.7,255.1 187.5,257.8 183.9,261.7 179.6,260 174.5,258.8 170.8,256.6 166.4,253.9 162.9,251.3 158.6,248.3 160.8,242.7 162,236.7 163,230.7 167.4,229.5 171.4,227.7 175.4,225.6Z"/>
	<path fill="#050" d="M67.1,231.9C63.8,234 62.4,237.7 61.9,241.4 61.5,244.6 61.3,251.7 61.5,257.1L61.9,264.7C60.2,265.9 58.2,267.4 56.4,268.1 53.6,269.1 50.9,268.9 48.2,269.3 48.7,273.4 51.1,277.3 53.6,279.7 56.6,282.7 60.4,284.9 62.9,286 70.6,289.3 87.2,292.4 94.9,291.9 98.3,291.7 100.7,290.9 103.9,290.2L107.9,292.7 98,302.3C98,302.3 93.4,300 90.9,299.5 85.4,298.4 75.9,298.2 67.9,299.5 60.8,300.7 54.2,303.3 50.6,306.9 53.1,310.4 56,313.6 59.3,316.4 59.3,317.7 58,319.2 54.2,323.5 46.6,331.9 40.9,339.7 40.2,342.4 39.5,345.4 40.6,347.9 43.7,349.1 47.8,350.7 58.1,350.5 65.2,349.2 70.8,348.1 73,346.8 78,343.9 80.7,349.1 83.4,353.1 87,357.5 91.1,353.2 95.2,348.1 98,343.5 101.7,337.4 103.8,331.5 104.9,325 106,318.5 104.3,314.5 102.5,308.8L115.1,297.2 123.1,302.2C126.5,304.4 122.6,307.6 121.3,308.7 113,315.4 112,317.2 112,325.5 112,330.4 117.6,340.2 122.4,344.3 127.5,348.6 134.4,354.3 138.5,356.6 140.9,357.9 143.2,356.3 144.1,354 146.9,347.3 149.3,341.5 152,335.2L157.6,337.2C167.6,340.8 163.8,335 161.8,330.7 159.2,324.8 157.3,320.1 153,316.4L148.1,312 152.9,306.8C159.1,312.4 166,317.8 171.7,321.9 181.3,328.6 191.3,334.8 201.2,339.8 211.7,345.1 224.2,348.7 234.3,350.3L245,318.4C245,318.4 231.4,315.3 224.9,313 218.4,310.7 205.9,304.8 205.9,304.8 205.9,304.8 224.2,300.7 233.1,298.2 242.8,295.6 261.9,289.4 261.9,289.4L244.5,273.1C244.5,273.1 251.3,265.2 254.6,261 257.6,257.2 263,249.1 263,249.1 253.7,249.5 244.1,250.1 235.7,251.1 227,252.2 218.6,254.4 215.2,256.2 211.3,258.3 204.7,263.6 202.5,267.7 197.1,277.4 193.1,285.7 189.1,295.2L150.5,266.8 141.1,271.3C137.1,273.1 128.7,276.9 126.3,279.1 124.1,281.1 123.5,284.6 124.8,285.7L127.4,288.1 123.2,293 111.7,284.3C109.5,282.6 109.1,280.8 108.3,277.6 105.8,267.9 99.6,260.8 87,250.9 82.7,247.4 78.5,244.6 74.9,241.2 71.5,238.1 69.6,235.5 67.1,231.9ZM70.5,249.7 75.4,253C77.8,254.6 82.5,257.6 86.5,260.7 90.7,263.8 94.9,267.3 97.5,271.2 99.7,274.7 100.8,278.4 102.3,282.5 98.2,283.2 93.6,284.2 89.8,284.3 83.3,284.4 76.8,283.2 71.6,280.9 67.7,279.3 63.5,276.4 60.8,273.7L71,267.7ZM248.8,257.8 234.9,273.8 246.9,285.2C246.9,285.2 231.6,289.8 223.3,291.6 214.7,293.5 197.6,297.2 197.6,297.2 201.4,288.8 204.5,280.5 208.9,273.1 213.5,265.6 220.3,262.5 228.2,261.1 235.3,259.9 242.3,259 248.8,257.8ZM148,275.6 155.7,281.5C166.9,290 179,297.8 190.8,305.1 199.5,310.5 208.2,315.2 216.9,319L231.9,325.4 226.9,336.9C218.6,333.5 209.3,329.9 201.7,326.7 192.6,322.9 183.8,318.9 175.1,314 169.4,310.8 158.3,302.4 152.7,297.3 147,292.2 142.3,287.8 136.8,282.4ZM76.2,307.1C81.6,307.3 87.2,308.2 91,310.6 95.8,313.6 95.6,321.4 93.9,326.3 92.3,331 89.5,335.7 87.3,339.2 84.9,335.6 82.9,331.9 81.3,328.7 77.5,332.4 75.3,334.4 69.7,336.5 65.8,338 63.3,338.5 61.1,338.5 54.4,338.8 52.2,339 56.8,333 62.3,325.9 71.2,316.8 71.2,316.8L63.4,309.5C67.6,308.4 71.9,307 76.2,307.1ZM139.2,314.6C142.2,315.5 146,316.9 147.8,319.5 148.7,320.7 149.1,322.4 148.2,324.3L142.6,335.5C140.6,339.5 139.6,340.6 138.5,339.9 134.2,337 123.2,330.3 123.1,323 123,319.5 125,316.7 128.2,315.3 131.8,313.7 135.7,313.5 139.2,314.6Z"/>
</svg>
