<svg width="300" height="400"
	xmlns="http://www.w3.org/2000/svg">
	<path fill="#011" d="M89.9,44C88.5,43.9 87.4,44.9 86.8,48.1 85.9,53.8 85.4,56.8 83.9,59.9 83.5,60.7 83,61.6 82.6,62.4 78.7,64.2 76.5,65.3 68.7,66.9 68.9,63.4 69.4,59.9 71.5,57 73.2,54.4 72.7,50.6 71.2,48.6 69.5,46.3 67.2,45.6 64.8,45.7 64,45.7 63.1,45.9 62.3,46 57.8,47 52.6,49.2 52.9,53.6 53,56.1 53.4,58.4 55.9,59 57.3,59.3 58,59.9 58.2,60.6 58.4,61 58.1,65.3 58,68.4 54.2,68.9 50.7,69.5 48.2,68.5 45,67.3 42.1,68.9 42.2,72.3 42.2,73.8 43.2,76.5 44.3,78.3 45.4,80.1 46,81.1 47.2,81.2 51.2,81.6 53.2,81 57.5,80L57.1,84C56.8,86.5 54.2,88.5 48.5,92.4 39,99 37,101.2 38.4,103.3 40.4,106.4 42.1,107.6 45.9,105.5 49.5,103.5 52.9,100.9 56.3,98.6 56,103.7 56.3,109.1 55.2,113.7 54.7,115.4 53.3,116.9 49.9,117.1 46.6,117.4 43.6,116.6 40.2,116.2 44.1,122 47.9,127.2 51.5,132.6 53,134.8 54.7,135.9 56.4,135.7 61.5,135 65.2,129 65.4,125.2 66.1,114.2 66.1,105 66.7,94.8 69.5,98.5 72.1,100.6 75.4,100.6 72.7,106.7 71.2,112.7 73.9,118.3 75.4,121.5 75.9,121.8 78.7,121.2 82.5,120.4 93.8,119.5 100.5,119.2 102.2,119.1 106.2,118.9 109.3,118.8 108.9,121.1 108.2,123.9 106.8,125 104.3,126.9 101.1,126.9 98.8,126.4 87.9,124.2 88.3,124.2 93,131.2 100.2,141.7 100.6,143.3 109.1,137.6 114.1,134.1 117.8,130.1 119.1,124.6 119.4,123.1 119.8,121.5 120.1,120 122.7,120.3 125.3,120.6 126.3,120.6 130.6,120.6 132.5,116.6 129.8,113.6 128.7,112.5 127.3,111.6 126.6,111.6 126.1,111.6 124.1,111.5 122.1,111.3 122.8,107.9 123.5,104.6 124.2,101.2 126.5,101.9 128.9,102.6 130,102.6 132.6,102.5 135.2,102.1 135.8,101.4 138.8,98.4 135.8,90.8 129.8,89.6 128.7,89.3 127.7,89.5 126.7,89.7 127.1,87.7 127.5,85.5 128,83.6 128.7,80.5 127.2,77.5 125.7,75.5 122.6,71.1 118.5,72.5 114.3,72.8 111.4,73 108.6,73.2 105.8,73.4 89,74.7 85.9,75.7 85.4,78.9 84.8,83.4 82,88.1 79.4,92.8 75.5,89.1 71.2,85.1 67.9,82.1L68.1,77C72.7,75.3 74.2,75 75.9,74 74.9,75.9 73.4,76.5 72.2,78.5 75.1,76.8 82.9,74.1 88.6,68.8 91.5,68.3 96.2,67.3 100.8,67.1 127,65.8 132.7,62.8 124.7,54.9 122.4,52.6 120.5,51.6 118.2,51.6 116.4,51.6 114.5,52.3 112,53.5 108.7,55.1 103.1,56.2 98.9,57 100.4,54.8 101.4,53 101.8,51.8 102.3,49.2 99.1,47.5 94,45.4 92,44.6 90.8,44.1 89.9,44ZM118.2,81 115.8,91 106.4,91.9 108.9,82ZM101.8,82.8 98.4,92.6 88.5,93.5 92.6,84ZM113.7,100.3 111.2,110.8 101.7,110.7 104.2,100.6ZM95.5,100.9 92.1,110.7 83,110.6C82.8,107.3 84.5,104.3 85.6,101.3Z"/>
	<path fill="#b00" d="M234.8,52.9 226.3,53 208.3,71.9 215.2,78.5 223.8,69.5V109.5H234.9Z"/>
	<path fill="#b00" d="M118.2,177.3C114.4,177.5 110.8,178.9 108.7,182 104.6,188.1 98.9,193.9 93.3,197.9 86.4,202.8 85.4,206.6 88.7,216.1 90.3,220.6 90.4,222.2 89.4,230 88.4,238.2 88.5,239.2 90.3,242.2 91.4,243.9 94.9,247.1 98.1,249.2 101.2,251.3 105,254.8 106.5,257 110.2,262.7 114.4,264.9 121.3,264.9 126.6,264.9 127.3,265.2 129.4,268 130.7,269.8 132.9,271.8 134.3,272.5 137.7,274.4 139.1,274.3 145.9,272 149.2,270.9 153.9,270 156.4,270 160.9,270 161.3,269.6 167.5,262.9 172.3,257.7 174.6,255.9 176.6,255.9 178,255.9 180.3,254.8 181.6,253.5 183.6,251.5 184,250 183.9,245.6 183.8,242 184.6,238.2 186.2,234.5 189.3,227.1 189.1,223.3 185.5,217.8 183.6,214.9 182.3,211.2 181.8,207.5 180.2,196.2 177.5,191 167.6,187.9 164.6,187 161.6,186.1 159.8,183.7 156.2,178.8 147.9,177.4 139.5,180.4 134.9,182.1 135.2,182.2 129.2,179.3 126.2,177.9 122.1,177 118.2,177.3ZM121.9,187.2C124.2,187 126.5,187.7 129.1,188.9 134,191 134.2,191 145.9,189.1 149.2,188.6 150.5,189.1 156.5,193 160.3,195.5 164.9,198.1 166.7,198.8 171,200.5 172.3,203.7 171.6,211 171.1,216.4 171.3,217 174.3,220.5 177.8,224.7 178.5,229.2 176.3,233.7 175.5,235.2 174.7,238.4 174.3,240.9 173.4,246.4 171.3,248.9 168.4,249.3 165.7,249.6 163.3,251.4 161.2,254.6 157.7,260.3 153.2,261.9 147.1,262.3 139.4,262.7 136.7,263.9 134,259.5 131.4,255.4 129.7,254.4 122,255.2 116.2,255.7 116.1,254.6 113.3,249.9 111.6,246.9 108.5,243.5 106.6,242.1 97.8,235.5 97.3,235.9 100.7,226.2 102.1,222.5 103.1,219 101.7,216.2 98.7,210.1 99.3,207.7 105.6,201.6 108.7,198.6 113,194.1 115.2,191.4 117.4,188.7 119.6,187.5 121.9,187.2ZM137.4,210.8C129.1,210.8 122.3,217.5 122.3,225.8 122.3,234.2 129.1,240.9 137.4,240.9 145.7,240.9 152.4,234.2 152.4,225.8 152.4,217.5 145.7,210.8 137.4,210.8Z"/>
	<path fill="#050" d="M224.9,198.7C217.9,198.8 222.1,206.2 224.1,211 225.7,215.1 228.2,223.8 229.3,228.8 225.8,232.3 222.7,236 221.7,240 219.4,249.7 222.8,260.2 226.6,267.7 221.1,264 215,259.3 208.4,259.8 200.6,260.5 197.4,267.6 195.4,273.9 193.2,281.1 192.2,290 195.8,293.7 203.2,301.5 207.1,299.1 218.7,297.2L217.4,306.8C212.8,307.6 208.4,308.5 204.3,308.5 192.3,308.4 188.8,305.8 178.6,301 163.3,307.5 149.8,310.6 136.3,310.4 129.9,310.3 123.6,309.3 117.1,308.1 117.1,304.9 116.8,300 116.7,298.6 116.3,294.8 115,292.5 111.9,292.4 109.4,292.3 107.3,295.7 106.7,300.3 106.7,301 106.7,303.7 106.7,306 103.3,305.2 100,304.2 96.9,303.2 98.9,298.5 100.1,293.2 100.1,288.4 100,282.5 97.9,277.9 91.7,274.5 86.8,271.8 81.1,274.7 77.4,277.5 72.4,281.4 70.2,286.4 66.9,292.3 62.7,290 59.7,295.3 59.2,298.1 58.4,301.6 60.7,302.5 66.5,304.8 69.4,305.9 75,307.5 77.9,308.5 73.1,316 67.6,323.8 60.8,324.2 55.3,324.5 53.7,326.6 54.1,330 54.5,332.7 56,334.3 57.7,334.8 60.7,335.8 64,335.6 67.1,334.5 67.8,337.7 68.5,341.2 69.1,342.3 72.2,348.1 77.2,353.8 82.6,355.2 87,356.4 91.8,354.5 95.3,349.3 100,342.2 98.6,327.8 92.6,320.6 92,319.9 89.5,317.4 87.8,315.6L89.2,312.5C95.4,314.3 101.6,315.9 107.7,317.2 113,318.3 118.3,319.2 123.5,319.9 121.4,324.7 119.4,330.3 119.4,335.2 119.5,344 127.5,352.6 135.8,352.1 145,351.5 149.1,342.3 150,334.4 150.6,329.7 149.5,325.1 148.8,320.7 152.9,320.5 157.2,320.1 161.7,319.6 167.9,328.8 183.1,336.5 192.5,335 204.7,333.1 216.7,339.4 223.9,347.9 231,356.5 231.6,356.9 238.8,355.2 247.9,353.1 243.8,351.4 233.8,339.8 229.5,334.9 224.5,331.8 219.3,328.7 214,325.6 209.5,323.1 204.6,321.8 208.9,321.7 213,321.3 216.2,320.6 230.7,317.8 232.1,318.3 238.1,328.5 241.3,334.1 247.5,341.8 251.3,346.4 254.5,350.2 257.4,350 261.5,349.1 264.3,348.6 266.9,347.3 267,344.3 267,343.5 263.8,339.5 259.8,335.3 253.5,328.6 250.7,323.4 244.9,312 242.8,307.9 240.6,306 237.3,305.4 234.5,305 231.7,305 229,305.1 229.8,296.4 231.4,283.2 233,276.7 235.5,278.6 238.1,280.6 240.6,282 245.9,285.1 250.3,286.9 252.2,286.9 255.4,286.9 260.3,282.7 262.7,277.8 268,267 260.5,232.8 250.2,226.3 246.3,223.9 242.7,223.1 239.3,223.5 238,219.1 236.4,213.6 235.9,211.2 234.2,203.2 234.4,199.6 226.5,198.8 225.9,198.7 225.4,198.7 224.9,198.7ZM239.8,235.5C244.2,235.6 248.4,240.7 250.2,245.8 252.3,251.6 256.5,273.1 249.2,273.8 244.8,274.2 239.8,268.4 236.5,263.2 231.8,255.6 229.6,245.9 232,241.5 234.3,237 237.1,235.4 239.8,235.5ZM210.4,271.9C214.8,272.7 217.4,274.6 222,276.5L220.7,284.6C216.5,286.2 208.2,289.4 205.7,286.4 204.6,285.2 204.6,284 205.6,280.2 207,274.4 208.2,271.5 210.4,271.9ZM88.7,288.6C88.8,292.4 86.9,296.1 84.7,298.8 82.9,298 80.1,296.8 78.3,296.1 79.6,293.7 81.2,290.5 82.8,287.8 85.1,283.8 88.5,284.5 88.7,288.6ZM176.5,313.5C182.3,317 188.5,318.7 194.8,321 192.2,321.4 187.9,322.7 183.9,322.7 178.1,322.7 175.2,319.7 172.1,315.6 173.5,314.8 175,314.1 176.5,313.5ZM135.4,321.2 138.4,321.3C139.2,325.9 140.3,329.5 139.8,333.7 139.4,337.7 138.3,340.5 134.7,340.6 131.4,340.7 129.9,337.5 130.7,333 131.5,328.6 133.7,324.6 135.4,321.2ZM81.4,324.5C84.7,327.7 88,332.5 87.5,336.9 87.2,339.3 85.2,341.6 82.5,341.1 77.1,340 76.6,334 75.7,329.7 77.8,328.1 79.7,326.4 81.4,324.5Z"/>
</svg>
