<svg width="300" height="400"
	xmlns="http://www.w3.org/2000/svg">
	<path fill="#011" d="M69,56.5C64.2,56.6 59.5,58.6 56.4,61.6 54,64 52.6,66.2 52.3,69.3 52,72.4 54.1,74.8 57.2,74.9 60,75.1 60.8,72.8 62.1,70.8 64.9,66.5 66.7,66 71,65.9 73.9,65.9 79.5,67 79.4,73.1 79.4,77.7 76,80.8 68.8,80.8L61.1,80.8V86.3 91.8C61.1,91.8 66.1,91.7 68.7,91.6 77,91.5 79.5,94.5 80.5,98.8 82,105.6 75.5,107.9 69.8,107.5 66.1,107.3 62.1,107.3 60.1,102.2 59.2,99.7 57.3,97.5 54.8,97.5 52.2,97.5 49.7,99.7 50,102.4 50.6,106.8 52.8,111.3 56.1,114.1 60.2,117.5 65.5,117.9 71.1,118 81.8,118 90.1,111.1 90.9,100.8 91.4,94.2 88.3,87.5 80.7,86 86.5,84.1 89.1,79.9 89.4,75.4 89.7,69 86.6,62.9 81.8,59.6 78,57 72.9,56.4 69,56.5Z"/>
	<path fill="#b00" d="M216.3,43.7C215.2,45.1 214.9,47 215.3,49.7 216.2,55.4 216.6,61.3 216.8,67 217,74.6 217.1,81.8 215.8,88.5 213.9,98.3 209.9,107.4 203.4,116.6 195.8,127.3 202.2,123.7 207.5,118.9 214.5,112.6 219.8,103.8 222.5,95.5 225.8,100 230,104.7 229.7,108.8 229.6,110.2 228.7,110.6 227,111.1 230.1,116.1 237.2,126.8 244,125.8 252.9,124.1 249.8,111.8 246.2,107.1 243.2,103.4 238.5,99.1 233.2,95.6 231.6,94.5 226.7,90.7 224.3,88.8 224.8,86.9 225.4,83.1 225.7,81.2 232.6,84.6 239.5,82.4 242.1,75.2 243.7,70.9 244.8,66.1 242.3,62.1 239.9,58.1 235.9,58.7 235,62.5 233.7,67.6 232.1,71 226.5,70.7 226.7,67 226.9,63.4 227,59.8 227.3,49.4 226.1,46.5 220.4,43.2 218.8,42.3 217.3,42.4 216.3,43.7ZM183.9,47.4C183.4,48.7 184.3,50.8 184.1,52.8 183.6,59.5 175.5,63.8 170.6,68.4 175.5,68.4 179.5,67.1 183.2,66L183.3,75.7C180.3,76.8 177.4,77.8 174.2,78.4 166.8,79.7 162.7,82.5 164.2,85.3 166.6,89.7 170.7,91.1 179,88.1 180.5,87.5 183.6,86.4 183.6,86.4 183.7,89.7 181.9,93.3 179.4,96.7 175.9,101.2 170.8,104.7 167.4,106.4 161,109.5 149.1,114.4 163.2,113.7 171.1,113.3 179.7,108.5 184.5,103.8 184.6,108.2 184.5,111.7 184.7,116.1 184.9,118.8 184.6,124.6 187.8,124 190.5,123.5 191.7,118.1 192.6,109.9 192.8,108.2 192.9,101 192.6,93.9 194.8,95.3 197.8,95.7 200.3,95.1 199.8,96.2 200,98.2 200.8,99 202.5,100.9 203.9,101.1 205.8,99.8 209.4,97.1 209.9,91.2 210.8,86.8 211.9,81.1 209,78.8 205.4,76.4 206.2,73.7 204.8,71.3 199.6,71.6 196.8,71.8 194.2,72.3 191.8,73L191.5,63.5C198.3,60.6 207,56 201.3,52.3 198.7,50.6 195.2,47.8 191.6,46.5 189.1,45.6 185,44.5 183.9,47.4ZM202.8,80.3 202.3,87.7C199.5,85.8 195,84.9 192.2,84.2 195.3,83.7 198.8,83.1 200.8,81.9 201.6,81.4 202.2,80.9 202.8,80.3Z"/>
	<path fill="#b00" d="M187.3,199.2C183,201.7 176.4,208.1 173.4,212.4 165.4,207.8 156.4,204 150.1,200.6 143.6,202.6 136.2,204.6 131.1,208.3 126.1,211.9 117.6,223.4 124.3,228.4 127.1,230.5 130.1,229.2 133,228.4 130.3,232.7 129.6,237.8 129.4,242.3 129,252.6 133.4,261.3 139.6,268.2 144.3,273.3 149.9,277.5 155.5,279.5 161.5,281.7 168.7,281.7 174,279.2 182.7,275.3 187.9,269.1 191.5,261.4 204.9,264.8 218.6,265.9 228.3,258 236.1,251.6 237.8,239.2 236.6,229.4 235.1,215.8 224.6,201.6 212.3,197.3 204,194.4 194.3,195.1 187.3,199.2ZM210.2,207.5C219,211.6 225.7,221.9 226.4,232.2 227.1,243 223.2,251.3 216,254.3 211.3,256.3 199.2,254.9 194.1,252.5 195.3,246.5 194.9,240.2 193.4,234.8 191.5,228.1 187.4,222.4 182.7,218.7 186.2,214.1 189.4,210 193.7,207.9 199.4,205.1 205.1,205.2 210.2,207.5ZM139.7,210.6C140.6,210.5 141.6,210.7 142.6,211.1 147.3,213.1 145.4,219.7 139.4,222.2 135.1,224 132.9,224.1 131.3,222.5 129.4,220.6 130.1,218.4 132.9,215.5 134.9,213.3 137.1,210.9 139.7,210.6ZM179.4,223.3C185.9,229.5 189,236.4 188.8,245.2 188.6,251.2 187.2,257.5 183.9,262 179.4,268.1 171.8,271.8 163.5,271.6 154.3,271.4 147.3,267.9 142.5,262.7 138,257.7 135.5,250.9 135.1,243.3 134.8,236.4 137.6,230.7 141.7,225.9 146.5,220.5 153.2,216.9 160,216.5 166.9,216 175,219 179.4,223.3ZM159.9,227.7C156.8,227.7 155.3,229.5 156.4,232.2 156.8,233.3 157.6,233.6 159.2,233.1 164.7,231.5 165.2,227.7 159.9,227.7ZM171.3,231.8C170.2,231.9 169.3,233 169.1,234 168.8,235.3 169.2,235.7 170.6,235.5 171.6,235.3 172.7,234.3 172.7,233.3 172.8,231.9 172.2,231.8 171.3,231.8ZM148.4,233C148,233.2 148.1,234.3 148.4,235.1 149.1,237.1 152.5,237.1 152,235.1 151.5,233.3 149.9,232.2 148.4,233ZM177.6,238C177.3,238 177,238.1 176.5,238.2 173.2,239.2 172.4,240.4 173.9,242.1 176.3,245 180.5,243.2 179.4,239.7 179,238.5 178.5,238 177.6,238ZM145.4,241.2C145.2,241.2 145,241.7 144.7,242.8 144.4,244.1 144.1,245.9 144.1,246.9 144.1,248.7 146.5,249.3 147.5,247.8 147.8,247.3 147.4,245.4 146.7,243.7 146,242 145.7,241.2 145.4,241.2ZM159.8,243.8C158.6,243.9 157.3,245.2 156.9,246.4 155.9,249 156,249 159.4,247.5 160.9,246.9 161.5,246 161.6,245.2 161.7,244.5 161.6,243.7 159.8,243.8ZM175.4,248.7C173.6,248.7 172.6,250.4 173.3,252.2 174,254.1 175.3,254.1 176.8,252.2 178.2,250.5 177.4,248.7 175.4,248.7ZM166.1,256.7C164.3,256.7 162.9,258.5 163.5,260 164.2,261.7 165.7,262.1 168.3,261 171.2,259.9 169.5,256.6 166.1,256.7ZM151.3,256.9C151,256.9 150.7,257 150.4,257.1 149.1,257.6 149,258 150,259.2 151.4,260.8 155,261.2 155,259.8 155,258.4 152.9,257 151.3,256.9Z"/>
	<path fill="#050" d="M126.2,117C119.4,123.5 112.8,130.3 107.2,137.6 102.2,144.1 97.9,150.9 95.1,158.3 92.9,164.1 91.9,170.2 93.1,176.4 88.7,171.7 83.7,166.9 78.3,163 70.6,157.6 62.3,153.5 55.4,149.2 55.2,157.8 54.9,165.8 56.2,173.7 57.6,182 59.5,190.5 63.9,197.1 67.7,203 72.6,208.7 78.4,213 82.3,215.9 86.5,217.7 90.4,219.6 93.1,220.9 99.8,225.6 102.3,227.4 101.2,239.5 101.2,249.9 104.5,258.2 108.1,267.3 113.3,273.3 119.6,278.9 124.2,283 130.1,286.5 134.2,291.8 139.3,298.4 144.8,304.9 151.2,309.8 149.3,310.6 147.6,311.4 145.9,312.4 134.3,302.7 120.7,292.4 107.4,286.4 91.5,279.3 74.2,273.8 62,270.5 66.2,282.3 76,292.3 84.5,299.7 90,304.5 96.8,308.3 103.7,313.2 92.5,315.6 82.9,320.9 75.4,327.8 68.3,334.4 62.7,340.6 58.7,349.4 68.5,350.8 80.2,350.4 90.9,347.9 100.8,345.6 110,341.5 115.8,335 119,331.4 121.4,325.8 123.1,318.5 125.4,318.6 127.7,318.2 130,316.7L136.1,320.7C130.3,327.3 125.5,334.5 121,341.4 117.7,346.7 114.9,352 113.7,357.2 120.3,357.9 126.6,357.4 132.5,355.6 138.9,353.6 145,350.3 150.5,346.5 156.2,342.5 160.9,338.2 164.1,332.9 166.6,328.7 168.1,323.8 169.9,319.1 178.8,324.9 188.7,327.6 197.5,331.6 207.4,336.1 217,340.9 225.5,347.2 227.5,348.6 229.2,349.8 231.2,351.2 233.7,346.9 236,342.4 237.7,338.7 242.1,328.6 242.8,326.2 242.3,323.1 241.4,318.3 235.4,314.5 222.3,310.5 205.7,305.5 193.2,300.8 178.1,294 160,285.8 151.9,282.5 136.8,278 123.7,274 116.6,268.1 112.1,255.9 108.5,246.2 108.7,234.9 112.6,222.9 116.9,209.9 120.2,205.8 124.8,202.5 132.7,196.8 139.9,189.3 143.3,180.5 147.3,170 149.6,167.5 156,167.7 159.6,167.8 163.3,168.5 166.5,170.1 174.7,174.3 181.4,175.7 190.6,177.6 197.7,183.9 205.9,189 214.4,192.7 223.3,196.5 233.5,197.3 242.7,197.5 251.9,197.7 251.3,197 246.8,188.6 241.7,179.1 233.6,173.5 225.3,168.2 232.3,164.4 256.1,140.8 237.4,141.8 232.1,142.2 227.5,142.9 223.3,144.4 216.5,146.8 210.7,150.9 204.2,156.4 199.5,160.5 195.5,165.3 191.3,170.1L184.9,168.4C179.3,167 173,166.2 168.3,163 164.9,160.6 164.2,160.5 155,161 145.2,161.6 139.2,163.1 138.9,166.2 138.4,173.2 137.3,179.5 133.7,183.9 130.4,188 125.5,194.2 121.6,196 117.5,197.9 114.8,202.2 113,204.7 111.4,206.7 110,208.8 108.7,210.9 105.4,209.4 102.4,207.6 100.6,204.9 102.8,200.8 103.5,195.6 108.4,190.3 115.5,182.7 121.2,174.6 124.9,165.8 128.8,156.6 129.6,147.7 129.3,139.1 129,131.7 127.7,124.4 126.2,117ZM121.5,136.6C123,137 123.8,139.4 123.8,143.8 123.8,151.6 121.5,159.1 118.9,165.9 115.8,174 108.8,180.7 102.6,184.6 99.2,175.9 99.3,166.9 102.3,159 104.9,152.2 109.7,145.9 114.4,141 117.6,137.6 119.9,136.1 121.5,136.6ZM226.1,151.4C227.2,151.4 228,151.5 228.4,151.9 229.9,153.7 225.4,158.8 221.6,161.4 217.8,164 212.2,167.4 210.3,164.6 208.4,161.9 211.3,157.9 215.4,155.3 217.7,153.8 223,151.7 226.1,151.4ZM69.8,168.6C71.7,168.6 74.5,170.2 78,173.6 88,183.1 97,201.1 95.2,208.1 94.7,210.2 94,210.7 91.3,210.6 83.9,210.5 73.8,198.9 69.3,185.4 65.7,174.6 66.1,168.7 69.8,168.6ZM213.1,174.6C215.9,174.6 219.6,175.8 222.5,177 227.1,178.9 231.3,183.7 230.1,185.9 228.9,188.2 222.7,186.8 217.8,184.5 212.9,182.2 207.8,179.1 209.4,176.1 210,175 211.4,174.6 213.1,174.6ZM146.1,289.2C147.1,289.1 148.5,289.5 150.5,290 159.9,292.5 167,296.6 174.8,300.4 188.1,307.1 201.6,314 216.9,319.1 231.7,324 234.8,326.9 231.7,332.7 230.1,335.7 226.4,334.4 216.4,329.5 204.2,323.6 192.5,320.4 182.5,316 170.2,310.7 159.9,305 150.5,300.6 144.4,297.7 144.5,297.6 144.3,293.6 144.1,290.4 144.5,289.3 146.1,289.2ZM96.9,291.6C106.9,292.9 117,297.1 123.4,304.9 126.8,309 123.2,312 119.7,311.1 110.7,308.6 99,304.2 94.3,295.8 92.7,292.9 94.7,291.3 96.9,291.6ZM159.2,315C162.3,315 163.9,317.4 162,320.6 156,330.6 147.1,341.6 136,345.1 127.8,347.7 128.1,343.4 130.9,338.5 136.7,328.3 145.5,320.4 155.6,315.8 156.9,315.2 158.1,314.9 159.2,315ZM110.3,318.7C114.8,318.5 116.3,321.9 114.3,324.9 107.5,334.7 96,339.8 84.8,341.6 77.1,342.9 75.8,341.2 80.3,334.5 86.8,324.9 98.8,319.1 110.3,318.7Z"/>
</svg>
