<svg width="300" height="400"
	xmlns="http://www.w3.org/2000/svg">
	<path fill="#011" d="M95.6,47C93.1,47 93.6,47.2 93.2,52.3 92.5,60 89.4,67.1 85.9,73.8 82.2,80.8 77.4,87.5 71.8,93.8 66.7,99.7 66.4,103.5 72.5,99.6 76.7,96.9 84.3,91.9 91.6,85.8L97.7,85.3C98.9,95.1 96,114.2 91,122.7 84.6,133.2 82,138.9 95.5,133.2 101.8,130.5 108.3,123.5 110.9,113.4 114,101.8 113.4,88.5 113.5,83.5L119.8,82.8C127.8,82 129,79.6 129,75.6 129,71 123.4,67.9 116.9,68 115.7,68 111.3,68.7 107.5,69.4 110.7,65 112.8,61 113,58.4 113.4,53.4 103.3,47 95.6,47ZM64,51.9C60.9,52 57.2,55.8 56.7,62 56.1,68.7 57.7,75.4 63.2,76.3 69,77.3 75.6,73.5 78.6,68.5 85.8,56.3 84.4,54.9 76.8,59 70.5,62.4 69.4,60 67.7,55 67,53 65.7,52 64.3,51.9 64.2,51.9 64.1,51.9 64,51.9ZM49.5,74.7C48.8,74.7 48.2,74.9 47.4,75.2 44.5,76.6 43,80.1 43,85.6 43,90.8 44.9,95.9 47.9,98.9 51.7,102.7 54.2,101.7 61.4,93.7 68.1,86.1 69.8,82 66.1,82 64,82 62.6,84.2 60.1,84 58,83.9 56.9,83.2 55.1,80 53.1,76.4 51.4,74.7 49.5,74.7Z"/>
	<path fill="#b00" d="M231.5,49.2 211.7,77.3C205.4,86.1 204.7,88 204.7,94.8L204.9,98.5H229.1L228.9,111.2H240.5V98.4L248.2,98.5 248,89.5 240.5,89.5V49.2ZM228.9,72.2V89.5H217Z"/>
	<path fill="#050" d="M147.9,113.6C145.8,113.6 143.6,114.2 143.1,117.3 142.3,122.2 141.9,132.9 141.4,149.2 141.1,159 140.4,169.1 139.8,171.6 138.9,175 138.9,177.4 139.8,181.5 140.5,184.5 141.1,192.7 141.1,199.7 141.2,210.2 140.8,213.7 139,219.3 136.8,225.9 136.8,226.1 138.6,230.8 140.1,234.6 140.4,238.2 140.3,251 140.3,259.5 139.6,269.4 139,273 136.6,285.4 137.4,288.2 137.8,294.3 138.1,298 137.9,303.7 137.7,309.5L125.4,314.6C124.6,312 124.1,309.4 124.3,306.9 124.7,300 126.2,289.3 127.9,284.3 130.5,276.6 130.4,275.8 127,272.5 126.4,271.9 124.2,269.6 123.4,268.7 124,266.4 124.4,264.2 124.6,261.9 125.3,252.9 124,249.6 119.2,243.7 117.1,241.1 116,239.9 115.3,239.2 118,233.2 119.8,227.2 119.9,223.1 120.2,217.1 112.6,209.4 104.2,208.5 103.8,208.4 103.3,208.4 102.9,208.4 99.7,208.6 96.6,210.8 93.7,213.9 84.9,214.2 77.8,217.8 71.9,223.1 61,232.8 58.9,244.5 52,256.1 49.5,260.2 49.3,264.8 51.5,265.6 52.5,266 56.6,264.5 61.3,262.2 66.8,259.5 72.8,256.1 76.2,254.7 74.7,262.6 73.5,270.5 71.1,277.7 68.4,282.9 68.4,284.6 71,286 74,287.6 76.1,285.7 81.7,281.2 83.9,279.5 85.9,277.7 87.9,275.8 88.8,284.2 90.5,298.5 89.8,308 89.4,312.4 89.5,312.5 92.6,312.8 95.2,313.1 95.7,312.2 98,309.8 104.1,303.6 109.7,296.5 114.2,289.2 118.2,299.5 113.8,315.3 111.2,324.6 109.4,320.8 106.7,314.4 102.5,315.4 99.4,316.1 98.9,318.6 98.8,332.1 98.7,340.7 99.1,343.5 100.7,347.3 102.4,351.1 103.3,352 105.2,352 108.7,352 110.2,350.7 109.3,346.5 108.2,341.3 108,335.7 107.8,332.2 112.1,335.5 115.4,338.7 121.8,335.4 125.4,333.5 125.9,336.2 122.3,343.1 120.1,347.3 119.8,348.5 120.8,350.6 122.3,354 126.3,353.8 130.6,350 132.1,348.7 134.3,345.8 136,343.8 136.1,346 136.5,348 137.3,349.5 139.6,353 142.5,352.7 144.6,348.8 145.9,346.1 146.1,340.6 147.3,320 148,309.5 146.9,303.2 148.7,294.4L155.2,293.8C158.1,301.1 156.7,309.3 156.7,316 156.6,327.6 157,336.1 157.8,338.8 158.9,342.7 159.2,343 162.4,343 167.5,343 169.3,339.8 167.9,333.4 167.3,330.7 166.9,321.8 167,313.5 167.2,305.2 167.2,287.7 167.1,274.5 167.1,261.3 167.5,243.9 168.2,235.9L169.4,221.4C173.5,220.6 177.7,219.4 181.6,217.7 181.8,222.1 181.9,229.4 181.9,235.2 181.9,246.4 181.5,249.9 179.5,257 176.4,267.5 175.2,277.1 174.2,297 172.6,328 173.7,336.2 179.4,337.6 183.5,338.6 183.5,337.5 183.3,330.1 183.3,326.9 183.3,323.8 183.4,320.6 186.1,319.6 188.6,318.4 191,316.9 191,320.4 190.9,325.6 190.9,328.5 190.9,338.4 191,339.1 193.3,340.5 196.1,342.4 200.6,341.6 201.3,339.2 201.6,338.3 201.6,334.8 201.4,331.5 201.1,326.9 201.9,315.4 202.8,308.4 204.6,307 206.4,305.6 208.2,304.5 213.4,301.2 212.8,295 207.2,295 204.4,295 200.6,296.8 193.2,301.8 191.2,303.1 186.5,305.8 184.1,307 184.5,299.9 185,292.9 185.2,286.2 185.5,269.6 185.8,268 188.4,261 191.2,253.8 191,252.7 191.4,235.7 191.6,228.9 191.4,218.2 192.4,211.2 193.8,210 195.2,208.7 196.4,207.2 196,213.3 196.7,219.3 198.3,225 199,227.6 201.9,234.8 203.4,242.2 205.2,251.2 202.3,260.8 207.7,260.1 213.5,258.6 217.5,240 219.9,230.5 221.2,225.4 222.9,221.1 224,215.4 227.5,221.5 236.3,230.1 243.9,239.1 249.6,245.8 253.6,250.1 255.2,249.1 256.8,248.2 255.7,236.3 255,229.9 252.3,203 250,194.1 243.9,186 239.8,180.4 236.1,177.6 231.8,177.6 228.9,177.6 225.6,179 222.6,182.3 220.2,178.6 217.7,176.3 215,175.6 212.3,174.8 209.4,175.6 205.9,177.7 204.6,175.2 202.2,172.3 200.3,171.6 195.8,170 190.1,172.7 187.2,175.4 184.4,177.8 179.8,183.4 176.9,187.9 174,192.3 171,195.9 170.3,195.9 168.4,195.9 168.5,190 170.5,178.9 171.9,171.5 172.3,168.4 171,160.5 168.7,146.6 170.5,131.4 171.4,117.2 171.7,113.6 169,113.9 166.9,113.7 164.4,113.6 162,113.6 161.4,116.7 160.2,123.5 160.1,149.7 160.6,159.2 160.9,163.9 161.5,168.2 160.1,171.9L150.2,171.8C151,153.6 151.7,134.4 152,117.8 152.1,114.1 150.3,113.7 148.3,113.6 148.2,113.6 148,113.6 147.9,113.6ZM195.4,178.8C195.6,178.8 195.7,178.8 195.8,178.8 196.5,178.9 197.1,179.2 197.7,179.9 202.1,185 195.8,193.8 192.8,198.3 189.4,203.4 184.8,207.5 179.2,209.9 174.5,211.9 174.9,211.8 176.3,207.2 177.2,204.4 178.4,198.4 182.1,193.4 184.6,190.1 190.8,178.9 195.4,178.8ZM150.6,179.1 158.9,179.4C159.9,185.8 158,192.8 158.2,198.3 158.5,207.9 162.2,215.6 158.8,222.7 156.3,222.6 153.2,222.4 151,222.3 148.8,214.5 151.1,205.9 151.3,198.8 151.6,191.6 150.3,185.5 150.6,179.1ZM212.4,183.3C212.5,183.3 212.6,183.3 212.7,183.4 219.7,183.7 217.8,199 217.6,201.3 217.1,210.6 213,218.7 211.2,223.2 209,228.6 208.4,228.6 207.5,223.7 205.8,215.4 204.7,207.6 204.9,201.1 205,196 206.6,183.4 212.4,183.3ZM230.6,186.9C235.9,187 240.6,198.2 242.1,202.4 243.5,206.1 243.8,214 244.1,218.4 244.7,226.9 244.7,228 238.4,221.1 234.8,217 230.8,212.3 229.3,207.4 226.9,200.1 226.1,188.4 229,187.2 229.4,187.1 229.7,187 230.1,186.9 230.3,186.9 230.4,186.9 230.6,186.9ZM104.6,217.7C104.7,217.7 104.9,217.7 105.1,217.7 105.8,217.9 106.5,218.3 107.2,219 111.3,223.5 108.8,231.2 105.3,238.1 101.5,245.6 95.5,252.4 92.3,255.9 83.8,264.9 83.2,264.5 85.8,253.4 87.2,247 89.3,240 92,233.6 93.8,229.5 99.2,218.4 104.1,217.7 104.3,217.7 104.4,217.7 104.6,217.7ZM86.7,224.1C83,230.9 80.2,237.9 79.4,240.9 77.9,242.1 74.6,244.4 72.1,246 64.8,250.7 65.6,249.7 69.3,242.6 73.5,234.6 78.2,227.4 86.7,224.1ZM158.4,230.3C160.2,236.8 157,246.2 157,253.7 157,266.6 158,275.1 155.6,286.1H149.1C146,275 150.9,263.1 150.9,253.3 150.9,245 149.2,237.5 150.7,230.5ZM110.2,248.6C115.4,252.5 117.2,257.7 116.2,263.8 114.9,270.9 110.1,278.9 106.5,283.2 100.4,290.3 100.2,290.4 99.1,282.2 98.5,278 97.6,271.2 97,266.5 101.9,260.9 106.6,254.4 110.2,248.6ZM137.1,321.1C137.2,324.1 136.9,327.6 136.6,331.1 137,325.8 132.4,324.8 129.7,323.9Z"/>
</svg>
