<svg width="300" height="400"
	xmlns="http://www.w3.org/2000/svg">
	<path fill="#011" d="M100.7,42.5C98.3,42.5 96.3,44 96.2,47.2 95.9,53.3 88,61.1 83.5,65.6 81.5,65.9 79.5,66.1 77.5,66.2 80.7,63.4 82.8,58 83,54.4 83.2,50.7 81.5,49.6 79.2,52.7 76.6,56 74.1,53.8 71.3,51.1 66.6,46.5 62.2,49.6 63.7,56.6 64.5,60.1 66.5,64.5 69.6,66.7 68.5,66.7 67.3,66.8 66.4,66.8 60.4,66.8 55.4,67.8 54.3,69.7 53,73.1 59.3,77.9 65.1,77.6 67,77.6 68.9,77.4 70.8,77.2L70.9,84.2C68.3,84.7 65.6,85.2 62.8,85.5 53.2,86.4 47.4,88.3 48.8,90.6 51.4,95.1 56.6,97.4 62.4,96.3 65.1,95.8 68,95.2 71,94.4L71.1,101.4C68.2,102 65.4,102.4 62.3,102.4 57,102.5 49.1,102.5 50.8,106.4 52.2,109.5 55.3,111.1 58.7,111.7 55.7,113.7 52.2,117.2 50.3,121.1 47.4,126.8 47.2,133.4 51.8,135 59.1,137.6 63.1,131.8 64.4,125.7 65.4,121 64.8,115.2 64.7,111.8 66.9,111.6 69.3,111 71.2,110.6 71.4,119.7 69.8,129.2 72.9,137 75.6,143.9 80.5,146 83.4,135.6 84.9,130.2 84.3,125.3 84.2,119.4 87.6,125.5 92.3,131.4 96.7,135.8 101.7,140.8 103.9,142.2 107.5,140.1 113.1,137 120.3,115.7 121.3,99.8 121.9,88.7 120.5,85.7 113,82.1 107.3,79.9 102.7,79.3 97.6,79.4 92.7,79.5 88.2,80.3 83.7,81.3L83.7,75C90.7,73.5 97.7,71.9 104,71.5 114.3,71.1 117.7,70 116.5,66.8 115.2,63.4 111.1,60.8 107.2,61 105.1,61.1 102.8,61.6 100.6,62.2 104.5,59.9 108.8,54.2 108.9,50.9 109,48.8 107.9,46.3 106,44.7 104.5,43.4 102.8,42.6 101.2,42.5 101.1,42.5 100.9,42.5 100.7,42.5ZM95.2,89.8C95.7,89.8 96.1,89.8 96.6,89.8 100.4,90 103.8,91.5 105.6,95.1 107.2,98.1 107.1,99.8 106.6,106.7 106.3,111.6 106,115.8 103.1,119.1 99.3,123.4 93.1,117.3 88,114.4 86.4,113.5 85.1,113.1 84.1,113L84.1,108.1C84.4,108.1 84.8,108.1 85.2,108.1 90.3,108.2 93.9,108.4 96.3,107 101,104.1 96.4,97.2 89.9,97.9 87.7,98.1 85.8,98.5 83.9,98.8L83.9,91.4C88,90.6 91.9,89.8 95.2,89.8Z"/>
	<path fill="#b00" d="M224.7,52.8C219.9,52.9 215.1,54.9 212,57.9 209.7,60.3 208.2,62.6 207.9,65.7 207.6,68.7 209.7,71.1 212.8,71.3 215.6,71.4 216.4,69.2 217.7,67.1 220.5,62.8 222.3,62.3 226.6,62.2 229.5,62.2 235.1,63.4 235.1,69.5 235,74 231.6,77.2 224.4,77.2L216.7,77.1V82.6 88.1C216.7,88.1 221.8,88.1 224.3,88 232.7,87.9 235.1,90.9 236.1,95.2 237.7,102 231.1,104.3 225.4,103.9 221.8,103.7 217.7,103.7 215.7,98.6 214.8,96.1 212.9,93.9 210.5,93.9 207.8,93.9 205.3,96.1 205.7,98.8 206.2,103.2 208.5,107.8 211.8,110.5 215.8,113.9 221.1,114.3 226.7,114.4 237.4,114.5 245.7,107.5 246.5,97.2 247,90.6 243.9,83.9 236.4,82.4 242.1,80.5 244.8,76.3 245,71.7 245.3,65.3 242.3,59.3 237.4,55.9 233.6,53.3 228.5,52.7 224.7,52.8Z"/>
	<path fill="#b00" d="M155.1,163.6C144.2,163.8 137.4,172.5 134.8,178.9 121.3,174.8 110.1,178.7 106.1,186.3 102.1,193.9 101.4,201.7 109.3,210.4 96.3,216.6 93.2,227.6 96.1,236.3 98.9,245.1 108.2,252.5 118.5,248.5 117.7,262.1 127.2,270 135.8,271.8 143.9,273.4 153.7,268.9 157.8,261.4 169.8,275.5 182.5,272.1 191.2,266.5 200.7,260.5 201.6,244.7 194.7,232.1 207.3,228.6 210.8,213 207.2,204.2 201.1,189.3 187.3,191.1 177.9,191.9 179.5,178.3 171.2,164.6 156.7,163.7 156.1,163.6 155.6,163.6 155.1,163.6ZM155.8,172.6C162.2,172.6 167.3,177.8 167.3,184.1 167.3,190.5 162.2,195.6 155.8,195.6 149.5,195.6 144.3,190.5 144.3,184.1 144.3,177.8 149.5,172.6 155.8,172.6ZM122.2,186.5C128,186.5 132.7,191.2 132.7,197 132.7,202.8 128,207.5 122.2,207.5 116.4,207.5 111.7,202.8 111.7,197 111.7,191.2 116.4,186.5 122.2,186.5ZM186.7,201.2C192.8,201.2 197.7,206.2 197.7,212.3 197.7,218.3 192.8,223.3 186.7,223.3 180.7,223.3 175.7,218.3 175.7,212.3 175.7,206.2 180.7,201.2 186.7,201.2ZM152.3,202.4C161.2,202.4 168.3,209.6 168.3,218.4 168.3,227.3 161.2,234.5 152.3,234.5 143.5,234.5 136.3,227.3 136.3,218.4 136.3,209.6 143.5,202.4 152.3,202.4ZM115.6,220.2C120.8,220.2 125.1,224.5 125.1,229.7 125.1,235 120.8,239.2 115.6,239.2 110.4,239.2 106.1,235 106.1,229.7 106.1,224.5 110.4,220.2 115.6,220.2ZM176.6,235.7C183.5,235.7 189.1,241.3 189.1,248.2 189.1,255.1 183.5,260.7 176.6,260.7 169.7,260.7 164.1,255.1 164.1,248.2 164.1,241.3 169.7,235.7 176.6,235.7ZM140.2,237.1C147.1,237.1 152.7,242.7 152.7,249.6 152.7,256.5 147.1,262.1 140.2,262.1 133.3,262.1 127.7,256.5 127.7,249.6 127.7,242.7 133.3,237.1 140.2,237.1Z"/>
	<path fill="#050" d="M67.6,214.6C64.6,220.4 54.9,230.6 52.9,236.9 50.1,246.1 50,255 52,263.7 53.6,270.8 57.6,277.7 63.7,283.5 59.1,288.4 54.2,292.2 51,296.4 47.7,300.7 45.2,305.6 45.1,308.8 44.9,312.1 45.1,312.6 47.4,312.8 49.1,313 52.2,311.9 54,309.9 59.3,304 62.3,296 68.2,290.4 72.7,286.2 76.1,285.6 80.3,287.4 82.8,288.5 87.9,290.6 90.4,291.6 80.7,295.5 66.3,302.7 64.6,313.8 68.4,314.9 72,316.5 74.8,319.3 73.6,324.5 71.8,329.7 70.9,335 69.6,342.6 69.5,350.1 70,357.5 78.2,356.6 85,353.7 92.7,347.3 98.4,342.5 100.4,340.9 104.3,337.1 107,339.1 109.8,341.1 112.5,343.2 121.3,334.4 125.3,313.5 121.6,303.8 136,308.6 146,312.7 159.9,317.8 157.9,321.6 156.3,324.7 154.1,325.2 152.4,325.7 150.2,324.2 147.5,322.4 143.1,319.4 139.5,318.4 138.1,319.9 136.6,321.4 136.8,330.3 138.9,336.8 142.7,348.9 161.2,335.3 164.8,331.1 167.3,328.2 172.3,322.3 172.3,322.3 186.4,326.7 197.2,332.3 206.1,340.3 210,343.7 213.2,349.2 216.4,351.7 218.4,353.3 221,353.6 222.1,352.4 226.9,347.4 224.9,343.2 221.4,339 215.5,332 208.3,327.1 201.8,321.4 207.5,319.1 214.4,319.2 221,318 231.9,316.1 242.3,313.6 249.3,307.7L241.3,297C251.1,287.6 254.8,273.9 257,260.9 247.8,263.1 238.5,264.8 229.3,265.5 218.8,266.2 210.4,268.5 204.3,273.6 197,279.8 193.5,287.3 191.6,294.7 189.7,301.8 189.7,309.3 190.1,316.7 152.8,303.1 115.5,289.1 81.4,276.3 86.9,267.7 90.5,260.6 89.5,253.2 88.3,243.9 83.3,235.1 75.9,228.1 71.8,224.3 70.5,218.5 67.6,214.6ZM66.9,233.6C72.7,238 77.8,244.1 79,250.7 80.8,260.6 79.8,268.2 72.6,276 63.8,271.8 60.1,260.1 59.5,252.7 58.9,244.3 62,238.9 66.9,233.6ZM241.6,275.8C238.1,287.5 232.9,290 226.4,293.5 228.4,298 230.7,301.8 234.2,305.1 224.1,308.6 213.2,309.9 202,310.5 202.1,300.7 201.6,290 209.4,283.6 220.5,274.5 230.7,276.2 241.6,275.8ZM103.8,297.1C106.2,298.1 108.7,299 111.1,299.9 114.6,310.7 112.5,319.2 109.1,329.3 106.9,327.5 104,325.9 100,324.3 94.5,333.2 87.2,338.4 78.8,343.3 79.5,333.6 82.6,324.6 87.4,316.6 85.1,313.5 81.9,310.8 78.6,309.7 86.5,303.5 95.1,299.6 103.8,297.1Z"/>
</svg>
