<svg width="300" height="400"
	xmlns="http://www.w3.org/2000/svg">
	<path fill="#011" d="M101.9,50C97.6,49.7 95.2,53.5 96.9,60.6 98.3,66.1 98.1,67.9 94.3,71.8 88.4,78 93.5,77.8 98.7,76.6 100.7,76.1 103.2,75.1 106,73.7 113.5,70 115.5,67.8 115.4,63.1 115.4,59.8 114.7,58.5 111.2,55.1 107.7,51.8 104.4,50.2 101.9,50ZM63.1,57.6C59.7,58 59.4,61.8 59.4,63.7 59.5,70.9 63.4,78.3 68.2,80.2 71.3,81.5 72.4,81.3 77.5,78.7 81.6,76.6 85.5,72.1 87.1,69.1 91,62.1 86.1,62.6 81.3,63.4 74.4,64.5 72.1,64.4 69.3,61.5 66.6,58.7 64.8,57.3 63.1,57.6ZM122.3,74.8C119.1,74.9 115.9,76.3 112.4,77.5 102.2,81.1 92.2,85 82.1,85.8 72.6,86.6 64.3,86.9 54.3,86.1 50.4,85.7 49.8,85.8 50.1,88.7 50.7,96.2 57.9,100.4 63.8,99.7 70.1,98.8 76.7,96.3 82.2,95.2 89.5,93.7 97.8,92.6 102.6,92.2 107,91.9 113.3,93 111,99.6 116.8,98.3 126.2,96.2 131.2,91.2 135.3,87.1 133.7,83.3 131.2,79.8 128.4,75.9 125.4,74.7 122.3,74.8ZM86.3,100.3C83.8,100.2 81.5,100.4 79.5,101.1 82.3,107.9 88.7,114.9 95,117 98.1,118 101.5,117.9 103.9,116.1 105.4,114.9 105.8,112.9 104.9,110.8 101.7,103.6 95.6,101.1 88.7,100.4 87.9,100.3 87.1,100.3 86.3,100.3ZM80.8,118.4C77.7,118.1 78,119.2 79,121.4 82.8,130.2 89.9,136.9 98,140.5 104.8,143.4 111.3,137.8 107.3,132 101.6,124 90.1,119.4 80.8,118.4Z"/>
	<path fill="#b00" d="M230.6,57.5C223.5,57.3 214.6,62.2 210.8,67 206.8,72.2 205.1,76.3 209.8,79.2 214.5,82 217.6,78.6 221.2,74.5 223.5,71.8 227.9,69.4 231.3,70.3 235.5,71.4 237.5,77 235.1,79.6 228.1,87 222.4,89.4 214.5,96.1 211.2,98.9 209.7,100.5 208,104 205.8,108.5 205.8,113.1 205.8,117.9L248.4,118V106.2L223.5,106.1C227.7,101.2 233.1,97.2 237.6,93.7 247.9,85.8 252,79.4 249.1,70.6 246.4,62.2 238.6,57.8 230.6,57.5Z"/>
	<path fill="#b00" d="M179,191.3C176.1,191.4 173.5,192.3 171.5,194 168.8,196.5 170,200.9 173.3,208.3 178.3,219.4 175.5,229.9 174,242.6 187,246.2 199.2,249.1 198.8,260.9 198.7,266.5 198.2,278.2 204,276.9 217.7,273.8 228.9,251.6 222.9,239.5 219.3,232.2 212.2,227.6 204.6,224.7 208.6,218.8 207.8,208.4 204.4,203.5 199.7,196.6 187.8,190.9 179,191.3ZM187.5,229.3C188.5,220.9 188.6,210.2 184.7,203.1 192.2,204.4 195.3,207.6 195.8,211.6 196.6,217.1 192.2,224.1 187.5,229.3ZM210.3,257.3C208.5,247.9 203.4,238.6 193.9,236.8 201.8,233.1 207.8,235 211.1,239.3 214.7,243.9 214.8,251.4 210.3,257.3Z"/>
	<path fill="#050" d="M155.2,127.9C153.6,128 151.9,129 151.1,130.7 148.7,135.6 146.8,144 144.3,163.8 143.6,168.9 143.3,176.6 143,181.4 133.6,195.6 127.5,214.5 125.7,229.9 124,244.4 125.8,258.8 128.5,273.5 126.7,271.9 124.8,270.3 122.9,268.6 117.4,245.3 112.1,219 111.4,195.5 111.2,186.7 109.2,181.7 105.7,182.2 99.1,183.1 99.1,192.7 98.8,197.7 97.9,218 102.9,238 107.1,256.4 97.3,250.6 87.1,248.4 77.5,256.7 66.8,266.1 67.4,295.5 77.8,318.2 83.2,329.8 95.6,344.1 98.1,341.6 100,339.6 98.1,332.2 92.8,321.6 84.9,305.5 83.5,301.3 83.4,289.3 83.3,282.7 83.7,269.6 91,268.8 96.3,268.2 105,272.1 111.6,277.7 115,280.6 123.7,290.2 131.1,299.1 148.9,320.7 165.8,337.1 177.8,344.4 187.8,350.4 192.7,351.5 194.5,348 195.6,345.9 194.5,341.8 189.8,330.9 179.3,304.6 170.9,280 165.9,254.6 161.5,232.1 158.2,208.2 157.4,186.6 164.3,175.2 175.3,169.5 188.8,170.2 212.1,171.3 218.3,182 227,194.7 231,200.6 232.7,201.8 235.4,200.3 237.8,199 237.8,198.6 235.9,191.1 225.7,170.1 210.2,156.4 189.4,156.1 177.2,156 167.5,160 157.3,167.3 157.6,164.1 158,159.7 158.6,153.1 159.2,147 160.7,132.4 159.4,130 158.6,128.4 156.9,127.7 155.2,127.9ZM144.7,206.2C147.9,226.1 149.1,247.8 153.1,265.8 158.7,290.7 165.2,309.1 176.7,329.4 152.4,310.4 145.5,292.2 140.5,265.1 136.6,244.4 138.9,223.9 144.7,206.2Z"/>
</svg>
