<svg width="300" height="400"
	xmlns="http://www.w3.org/2000/svg"
	xmlns:xlink="http://www.w3.org/1999/xlink">
	<path id="筒a" d="M0,-69A69,69 0,0,0 -69,0 69,69 0,0,0 0,69 69,69 0,0,0 69,0 69,69 0,0,0 0,-69ZM20.9,-49.8A54,54 0,0,1 49.8,-20.9 21,21 0,0,0 48,-21 21,21 0,0,0 28.6,-8H8V-28.6A21,21 0,0,0 21,-48 21,21 0,0,0 20.9,-49.8ZM-20.8,-49.6A21,21 0,0,0 -21,-48 21,21 0,0,0 -8,-28.6V-8H-28.6A21,21 0,0,0 -48,-21 21,21 0,0,0 -49.6,-20.8 54,54 0,0,1 -20.8,-49.6ZM-28.6,8H-8V28.6A21,21 0,0,0 -21,48 21,21 0,0,0 -20.8,49.6 54,54 0,0,1 -49.6,20.8 21,21 0,0,0 -48,21 21,21 0,0,0 -28.6,8ZM8,8H28.6A21,21 0,0,0 48,21 21,21 0,0,0 49.6,20.8 54,54 0,0,1 20.8,49.6 21,21 0,0,0 21,48 21,21 0,0,0 8,28.6Z"/>
	<use id="筒b" href="#筒a" transform="scale(0.84)"/>
	<use id="筒c" href="#筒a" transform="scale(0.71)"/>
	<use id="筒d" href="#筒a" transform="scale(0.6)"/>
	<g id="一" transform="translate(150,200)">
		<path fill="#050" d="M0,-117A117,117 0,0,0 -117,0 117,117 0,0,0 0,117 117,117 0,0,0 117,0 117,117 0,0,0 0,-117ZM0,-107A107,107 0,0,1 107,0 107,107 0,0,1 0,107 107,107 0,0,1 -107,0 107,107 0,0,1 0,-107ZM0,-97A97,97 0,0,0 -97,0 97,97 0,0,0 0,97 97,97 0,0,0 97,0 97,97 0,0,0 0,-97ZM0,-88.2 20.1,-71.5 12.3,-47.4A49,49 0,0,0 3,-48.9V-73H-3V-48.8A49,49 0,0,0 -12.2,-47.4L-20.1,-71.5ZM-51.9,-71.4 -25.8,-69.6 -17.9,-45.5A49,49 0,0,0 -26.3,-41.3L-40.5,-60.8 -45.3,-57.3 -31.1,-37.7A49,49 0,0,0 -37.7,-31.1L-58.3,-46ZM51.9,-71.4 58.3,-46 37.8,-31.2A49,49 0,0,0 31.2,-37.8L45.3,-57.3 40.5,-60.8 26.3,-41.3A49,49 0,0,0 18,-45.6L25.8,-69.6ZM0,-46A46,46 0,0,1 46,0 46,46 0,0,1 0,46 46,46 0,0,1 -46,0 46,46 0,0,1 0,-46ZM-61.8,-41.2 -41.3,-26.3A49,49 0,0,0 -45.5,-17.9L-68.5,-25.4 -70.4,-19.7 -47.4,-12.2A49,49 0,0,0 -48.8,-3H-74.2L-83.9,-27.3ZM61.8,-41.2L83.9,-27.3 74.2,-3H48.9A49,49 0,0,0 47.4,-12.3L70.4,-19.7 68.5,-25.4 45.6,-18A49,49 0,0,0 41.3,-26.3ZM-74.2,3H-48.8A49,49 0,0,0 -47.4,12.2L-70.4,19.7 -68.5,25.4 -45.5,17.9A49,49 0,0,0 -41.3,26.3L-61.8,41.2 -83.9,27.3ZM48.8,3H74.2L83.9,27.3 61.8,41.2 41.3,26.3A49,49 0,0,0 45.5,17.9L68.5,25.4 70.4,19.7 47.4,12.2A49,49 0,0,0 48.8,3ZM-37.7,31.1A49,49 0,0,0 -31.1,37.7L-45.3,57.3 -40.5,60.8 -26.3,41.3A49,49 0,0,0 -17.9,45.5L-25.8,69.6 -51.9,71.4 -58.3,46ZM37.7,31.1 58.3,46 51.9,71.4 25.8,69.6 17.9,45.5A49,49 0,0,0 26.3,41.3L40.5,60.8 45.3,57.3 31.1,37.7A49,49 0,0,0 37.7,31.1ZM-12.2,47.4A49,49 0,0,0 -3,48.8V73H3V48.8A49,49 0,0,0 12.2,47.4L20.1,71.5 0,88.2 -20.1,71.5Z"/>
		<use href="#筒a" fill="#b00" transform="scale(0.55)"/>
	</g>
	<g id="二" transform="translate(150,200)">
		<use href="#筒a" fill="#011" y="-91"/>
		<use href="#筒a" fill="#050" y="91"/>
	</g>
	<g id="三" transform="translate(150,200)">
		<use href="#筒b" fill="#011" x="-65" y="-116"/>
		<use href="#筒b" fill="#b00"/>
		<use href="#筒b" fill="#050" x="65" y="116"/>
	</g>
	<g id="四" transform="translate(150,200)">
		<use href="#筒c" fill="#050" x="-54" y="-81"/>
		<use href="#筒c" fill="#011" x="54" y="-81"/>
		<use href="#筒c" fill="#011" x="-54" y="81"/>
		<use href="#筒c" fill="#050" x="54" y="81"/>
	</g>
	<g id="五" transform="translate(150,200)">
		<use href="#筒c" fill="#050" x="-54" y="-89"/>
		<use href="#筒c" fill="#011" x="54" y="-89"/>
		<use href="#筒c" fill="#b00"/>
		<use href="#筒c" fill="#011" x="-54" y="89"/>
		<use href="#筒c" fill="#050" x="54" y="89"/>
	</g>
	<g id="六" transform="translate(150,200)">
		<use href="#筒c" fill="#050" x="-54" y="-115"/>
		<use href="#筒c" fill="#050" x="54" y="-115"/>
		<use href="#筒c" fill="#b00" x="-54" y="15"/>
		<use href="#筒c" fill="#b00" x="54" y="15"/>
		<use href="#筒c" fill="#b00" x="-54" y="115"/>
		<use href="#筒c" fill="#b00" x="54" y="115"/>
	</g>
	<g id="七" transform="translate(150,200)">
		<use href="#筒d" fill="#050" x="-77" y="-134"/>
		<use href="#筒d" fill="#050" y="-88"/>
		<use href="#筒d" fill="#050" x="77" y="-42"/>
		<use href="#筒d" fill="#b00" x="-45" y="45"/>
		<use href="#筒d" fill="#b00" x="45" y="45"/>
		<use href="#筒d" fill="#b00" x="-45" y="135"/>
		<use href="#筒d" fill="#b00" x="45" y="135"/>
	</g>
	<g id="八" transform="translate(150,200)">
		<use href="#筒d" fill="#011" x="-45" y="-135"/>
		<use href="#筒d" fill="#011" x="45" y="-135"/>
		<use href="#筒d" fill="#011" x="-45" y="-45"/>
		<use href="#筒d" fill="#011" x="45" y="-45"/>
		<use href="#筒d" fill="#011" x="-45" y="45"/>
		<use href="#筒d" fill="#011" x="45" y="45"/>
		<use href="#筒d" fill="#011" x="-45" y="135"/>
		<use href="#筒d" fill="#011" x="45" y="135"/>
	</g>
	<g id="九" transform="translate(150,200)">
		<use href="#筒d" fill="#011" x="-87" y="-110"/>
		<use href="#筒d" fill="#011" y="-110"/>
		<use href="#筒d" fill="#011" x="87" y="-110"/>
		<use href="#筒d" fill="#b00" x="-87"/>
		<use href="#筒d" fill="#b00"/>
		<use href="#筒d" fill="#b00" x="87"/>
		<use href="#筒d" fill="#050" x="-87" y="110"/>
		<use href="#筒d" fill="#050" y="110"/>
		<use href="#筒d" fill="#050" x="87" y="110"/>
	</g>
	<g id="甲" transform="scale(0.1)">
		<path fill="#b00" d="m1892,548c-16,-1 -38,13 -64,49 -84,116 -213,217 -361,264 -62,20 -127,51 -177,86 -47,32 -69,42 -105,24l-306,-159c-57,-29 -89,33 -45,69l301,244c51,42 50,43 98,-17 44,-52 96,-96 219,-84 124,11 202,140 191,259 -11,119 -110,218 -236,207 -126,-11 -176,-76 -192,-147 -16,-72 -40,-104 -78,-95 -42,10 -41,75 -55,124 -11,42 -27,87 -41,132 -31,106 -43,226 -57,327 -11,83 -16,163 -4,253 7,58 14,135 -22,168 -25,22 -66,28 -98,50 -87,64 -52,100 32,74 87,-25 166,-85 217,-151 30,-39 52,-94 79,-143 25,-47 41,-105 56,-153 29,-104 38,-216 48,-319l3,-28 79,4 -1,20c-5,52 -8,99 -12,151 -4,36 -10,74 -18,109 -30,123 5,132 42,15 10,-33 20,-67 28,-109 11,-54 15,-100 18,-156l2,-28 81,-7 0,31c0,66 -5,120 -11,185 -5,75 -52,142 -72,203 -13,38 16,47 40,24 62,-60 87,-147 94,-224 8,-76 11,-122 11,-195l1,-41 61,-38 9,27c25,67 20,121 13,182 -5,42 -12,89 -22,117 -27,75 10,98 48,18 21,-47 27,-83 32,-133 9,-72 18,-145 -18,-213l-19,-39 33,-49 43,62c35,49 43,103 47,163 6,81 -3,153 -29,224 -22,61 -56,111 -98,148 -56,47 -126,78 -192,96 -68,17 -139,30 -205,43 -100,21 -121,70 -8,70 72,0 164,-19 227,-41 83,-28 158,-58 222,-110 62,-51 108,-115 131,-186 28,-83 34,-174 23,-256 -8,-64 -27,-133 -58,-185 -18,-31 -44,-61 -78,-90 10,-28 11,-58 13,-90 6,-93 -19,-166 -65,-228 -28,-38 -62,-68 -99,-101 23,-12 55,-33 111,-71 80,-55 151,-138 201,-208 35,-50 59,-121 -6,-127zm-455,614c-56,-5 -105,38 -110,95 -5,58 37,108 93,113 56,5 105,-38 110,-95 5,-58 -37,-108 -93,-113zm-266,329c39,4 69,39 65,79 -3,40 -38,70 -78,66 -39,-4 -69,-39 -65,-79 4,-40 38,-69 78,-66zm-20,221c37,4 64,36 60,73 -4,38 -36,66 -71,62 -37,-3 -64,-35 -61,-73 4,-37 35,-65 72,-62zm-52,225c33,3 58,33 55,67 -2,35 -32,60 -65,58 -34,-3 -58,-33 -56,-68 3,-34 32,-59 66,-57z"/>
		<path fill="#050" d="m2341,1533c-161,-16 -248,126 -295,219 -28,56 -74,130 -112,196 -71,121 -234,234 -349,270 -200,65 -313,118 -399,151 -116,46 -159,77 -197,126 -16,21 -29,40 -60,60l-43,26 -95,-10c-95,-10 -138,-8 -196,35 -42,33 -64,54 -101,127 -23,46 -31,88 -35,112 -8,53 30,57 50,11 11,-27 24,-68 41,-103 21,-41 53,-88 98,-93 34,-5 72,-1 105,6 -23,12 -60,30 -78,48 -45,43 -87,142 -66,167 16,18 23,-35 60,-70 29,-28 56,-47 56,-47l-8,52c-33,199 46,152 71,-24l2,-58 58,-29 28,119c26,109 80,24 80,-86l-5,-87 91,-47 9,68c6,48 6,65 11,109 8,76 28,130 54,140 60,21 73,-72 22,-163 -19,-33 -25,-91 -24,-131l-4,-57 96,-50 2,62c3,130 22,242 64,359 51,141 110,249 227,351 95,84 199,193 327,208 121,13 -5,-88 -26,-105 -79,-63 -163,-119 -230,-187 -90,-92 -150,-192 -196,-296 -49,-112 -101,-259 -99,-374l1,-54 57,-29 24,77c22,74 33,150 54,220 36,122 74,186 115,189 75,7 76,-48 -9,-169 -57,-79 -80,-171 -95,-261l-18,-92 65,-34 23,103c12,55 26,103 41,155 32,113 82,103 68,-8 -8,-59 -28,-122 -39,-171l-26,-112 72,-37 11,45c17,74 10,148 16,218 4,54 51,51 59,9 18,-87 17,-173 6,-255l-9,-59 66,-34 8,60c7,59 6,119 -1,178 -11,102 -38,200 -78,270 -28,50 -40,87 -10,100 32,13 73,-26 98,-77 43,-85 66,-189 75,-275 7,-65 5,-132 -3,-207l-11,-91c82,-43 144,-132 185,-203 43,-73 79,-139 112,-207 45,-91 117,-172 198,-167 54,5 89,36 86,78 -5,54 -38,70 -103,64 -55,-4 -93,12 -99,41 -9,37 18,50 98,59 116,13 188,-39 199,-149 10,-103 -61,-170 -171,-181z"/>
	</g>
	<path id="條a" d="M0,-80A24,24 0,0,0 -24,-56 24,24 0,0,0 -20,-42.77148V-13.22852A24,24 0,0,0 -20.23633,-12.7832 24,24 0,0,0 -21.73438,-9.96289 24,24 0,0,0 -22.29102,-8.76758 24,24 0,0,0 -23.26367,-5.55273 24,24 0,0,0 -23.55664,-4.45703 24,24 0,0,0 -24,0 24,24 0,0,0 -23.55664,4.45703 24,24 0,0,0 -23.26367,5.55273 24,24 0,0,0 -22.29102,8.76758 24,24 0,0,0 -21.73438,9.96289 24,24 0,0,0 -20.23633,12.7832 24,24 0,0,0 -20,13.22852V42.77148A24,24 0,0,0 -24,56 24,24 0,0,0 0,80 24,24 0,0,0 24,56 24,24 0,0,0 20,42.73633V13.22852A24,24 0,0,0 20.23633,12.7832 24,24 0,0,0 21.73438,9.96289 24,24 0,0,0 22.29102,8.76758 24,24 0,0,0 23.26367,5.55273 24,24 0,0,0 23.55664,4.45703 24,24 0,0,0 24,0 24,24 0,0,0 23.54492,-4.625 24,24 0,0,0 23.52932,-4.70120 24,24 0,0,0 22.21096,-9.07815 24,24 0,0,0 22.15436,-9.20511 24,24 0,0,0 20.03912,-13.18948 24,24 0,0,0 20,-13.26367V-42.77148A24,24 0,0,0 24,-56 24,24 0,0,0 0,-80ZM0,-66A10,10 0,0,1 10,-56 10,10 0,0,1 0,-46 10,10 0,0,1 -10,-56 10,10 0,0,1 0,-66ZM0,-38A5,5 0,0,1 5,-33V-32.58984 -23.4668 -23A5,5 0,0,1 0,-18 5,5 0,0,1 -5,-23V-23.41211 -32.58984 -33A5,5 0,0,1 0,-38ZM0,-10A10,10 0,0,1 10,0 10,10 0,0,1 0,10 10,10 0,0,1 -10,0 10,10 0,0,1 -9.66016,-2.58789 10,10 0,0,1 0,-10ZM0,18A5,5 0,0,1 5,23V23.41211 32.5332 33A5,5 0,0,1 0,38 5,5 0,0,1 -5,33V32.58984 23.41211 23A5,5 0,0,1 0,18ZM0,46A10,10 0,0,1 10,56 10,10 0,0,1 0,66 10,10 0,0,1 -10,56 10,10 0,0,1 0,46Z"/>
	<g id="乙" transform="translate(150,200)">
		<use href="#條a" fill="#011" y="-84"/>
		<use href="#條a" fill="#050" y="84"/>
	</g>
	<g id="丙" transform="translate(150,200)">
		<use href="#條a" fill="#011" y="-84"/>
		<use href="#條a" fill="#050" x="-70" y="84"/>
		<use href="#條a" fill="#050" x="70" y="84"/>
	</g>
	<g id="丁" transform="translate(150,200)">
		<use href="#條a" fill="#050" x="-70" y="-84"/>
		<use href="#條a" fill="#011" x="70" y="-84"/>
		<use href="#條a" fill="#011" x="-70" y="84"/>
		<use href="#條a" fill="#050" x="70" y="84"/>
	</g>
	<g id="戊" transform="translate(150,200)">
		<use href="#條a" fill="#050" x="-70" y="-84"/>
		<use href="#條a" fill="#011" x="70" y="-84"/>
		<use href="#條a" fill="#b00"/>
		<use href="#條a" fill="#011" x="-70" y="84"/>
		<use href="#條a" fill="#050" x="70" y="84"/>
	</g>
	<g id="己" transform="translate(150,200)">
		<use href="#條a" fill="#011" x="-80" y="-84"/>
		<use href="#條a" fill="#011" y="-84"/>
		<use href="#條a" fill="#011" x="80" y="-84"/>
		<use href="#條a" fill="#050" x="-80" y="84"/>
		<use href="#條a" fill="#050" y="84"/>
		<use href="#條a" fill="#050" x="80" y="84"/>
	</g>
	<path id="條b" d="M0,-58A22,22 0,0,0 -22,-36 22,22 0,0,0 -18,-23.5V-12.5A22,22 0,0,0 -22,0 22,22 0,0,0 -18,12.5V23.5A22,22 0,0,0 -22,36 22,22 0,0,0 0,58 22,22 0,0,0 22,36 22,22 0,0,0 18,23.45703V12.49805A22,22 0,0,0 22,0 22,22 0,0,0 18,-12.54297V-23.50195A22,22 0,0,0 22,-36 22,22 0,0,0 0,-58ZM0,-43A7,7 0,0,1 7,-36 7,7 0,0,1 0,-29 7,7 0,0,1 -7,-36 7,7 0,0,1 0,-43ZM0,-23A5,5 0,0,1 5,-18 5,5 0,0,1 0,-13 5,5 0,0,1 -5,-18 5,5 0,0,1 0,-23ZM0,-7A7,7 0,0,1 7,0 7,7 0,0,1 0,7 7,7 0,0,1 -7,0 7,7 0,0,1 0,-7ZM0,13A5,5 0,0,1 5,18 5,5 0,0,1 0,23 5,5 0,0,1 -5,18 5,5 0,0,1 0,13ZM0,29A7,7 0,0,1 7,36 7,7 0,0,1 0,43 7,7 0,0,1 -7,36 7,7 0,0,1 0,29Z"/>
	<g id="庚" transform="translate(150,200)">
		<use href="#條b" fill="#b00" y="-123"/>
		<use href="#條b" fill="#050" x="-80"/>
		<use href="#條b" fill="#011"/>
		<use href="#條b" fill="#050" x="80"/>
		<use href="#條b" fill="#050" x="-80" y="123"/>
		<use href="#條b" fill="#011" y="123"/>
		<use href="#條b" fill="#050" x="80" y="123"/>
	</g>
	<use id="條c" href="#條a" transform="rotate(51)"/>
	<use id="條d" href="#條a" transform="rotate(-51)"/>
	<g id="辛" transform="translate(150,200)">
		<use href="#條a" fill="#011" x="-87" y="-84"/>
		<use href="#條c" fill="#011" x="-43.5" y="-63.4"/>
		<use href="#條d" fill="#011" x="43.5" y="-63.4"/>
		<use href="#條a" fill="#011" x="87" y="-84"/>
		<use href="#條a" fill="#050" x="-87" y="84"/>
		<use href="#條d" fill="#050" x="-43.5" y="63.4"/>
		<use href="#條c" fill="#050" x="43.5" y="63.4"/>
		<use href="#條a" fill="#050" x="87" y="84"/>
	</g>
	<g id="壬" transform="translate(150,200)">
		<use href="#條b" fill="#050" x="-80" y="-123"/>
		<use href="#條b" fill="#b00" y="-123"/>
		<use href="#條b" fill="#011" x="80" y="-123"/>
		<use href="#條b" fill="#050" x="-80"/>
		<use href="#條b" fill="#b00"/>
		<use href="#條b" fill="#011" x="80"/>
		<use href="#條b" fill="#050" x="-80" y="123"/>
		<use href="#條b" fill="#b00" y="123"/>
		<use href="#條b" fill="#011" x="80" y="123"/>
	</g>
	<path id="萬a" fill="#b00" d="m1302,2086c-19,0 -36,12 -49,23 -49,43 -76,108 -77,168 -2,43 24,87 38,97 32,24 66,34 104,25 35,-8 72,-33 89,-59 30,-49 61,-131 9,-140 -63,-11 -85,-29 -90,-73 -2,-19 -10,-41 -24,-41zm279,40c20,18 33,66 36,105 2,33 4,69 -36,112l-53,57c0,0 -170,4 -256,6 -63,1 -107,-4 -121,7 -28,21 -34,79 -11,102 68,69 95,46 254,35l1,100c-116,-2 -164,-12 -118,53 27,39 50,35 119,27l1,86c-83,7 -118,-1 -109,37 13,60 44,50 110,43l1,80 -190,14c17,-11 1,-119 -5,-171 -9,-86 -16,-108 -39,-138 -36,-48 -63,-63 -84,-46 -17,15 -16,87 10,299 18,154 9,158 184,144l125,-10 2,99c-24,2 -231,20 -354,28 -19,-131 -18,-201 -99,-201 -90,0 -72,74 -65,212 -50,6 -142,-40 -168,9 -23,43 97,137 121,134l55,-8 9,144c7,98 25,225 135,198 89,-22 49,-60 27,-366l340,-29 2,116 -152,6c-33,1 -66,-10 -81,9 -12,14 22,133 38,152 10,13 27,18 91,9l448,-65 57,64c-3,2 -58,-13 -58,-12 0,31 68,146 116,193 25,24 61,53 95,54 68,1 126,-44 167,-125 42,-82 106,-233 137,-325 39,-112 33,-115 -46,-194 -50,-50 -108,-77 -164,-98 -58,-22 -115,-2 -153,19 -23,13 -62,37 -100,40l-250,17 -1,-100 129,-5c114,-4 130,-8 179,-34 57,-32 102,-87 126,-156 29,-80 7,-142 -48,-193 -30,-29 -79,-30 -124,-28l-267,8 -1,-100h253c68,0 129,14 137,-58 3,-21 -5,-37 -14,-49 -8,-13 -25,-33 -45,-33l-163,-1 123,-113c14,-13 26,-26 21,-52 -15,-71 -89,-130 -180,-137 -44,-4 -125,1 -94,29zm178,588c39,-1 53,22 47,97 -7,104 -22,135 -98,139l-160,9 -1,-85c129,-11 164,-3 178,-53 16,-56 -67,-36 -179,-27l-1,-77zm168,524c87,-2 72,120 61,185 -17,96 -43,159 -72,158h-55c23,-91 33,-170 9,-226 -17,-41 -39,-58 -82,-62 -39,-4 -106,-13 -114,31 -3,15 9,54 13,68l-134,2 -2,-130 372,-26c1,0 3,0 4,0z"/>
	<g id="壹" transform="scale(0.1)">
		<path fill="#011" d="m2032,843c-189,8 -368,58 -528,79 -194,26 -311,26 -535,25 -94,-1 -218,-19 -268,10 -84,49 12,148 61,193 73,67 146,111 272,108 177,-4 345,-49 505,-70 214,-27 423,-35 613,41 119,47 210,-1 172,-95 -54,-134 -147,-297 -292,-291z"/>
		<use href="#萬a"/>
	</g>
	<g id="貳" transform="scale(0.1)">
		<path fill="#011" d="m1715,528c-178,29 -342,85 -503,79 -109,-4 -220,0 -148,132 45,83 160,144 258,133 94,-12 186,-55 270,-74 98,-23 149,-24 267,-5 52,9 92,-27 88,-87 -5,-88 -155,-190 -232,-178zm289,683c-437,0 -813,100 -1107,92 -151,-4 -209,34 -201,100 15,126 179,174 295,168 266,-14 547,-88 792,-95 186,-5 522,114 520,-26 -2,-92 -166,-239 -299,-239z"/>
		<use href="#萬a"/>
	</g>
	<g id="參" transform="scale(0.1)">
		<path fill="#011" d="m1715,479c-178,29 -342,85 -503,79 -109,-4 -220,0 -148,132 45,83 160,144 258,133 94,-12 186,-55 270,-74 98,-23 149,-24 267,-5 52,9 92,-27 88,-87 -5,-88 -155,-190 -232,-178zm-45,396c-116,0 -205,78 -406,80 -113,0 -146,19 -152,75 -11,101 112,159 202,157 151,-4 178,-64 401,-64 150,0 173,-6 172,-70 0,-86 -118,-179 -217,-178zm334,387c-437,0 -813,100 -1107,92 -151,-4 -209,34 -201,100 15,126 179,174 295,168 266,-14 547,-88 792,-95 186,-5 522,114 520,-26 -2,-92 -166,-239 -299,-239z"/>
		<use href="#萬a"/>
	</g>
	<g id="肆" transform="scale(0.1)">
		<path fill="#011" d="m1858,510c-13,-1 -34,11 -47,24 -44,48 -76,55 -312,70 -123,8 -402,21 -485,23 -248,6 -166,47 -123,95 53,60 123,137 176,155 44,16 138,-21 138,-21 32,165 -32,205 -160,375 -16,21 -19,46 6,44 145,-12 297,-139 356,-261 31,-65 31,-122 29,-193l136,-20c-5,64 -75,141 -9,184 89,58 5,107 -65,160 -43,32 -33,49 16,53 88,7 229,-59 321,-141 72,-63 94,-149 -5,-157 -102,-8 -89,-28 -91,-126 0,0 107,-24 170,-14 59,10 118,92 92,204l-45,196c-30,127 -62,171 -125,170 -64,-1 -45,-44 -97,-58 -32,-9 -88,1 -210,18l-558,77 -14,-197c-6,-78 0,-90 29,-129 58,-79 8,-114 -119,-245 -129,-134 -158,-139 -151,-64 22,222 35,466 90,670 24,91 54,167 74,180 21,15 47,8 73,-19 25,-24 45,-30 237,-60l496,-76 85,75c90,80 177,82 224,48 200,-143 236,-336 282,-454 73,-184 125,-173 119,-202 -13,-55 -191,-158 -239,-193 -129,-94 -261,-188 -294,-191z"/>
		<use href="#萬a"/>
	</g>
	<g id="伍" transform="scale(0.1)">
		<path fill="#011" d="m1206,345c-39,0 -53,22 -69,105 -12,58 -32,112 -76,197 -71,137 -123,211 -318,445 -79,95 -143,179 -143,188 0,21 25,18 106,-9 81,-27 173,-77 253,-129l-52,522c-6,63 56,107 107,85 44,-18 69,-60 82,-107l243,-10c67,-2 455,-55 716,-42 207,10 201,13 235,-20 24,-23 30,-37 30,-69 0,-36 -6,-46 -57,-94 -67,-63 -102,-92 -138,-90 -69,3 -97,72 -140,76l-66,7 24,-93c22,-85 45,-151 117,-203 45,-33 49,-52 23,-106 -22,-47 -119,-158 -148,-159 -54,-2 -92,56 -151,66l-123,20 41,-268c49,-11 109,-18 198,-18 166,0 191,-6 190,-70 0,-86 -130,-179 -239,-178 -129,0 -227,78 -449,80 -15,0 -29,0 -41,0 -8,-11 -18,-22 -26,-32 -43,-48 -104,-94 -129,-94zm138,337c37,14 77,21 113,21 10,-1 20,-1 29,-2l-42,265c-63,13 -88,14 -130,22 -82,16 -91,108 -4,151 31,15 70,0 107,-6l-53,325 -253,26 55,-502c44,-57 82,-116 116,-175 23,-41 44,-83 62,-125zm430,402c62,1 38,108 23,164l-45,169 -172,18 52,-327 129,-23c5,-1 9,-1 13,-1z"/>
		<use href="#萬a"/>
	</g>
	<g id="陸" transform="scale(0.1)">
		<path fill="#011" d="m1396,405c-51,1 -59,29 -59,111l-1,258 -203,31c-68,11 -203,4 -252,-1 -119,-12 -176,-45 -165,35 16,112 152,202 270,197 269,-13 548,-107 843,-113 320,-7 340,82 430,-15 60,-65 13,-166 -98,-219 -116,-53 -174,-23 -379,22l-132,30c12,-80 44,-196 17,-268 -12,-30 -182,-70 -271,-68zm253,630c-53,34 -14,135 24,187 112,148 161,174 76,203 -116,40 -76,48 64,128 75,43 195,144 240,142 54,-3 77,-79 76,-167 -4,-188 -127,-336 -324,-472 -45,-31 -109,-52 -156,-21zm-498,59c-34,12 -31,39 -9,107 43,138 -147,288 -260,378 -108,86 -46,117 93,88 50,-10 113,-27 178,-59 132,-66 248,-180 302,-334 13,-38 -10,-72 -95,-126 -65,-40 -147,-75 -209,-54z"/>
		<use href="#萬a"/>
	</g>
	<g id="柒" transform="scale(0.1)">
		<path fill="#011" d="m1319,385c-17,0 -34,3 -50,8 -37,11 -11,75 -11,160 1,150 -9,324 -8,461l-229,55c-79,19 -119,27 -212,27 -155,0 -169,14 -169,86 0,53 56,107 154,148 76,31 153,29 217,3 80,-31 241,-94 241,-94l-2,161c0,59 28,110 56,160 66,122 271,144 369,150 224,11 295,4 348,-23 64,-34 105,-146 73,-249l-50,-158c-22,-70 -53,-103 -69,-6 -12,74 -20,116 -67,149 -40,29 -95,54 -174,56 -175,3 -234,-14 -229,-137l8,-173 246,-68c92,-25 230,-41 316,-25 56,10 87,1 102,-30 28,-62 3,-124 -76,-191 -69,-58 -89,-63 -140,-59 -84,6 -233,93 -309,113 -43,12 -129,36 -129,36l15,-195c8,-111 57,-247 -9,-289 -64,-40 -139,-78 -212,-76z"/>
		<use href="#萬a"/>
	</g>
	<g id="捌" transform="scale(0.1)">
		<path fill="#011" d="m779,1430c165,-139 259,-254 389,-493 64,-119 19,-127 157,-31 143,99 119,60 27,192 -136,197 -262,391 -418,448 -238,86 -348,46 -155,-116zm1200,119c-141,-30 -183,-86 -393,-501 -186,-366 -186,-366 -265,-403 -46,-21 -67,-66 -31,-99 82,-75 234,-20 285,43 85,105 157,236 222,334 77,115 267,348 389,419 184,106 304,174 234,199 -125,43 -283,42 -441,8z"/>
		<use href="#萬a"/>
	</g>
	<g id="玖" transform="scale(0.1)">
		<path fill="#011" d="m1244,367c-54,13 -50,18 -50,224l-1,261c-79,23 -170,41 -256,49 -84,8 -150,39 -164,78 -9,27 -6,32 41,73 72,63 165,131 220,101l112,-60c-28,92 -74,174 -125,250 -74,111 -154,188 -265,283 -159,135 -78,148 82,74 167,-77 278,-176 383,-330 48,-70 85,-149 115,-229l53,-146 252,-121 -125,305c-45,107 -55,224 -16,314 62,144 160,185 430,178 107,-3 217,-4 292,-34 68,-27 109,-81 108,-114 -2,-84 -22,-173 -46,-279 -43,-190 -85,-196 -93,-12 -5,115 -14,146 -50,182 -32,33 -119,43 -215,43 -198,1 -248,10 -238,-130 5,-72 37,-130 63,-183l141,-288c17,-33 43,-68 24,-89 -36,-40 -157,-113 -196,-118 -57,-8 -82,1 -137,50 -35,32 -100,64 -154,84 7,-97 13,-178 71,-259 53,-74 33,-137 -56,-157 -67,-16 -137,-16 -200,0z"/>
		<use href="#萬a"/>
	</g>
	<path id="東" transform="scale(0.1)" fill="#011" d="m1271,654c-80,3 -71,114 -53,175 22,77 39,81 83,127 37,39 97,75 140,100 -89,9 -215,4 -319,-5 -52,-4 -56,0 -59,24 -2,18 13,49 54,108 72,105 96,107 149,91l106,-32 -1,156 -307,56c-46,9 -78,-20 -100,-37 -45,-33 -67,-34 -87,-4 -22,31 -44,185 -39,272 8,129 118,338 199,454 42,60 59,103 104,87 -277,333 -378,423 -644,554 -232,113 -179,184 -56,166 282,-42 505,-246 620,-359 109,-107 268,-374 309,-358l-9,747 -319,-29c-57,-5 -90,14 -50,54 51,51 160,120 244,173 94,60 267,158 292,165 33,8 58,-9 76,-26 29,-29 59,-82 86,-127 25,-42 47,-91 68,-135 13,-27 -8,-38 -28,-40l-190,-18 5,-790c44,-5 57,22 74,55 104,210 218,423 361,610 64,84 201,127 379,96 289,-51 339,-87 140,-178 -106,-49 -270,-157 -363,-227 -147,-110 -268,-236 -373,-383 18,-4 36,-13 47,-42 33,-83 199,-347 305,-460 69,-73 71,-102 2,-197 -97,-133 -165,-198 -213,-199 -59,-1 -107,47 -166,58l-185,34 1,-147c61,-3 126,-3 191,3 79,6 115,-13 135,-54 11,-21 6,-30 -31,-75 -50,-61 -79,-75 -133,-64 -41,9 -70,11 -87,13 -29,-108 -187,-252 -240,-321 -36,-48 -80,-70 -117,-68zm489,824c29,-1 42,8 56,25 43,52 -17,170 -53,262 -45,114 -98,251 -143,253l-71,5 0,-208c102,-18 129,-10 144,-108 15,-101 -77,-57 -142,-49l1,-143 173,-33c14,-3 25,-4 35,-4zm-391,65l0,143c-197,49 -276,29 -189,139 46,57 14,75 188,24l-1,187 -154,30c-73,14 -111,-85 -141,-195 -26,-95 -63,-264 38,-282l257,-46z"/>
	<path id="南" transform="scale(0.1)" fill="#011" d="m1380,793c-26,6 -34,34 -22,96 4,23 15,60 10,104l-53,462 -328,75c-118,27 -126,29 -131,52 -5,25 78,112 140,144 98,50 187,4 285,-23l-42,281 -105,12 -51,-76c-48,-71 -120,-29 -95,33l24,59 -183,23c-63,8 -140,-15 -197,10 -35,15 -56,67 -48,132 31,271 64,546 163,783 49,116 86,179 195,109 59,-38 125,-194 108,-280 -32,-159 -150,-268 -205,-381 -48,-98 -63,-158 -35,-166 90,-25 183,-33 274,-49 35,75 24,89 69,107 -46,-7 -97,-19 -129,-4 -90,42 -28,133 44,138 89,6 139,-10 210,-19l15,95c-152,19 -201,-18 -254,7 -23,11 -24,61 5,89 88,85 117,41 265,17 0,0 18,146 58,201 44,59 129,41 153,28 31,-17 -2,-64 -8,-109 -7,-47 -8,-136 -8,-136 44,-2 96,-9 198,-2 138,9 184,0 169,-29 -87,-167 -244,-117 -373,-95l-1,-94c83,-12 176,-24 257,-23 58,1 53,-15 -12,-78 -55,-54 -99,-20 -161,-7l127,-197c18,-4 179,-37 267,-48 43,-5 79,15 84,54 27,214 -34,446 -68,663 -15,94 -25,117 -71,116 -36,-1 -75,-22 -165,-104 -127,-117 -102,40 -70,119 52,128 212,341 315,336 204,-10 217,-273 289,-577 70,-295 70,-474 109,-557 48,-101 13,-158 -118,-257 -118,-89 -162,-112 -251,-18 -35,37 -48,65 -84,73 -43,9 -128,28 -128,28l23,-38c23,-38 -51,-98 -88,-125 -110,-80 -114,-79 -116,26 -1,65 -16,110 -36,167l-187,25 116,-330c274,-92 237,-87 370,-78 149,10 -112,-235 -174,-219l-107,27 43,-104c20,-49 51,-62 51,-99 1,-57 -27,-108 -99,-186 -68,-74 -175,-170 -210,-182 -7,-3 -16,-2 -23,-1zm161,1318l-67,177 -191,11c43,-44 12,-73 -39,-136z"/>
	<path id="西" transform="scale(0.1)" fill="#011" d="m1842,1026c-73,3 -140,52 -203,70 -179,51 -369,71 -541,90 -86,9 -213,-68 -261,2 -35,52 14,125 44,156 57,61 139,105 217,100 138,-8 269,-66 406,-101l-80,515 -159,28c6,-68 6,-143 -5,-203 -15,-83 -80,-154 -143,-143 -95,17 -107,76 -86,161 18,76 28,141 39,220 -247,69 -172,20 -403,23 -84,1 -74,162 -76,203 -4,80 21,178 63,301 37,107 185,530 292,506 53,-12 78,-78 106,-116 59,36 62,12 369,-50l282,-57 78,142c25,46 68,77 113,79 111,5 163,-84 202,-153 67,-117 121,-239 172,-394 22,-65 43,-118 57,-194 14,-72 64,-123 76,-189 9,-51 -16,-92 -107,-185 -76,-76 -152,-146 -186,-150 -44,-5 -60,56 -166,75l-284,51 75,-491 194,6c99,3 149,-46 136,-130 -7,-42 -50,-88 -122,-126 -29,-16 -65,-47 -98,-46zm162,921c101,-8 50,166 34,224 -7,25 -52,166 -70,221 -34,102 -62,178 -74,187 -31,23 -78,-2 -104,-18 -33,-21 -52,-23 -104,-14 -7,1 -143,29 -304,63l-292,61c46,-96 88,-206 109,-295 24,-105 35,-177 49,-276l146,-30 -15,94c-10,65 -34,146 42,165 43,11 54,22 56,50 3,43 -65,97 -34,129 38,39 122,-15 155,-39 72,-51 196,-128 199,-217 3,-76 -94,-91 -146,-81 -71,13 -39,-66 -35,-89l11,-60 147,-31c75,-16 157,-39 230,-44zm-939,188c-7,74 -14,132 -26,191 -16,79 -28,145 -62,235 -57,-82 -100,-178 -131,-269 -47,-139 49,-123 135,-140z"/>
	<path id="北" transform="scale(0.1)" fill="#011" d="m1587,915c-37,0 -77,25 -121,78 -71,85 -71,91 -9,212 25,49 53,111 55,153l9,167 -185,206 0,-132c0,-83 38,-155 4,-195 -37,-44 -160,-120 -209,-106 -29,8 -11,10 -33,62l-167,391 195,-108 0,324 -232,259c-47,52 -82,-5 -140,-98 -71,-116 -109,-175 -123,216 -5,157 52,312 210,323 53,4 97,-94 121,-136l171,-302 2,192c2,164 9,197 36,227 49,52 105,34 144,-68 22,-58 28,-189 27,-282l-4,-398 184,-295 2,917c0,75 -4,139 4,180 20,105 72,140 193,150 88,8 182,3 92,108 -78,91 -83,118 -4,124 149,10 360,-94 484,-197 77,-64 125,-189 8,-280 -66,-51 -226,-53 -324,-20 -235,80 -255,67 -253,-56l3,-244 409,-364c87,-78 194,-124 86,-313 -40,-70 -149,-213 -181,-228 -40,-18 -55,14 -70,92 -26,130 -49,301 -122,380l-118,127 2,-182c1,-106 8,-217 14,-313 11,-196 14,-204 82,-287 67,-81 -2,-135 -39,-167 -81,-70 -162,-117 -202,-117zm-787,756c-170,1 -49,238 -18,343 29,97 52,141 71,137 8,-1 30,-29 47,-61 33,-62 59,-216 30,-318 -18,-63 -61,-102 -130,-101z"/>
	<path id="中" transform="scale(0.1)" fill="#b00" d="m1382,642c-33,-2 -56,21 -57,98 -1,120 30,222 39,308l36,347 -238,62c-163,42 -192,17 -260,-36 -33,-26 -73,-41 -113,-42 -53,-2 -129,21 -148,77 -13,38 72,109 171,289 99,180 198,377 279,487 21,29 63,27 109,17l215,-47 1,407c1,452 -12,469 18,637 7,40 20,94 61,112 51,21 90,-40 102,-84 12,-42 18,-175 37,-598l24,-517c73,-13 109,-28 157,1 47,28 76,42 105,43 34,1 45,0 94,-68l303,-428c62,-87 116,-139 23,-212l-255,-200c-92,-72 -91,-24 -216,6l-184,44c0,-73 3,-161 25,-241 15,-55 49,-104 83,-154 17,-24 18,-46 1,-74 -39,-64 -235,-145 -318,-193 -34,-20 -67,-37 -93,-39zm499,892c121,8 98,52 59,173l-84,267 -193,19 18,-420c48,-12 140,-43 199,-39zm-472,77 4,403 -172,31 -149,-368z"/>
	<path id="發" transform="scale(0.1)" fill="#050" d="m1600,900c-112,-18 -95,80 -79,122 17,44 0,71 -34,97 -74,59 -96,72 -160,125 -39,-45 -76,-127 -158,-141 -37,-6 -62,13 -119,63 -77,67 -126,90 -204,96 -70,6 -70,6 -84,43 -20,53 12,141 90,142 38,0 83,1 127,-4l-89,170c-96,-22 -187,-49 -256,-19 -28,13 -50,61 -28,89 42,54 123,75 189,105l-299,509c-56,95 1,108 102,29 144,-112 252,-321 366,-482 11,18 31,40 50,44 48,9 78,-12 116,4 23,9 -1,78 -6,107l-98,14c-43,6 -142,28 -148,100 -5,67 61,83 125,85 50,2 66,2 91,3l-53,106c-47,2 -101,8 -138,34 -40,27 -36,116 7,149 55,44 153,-17 222,19 30,16 -4,86 -41,155 -28,52 -80,101 -109,107 -47,10 -104,-16 -132,-35 -28,-19 -65,-18 -94,7 -23,20 -14,42 35,101 59,72 69,153 142,203 44,29 57,21 100,-25 74,-79 149,-203 203,-331 43,-103 74,-209 86,-295 9,-62 -57,-93 -171,-86l105,-104c56,-3 135,19 171,-14 49,-45 65,-88 76,-192l14,-129 78,-2 -12,186c-8,126 51,159 160,159 55,0 111,-22 137,-42 39,-30 46,-43 36,-94 -7,-33 -40,-98 -78,-106 -31,-6 -59,51 -95,51 -23,0 -23,-38 -15,-91 8,-52 12,-91 57,-155 67,80 140,157 228,289 101,151 226,310 437,305 93,-2 301,-45 210,-133 -78,-76 -315,-203 -430,-327l-404,-438c66,-51 82,-47 144,-55 60,-7 110,-66 110,-123 0,-56 -24,-96 -93,-150 -67,-53 -84,-60 -118,-42 -25,14 -47,66 -54,122 -7,52 -72,87 -107,115l-100,-92 145,-132c53,-48 50,-101 6,-138 -37,-31 -102,-69 -159,-78zm-280,405c59,166 249,187 385,371 -84,30 -116,48 -184,13 -86,-45 -117,-18 -175,54 -51,-54 -69,-93 -148,-44 -55,34 -91,21 -158,3zm26,508c35,63 53,130 42,204 -7,49 -23,103 -75,111 31,-79 19,-131 -59,-131 18,-49 53,-112 92,-184zm418,449c-45,1 -126,29 -233,33 -86,3 -124,10 -139,28 -24,31 -23,53 10,87 20,21 94,25 147,31l138,15 -82,100c-43,-18 -99,-46 -155,-47 -41,-1 -94,-2 -104,50 -7,35 86,85 124,113 0,0 -115,74 -173,111 -78,50 -112,67 -69,112 43,45 140,14 196,-3 61,-19 124,-54 178,-92 87,78 152,140 227,213 54,51 82,82 106,78 96,-16 72,-285 -54,-375 -16,-11 -75,-51 -116,-82 32,-33 82,-76 117,-115 55,-62 65,-92 38,-129 -37,-51 -94,-128 -156,-128z"/>
	<path id="白" fill="#011" d="M50,50V60 90 100 200 300 310 340 350H150 250V340 310 300 200 100 90 60 50H150ZM60,60H124V90H60ZM134,60H142V90H134ZM158,60H166V90H158ZM176,60H240V90H176ZM68,68V82H116V68ZM184,68V82H232V68ZM60,100H90V175H60ZM100,100H150 200V200 300H150 100V200ZM210,100H240V175H210ZM68,108V167H82V108ZM218,108V167H232V108ZM60,185H90V192H60ZM210,185H240V192H210ZM60,208H90V215H60ZM210,208H240V215H210ZM60,225H90V300H60ZM210,225H240V300H210ZM68,233V292H82V233ZM218,233V292H232V233ZM60,310H124V340H60ZM134,310H142V340H134ZM158,310H166V340H158ZM176,310H240V340H176ZM68,318V332H116V318ZM184,318V332H232V318Z"/>
	<path id="花1" d="m715,1180h-110v-414q-60,56 -142,83v-100q43,-14 93,-53 50,-39 69,-92h89z"/>
	<path id="花2" d="m905,1058v102h-385q6,-58 38,-109 31,-52 123,-138 74,-69 91,-94 23,-34 23,-67 0,-37 -20,-56 -20,-20 -54,-20 -34,0 -55,21 -20,21 -23,69l-109,-11q10,-91 61,-130 52,-39 129,-39 85,0 133,46 48,46 48,114 0,39 -14,74 -14,35 -44,73 -20,25 -72,73 -52,48 -66,63 -14,16 -22,30z"/>
	<path id="花3" d="m510,1008 106,-13q5,41 27,62 22,21 54,21 34,0 57,-26 23,-26 23,-70 0,-41 -22,-66 -22,-24 -54,-24 -21,0 -50,8l12,-89q45,1 68,-19 23,-21 23,-55 0,-29 -17,-46 -17,-17 -46,-17 -28,0 -48,20 -20,20 -24,57l-101,-17q11,-52 32,-83 21,-31 59,-49 38,-18 86,-18 81,0 130,52 40,42 40,95 0,75 -82,120 49,11 79,47 30,37 30,89 0,75 -55,129 -55,53 -137,53 -78,0 -129,-45 -51,-45 -59,-117z"/>
	<path id="花4" d="m750,1180v-115h-234v-96l248,-364h92v363h71v96h-71v115zm0,-212v-196l-132,196z"/>
	<g id="紅1" transform="scale(0.1)">
		<use href="#花1" fill="#011"/>
		<path fill="#b00" d="m2072,450c-19,0 -36,7 -65,23 -36,21 -33,30 5,62 25,21 38,36 38,65l-53,9c-82,14 -143,-52 -161,-2 -20,57 74,109 164,95l52,-8 -1,81c-162,4 -247,15 -169,80 32,26 109,17 169,9l-1,116c0,0 -56,8 -84,12 -131,18 -172,24 -226,-4 -127,-66 -71,41 -31,78 33,30 61,52 109,34 61,-23 128,-33 180,-40l-94,169c-19,2 -20,-1 -39,-3 -71,-7 -31,63 -13,89 50,70 123,27 193,3l207,-71c13,37 28,72 40,100 50,119 187,11 95,-104 -32,-40 -80,-106 -96,-119 -72,-60 -68,18 -57,67 2,7 3,14 5,21l-203,10 65,-174c117,-9 220,-24 320,-24 52,0 61,3 80,-14 24,-21 24,-62 0,-72 -158,-71 -180,-75 -181,-29 0,43 -13,49 -84,56l-85,8 -1,-121c50,-3 108,-6 146,-18 56,-17 44,-80 -1,-81 -27,-1 -71,10 -146,16l-1,-85 99,-7c84,-6 124,-9 129,-43 10,-62 -84,-57 -126,-52l-103,10c1,-63 41,-59 36,-88 -5,-32 -36,-34 -61,-43 -22,-7 -37,-11 -51,-12z"/>
		<path fill="#b00" d="m1478,1413c-47,2 -92,29 -137,87l-48,61c-18,-8 -55,-24 -97,-42 -44,-19 -88,-32 -130,-41 -37,49 -73,105 -92,160 -23,67 -36,138 -42,209 -48,9 -99,29 -122,67 -31,49 -26,128 -7,178 26,67 69,119 123,157 54,37 90,58 140,81 0,49 8,101 19,143 13,51 29,102 44,153l110,-5c55,-2 106,-6 162,-15 58,-8 98,-32 145,-60 44,33 90,71 134,93 60,31 119,45 183,70l74,-74c32,-33 63,-88 67,-144 3,-42 -9,-89 -27,-115l101,-23c77,-17 127,-58 150,-121 21,-57 25,-116 -1,-166 -28,-55 -64,-80 -111,-114 22,-42 40,-98 51,-140 12,-44 20,-91 30,-136 -77,-33 -164,-60 -238,-65 -77,-5 -142,6 -218,16 0,0 -72,-104 -112,-146 -53,-56 -104,-70 -151,-68zm7,75c43,-2 87,44 109,74 29,39 45,67 76,110 -27,43 -56,85 -87,126 -30,-3 -54,2 -84,11 -16,-38 -36,-85 -58,-116 -26,-36 -50,-56 -80,-90 0,0 25,-42 42,-61 23,-26 51,-53 82,-54zm-386,88c68,23 141,54 191,90 66,47 95,107 130,176 0,0 -40,29 -56,46 -18,18 -48,58 -48,58 -44,-31 -95,-52 -139,-68 -52,-19 -104,-29 -160,-35 0,0 15,-91 28,-135 15,-49 32,-90 54,-132zm836,103c67,2 114,25 178,45 -11,47 -22,101 -40,143 -22,51 -49,107 -88,142 -40,35 -89,44 -165,56 0,0 -50,-97 -73,-132 -31,-49 -84,-101 -84,-101l40,-63c24,-39 32,-54 60,-67 49,-21 116,-23 172,-23zm-378,207c92,6 159,128 185,203 20,55 0,91 -42,114 -96,52 -231,73 -313,-1 -35,-32 -51,-93 -14,-165 36,-71 100,-156 184,-151zm-410,63c54,14 86,32 135,67 -11,23 -17,47 -22,72 0,0 -98,42 -131,69 -40,33 -51,82 -51,82l-79,-47c-42,-24 -93,-75 -115,-126 -45,-102 8,-131 72,-138 61,-6 127,3 191,21zm932,74c34,24 71,52 79,90 8,44 -7,90 -33,120 -51,58 -123,60 -195,76 -39,-35 -77,-69 -116,-103 15,-23 20,-44 19,-72 48,-6 104,-9 144,-28 42,-19 68,-50 102,-83zm-812,159c13,50 44,85 87,107 62,32 124,35 194,34 -9,50 -20,105 -48,144 -30,42 -86,62 -131,71 -61,12 -121,7 -184,6 0,0 -14,-59 -21,-88 -15,-59 -18,-126 -10,-183 7,-61 53,-69 113,-91zm487,74c38,36 80,75 112,109 35,38 67,84 54,133 -13,53 -45,80 -81,119 -43,-17 -94,-29 -131,-51 -44,-27 -79,-53 -122,-83 22,-56 34,-116 44,-176 44,-12 84,-30 124,-51z"/>
		<path fill="#050" d="m671,2319c-33,21 -47,58 -52,95 -4,32 -6,103 -4,157l4,76c-17,12 -37,27 -55,34 -28,10 -55,8 -82,12 5,41 29,80 54,104 30,30 68,52 93,63 77,33 243,64 320,59 34,-2 58,-10 90,-17l40,25 -99,96c0,0 -46,-23 -71,-28 -55,-11 -150,-13 -230,0 -71,12 -137,38 -173,74 25,35 54,67 87,95 0,13 -13,28 -51,71 -76,84 -133,162 -140,189 -7,30 4,55 35,67 41,16 144,14 215,1 56,-11 78,-24 128,-53 27,52 54,92 90,136 41,-43 82,-94 110,-140 37,-61 58,-120 69,-185 11,-65 -6,-105 -24,-162l126,-116 80,50c34,22 -5,54 -18,65 -83,67 -93,85 -93,168 0,49 56,147 104,188 51,43 120,100 161,123 24,13 47,-3 56,-26 28,-67 52,-125 79,-188l56,20c100,36 62,-22 42,-65 -26,-59 -45,-106 -88,-143l-49,-44 48,-52c62,56 131,110 188,151 96,67 196,129 295,179 105,53 230,89 331,105l107,-319c0,0 -136,-31 -201,-54 -65,-23 -190,-82 -190,-82 0,0 183,-41 272,-66 97,-26 288,-88 288,-88l-174,-163c0,0 68,-79 101,-121 30,-38 84,-119 84,-119 -93,4 -189,10 -273,20 -87,11 -171,33 -205,51 -39,21 -105,74 -127,115 -54,97 -94,180 -134,275l-386,-284 -94,45c-40,18 -124,56 -148,78 -22,20 -28,55 -15,66l26,24 -42,49 -115,-87c-22,-17 -26,-35 -34,-67 -25,-97 -87,-168 -213,-267 -43,-35 -85,-63 -121,-97 -34,-31 -53,-57 -78,-93zm34,178 49,33c24,16 71,46 111,77 42,31 84,66 110,105 22,35 33,72 48,113 -41,7 -87,17 -125,18 -65,1 -130,-11 -182,-34 -39,-16 -81,-45 -108,-72l102,-60zm1783,81 -139,160 120,114c0,0 -153,46 -236,64 -86,19 -257,56 -257,56 38,-84 69,-167 113,-241 46,-75 114,-106 193,-120 71,-12 141,-21 206,-33zm-1008,178 77,59c112,85 233,163 351,236 87,54 174,101 261,139l150,64 -50,115c-83,-34 -176,-70 -252,-102 -91,-38 -179,-78 -266,-127 -57,-32 -168,-116 -224,-167 -57,-51 -104,-95 -159,-149zm-718,315c54,2 110,11 148,35 48,30 46,108 29,157 -16,47 -44,94 -66,129 -24,-36 -44,-73 -60,-105 -38,37 -60,57 -116,78 -39,15 -64,20 -86,20 -67,3 -89,5 -43,-55 55,-71 144,-162 144,-162l-78,-73c42,-11 85,-25 128,-24zm630,75c30,9 68,23 86,49 9,12 13,29 4,48l-56,112c-20,40 -30,51 -41,44 -43,-29 -153,-96 -154,-169 -1,-35 19,-63 51,-77 36,-16 75,-18 110,-7z"/>
	</g>
	<g id="紅2" transform="scale(0.1)">
		<use href="#花2" fill="#011"/>
		<path fill="#b00" d="m2335,450c-175,7 -338,81 -490,81 -102,0 -111,12 -59,83 34,46 50,44 109,30 137,-33 262,-86 394,-79 67,3 116,10 125,-30 12,-57 -43,-86 -79,-85zm-205,226c-73,25 -125,61 -206,66 -102,6 -120,14 -58,85 25,28 31,44 100,21l80,-27c-112,167 -241,180 -374,269 -30,20 -1,46 30,39 87,-20 177,-53 263,-95 27,25 50,51 73,75 -103,95 -228,147 -317,214 -27,20 -1,45 26,37 121,-31 243,-100 348,-190 70,56 147,154 237,164 142,15 256,5 138,-57 -112,-59 -194,-107 -300,-178 32,-33 61,-69 87,-105 46,-65 58,-51 29,-104 -20,-37 -33,-52 -71,-42l-84,22 82,-69c44,-37 43,-65 27,-95 -23,-45 -71,-42 -111,-28zm21,282c-16,31 -34,59 -53,84 -17,-14 -36,-29 -55,-45 36,-9 70,-29 108,-39z"/>
		<path fill="#b00" d="m1826,1612c-91,16 -191,43 -264,88l-16,-50c-66,68 -141,135 -202,201 -64,68 -112,137 -139,220 -137,-85 -292,-85 -441,-83 29,153 86,303 159,429 114,197 290,250 483,208 0,0 54,49 76,78 128,162 331,191 516,105 106,-50 223,-85 327,-101 -82,-214 -163,-281 -337,-392 10,-42 26,-84 27,-126 5,-112 -12,-226 -9,-332l-50,23c-29,-108 -60,-184 -130,-268zm-36,84c46,66 75,141 94,210 -42,20 -110,49 -132,55 -7,-36 -11,-70 -24,-102 -34,7 -64,19 -91,37 -23,-37 -38,-72 -49,-120 67,-41 128,-63 202,-80zm-271,115c11,49 27,95 54,137 -65,65 -120,126 -163,198 -18,31 -33,63 -48,95 -31,72 -53,167 -21,242 -91,-112 -96,-272 -54,-395 43,-127 129,-206 232,-277zm162,146c11,107 3,206 -29,300 -7,21 -15,41 -24,61 -50,106 -126,202 -183,169 -71,-42 -27,-171 -8,-222 10,-31 24,-61 41,-89 50,-86 125,-172 203,-219zm224,14c24,90 32,188 12,276 -23,107 -83,201 -163,267 -59,47 -137,66 -218,45 76,-40 129,-121 168,-209 9,-22 17,-44 25,-66 28,-84 33,-173 31,-257 27,-11 93,-38 145,-56zm-1028,100c111,0 218,33 309,83 -23,140 -1,292 100,386 -79,5 -143,-21 -195,-64 -63,-52 -108,-128 -140,-201 -30,-66 -51,-135 -74,-204zm1077,324c113,58 189,139 248,246 -93,10 -174,60 -261,90 -175,61 -268,42 -390,-89 244,11 298,-68 403,-247z"/>
		<path fill="#050" d="m636,2620c-24,0 -16,18 44,98 88,117 170,247 225,362 44,91 98,186 148,263 39,59 78,109 121,159 28,32 57,58 65,58 18,0 51,-29 51,-45 0,-7 -26,-43 -58,-81 -115,-137 -167,-233 -203,-373 -21,-83 -26,-214 -9,-271 23,-79 0,-82 -57,-5 -25,34 -38,75 -55,114 -22,-32 -49,-70 -67,-99 -57,-94 -155,-180 -205,-180zm526,159c-20,-2 -36,16 -32,51 20,170 84,316 148,459 30,68 72,127 115,186 12,17 26,29 39,23 42,-18 13,-80 -6,-115 -98,-177 -168,-358 -211,-545 -8,-39 -34,-58 -53,-59zm260,62c-16,2 -34,-2 -27,64 8,81 24,151 37,209 24,101 149,390 190,406 48,18 48,-21 0,-137 -62,-151 -128,-333 -138,-435 -7,-76 -29,-112 -62,-107zm863,145c-99,1 -190,63 -252,120 -33,31 -100,94 -100,94l-74,-78c-58,-62 -149,-102 -184,-102 -25,0 -59,30 -42,37 34,12 110,66 131,98 45,71 77,173 51,237 -19,47 -17,48 -2,82 34,76 62,-6 80,-37 115,-200 282,-335 382,-345 84,-8 198,26 229,83 36,68 69,45 40,-26 -44,-107 -154,-165 -259,-163z"/>
	</g>
	<g id="紅3" transform="scale(0.1)">
		<use href="#花3" fill="#011"/>
		<path fill="#b00" d="m2153,497c9,57 13,116 15,173 2,76 3,148 -10,215 -19,98 -59,189 -124,281 -76,107 -12,71 41,23 70,-63 123,-151 150,-234 33,45 75,92 72,133 -1,14 -10,18 -27,23 31,50 102,159 170,147 89,-15 59,-140 22,-187 -29,-37 -77,-80 -130,-115 -16,-11 -65,-49 -89,-68 5,-19 11,-57 14,-76 69,34 138,12 164,-60 16,-43 27,-91 2,-131 -24,-40 -64,-34 -73,4 -13,51 -29,85 -85,82 2,-37 4,-73 5,-109 3,-104 -8,-135 -66,-166 -46,-24 -55,37 -51,65zm-314,-23c-2,102 -68,151 -133,210 49,0 89,-13 126,-24l1,97c-30,11 -59,21 -91,27 -74,13 -115,41 -100,69 24,44 65,58 148,28 15,-6 46,-17 46,-17 -10,91 -83,160 -162,200 -64,32 -183,80 -42,73 79,-4 165,-52 213,-99 1,44 -2,79 2,123 14,163 79,115 79,-62v-160c22,14 52,18 77,12 -5,11 -3,31 5,39 17,19 31,22 50,8 36,-26 41,-86 50,-130 11,-57 -18,-80 -54,-104 8,-27 -6,-51 -58,-48 -28,2 -54,7 -78,14l-3,-95c68,-29 152,-71 98,-112 -36,-27 -173,-98 -174,-49zm189,329 -5,74c-28,-19 -73,-28 -101,-35 39,-8 79,-12 106,-39z"/>
		<path fill="#b00" d="m1873,1992c-43,25 -109,89 -139,132 -80,-46 -170,-84 -233,-118 -65,20 -139,40 -190,77 -50,36 -135,151 -68,201 28,21 58,8 87,0 -27,43 -34,94 -36,139 -4,103 40,190 102,259 47,51 103,93 159,113 60,22 132,22 185,-3 87,-39 139,-101 175,-178 134,34 271,45 368,-34 78,-64 95,-188 83,-286 -15,-136 -120,-278 -243,-321 -83,-29 -180,-22 -250,19zm229,83c88,41 155,144 162,247 7,108 -32,191 -104,221 -47,20 -168,6 -219,-18 12,-60 8,-123 -7,-177 -19,-67 -60,-124 -107,-161 35,-46 67,-87 110,-108 57,-28 114,-27 165,-4zm-705,31c9,-1 19,1 29,5 47,20 28,86 -32,111 -43,18 -65,19 -81,3 -19,-19 -12,-41 16,-70 20,-22 42,-46 68,-49zm397,127c65,62 96,131 94,219 -2,60 -16,123 -49,168 -45,61 -121,98 -204,96 -92,-2 -162,-37 -210,-89 -45,-50 -70,-118 -74,-194 -3,-69 25,-126 66,-174 48,-54 115,-90 183,-94 69,-5 150,25 194,68zm-195,44c-31,0 -46,18 -35,45 4,11 12,14 28,9 55,-16 60,-54 7,-54zm114,41c-11,1 -20,12 -22,22 -3,13 1,17 15,15 10,-2 21,-12 21,-22 1,-14 -5,-15 -14,-15zm-229,12c-4,2 -3,13 0,21 7,20 41,20 36,0 -5,-18 -21,-29 -36,-21zm292,50c-3,0 -6,1 -11,2 -33,10 -41,22 -26,39 24,29 66,11 55,-24 -4,-12 -9,-17 -18,-17zm-322,32c-2,0 -4,5 -7,16 -3,13 -6,31 -6,41 0,18 24,24 34,9 3,-5 -1,-24 -8,-41 -7,-17 -10,-25 -13,-25zm144,26c-12,1 -25,14 -29,26 -10,26 -9,26 25,11 15,-6 21,-15 22,-23 1,-7 0,-15 -18,-14zm156,49c-18,0 -28,17 -21,35 7,19 20,19 35,0 14,-17 6,-35 -14,-35zm-93,80c-18,0 -32,18 -26,33 7,17 22,21 48,10 29,-11 12,-44 -22,-43zm-148,2c-3,0 -6,1 -9,2 -13,5 -14,9 -4,21 14,16 50,20 50,6 0,-14 -21,-28 -37,-29z"/>
		<path fill="#050" d="m1262,1170c-68,65 -134,133 -190,206 -50,65 -93,133 -121,207 -22,58 -32,119 -20,181 -44,-47 -94,-95 -148,-134 -77,-54 -160,-95 -229,-138 -2,86 -5,166 8,245 14,83 33,168 77,234 38,59 87,116 145,159 39,29 81,47 120,66 27,13 94,60 119,78 -11,121 -11,225 22,308 36,91 88,151 151,207 46,41 105,76 146,129 51,66 106,131 170,180 -19,8 -36,16 -53,26 -116,-97 -252,-200 -385,-260 -159,-71 -332,-126 -454,-159 42,118 140,218 225,292 55,48 123,86 192,135 -112,24 -208,77 -283,146 -71,66 -127,128 -167,216 98,14 215,10 322,-15 99,-23 191,-64 249,-129 32,-36 56,-92 73,-165 23,1 46,-3 69,-18l61,40c-58,66 -106,138 -151,207 -33,53 -61,106 -73,158 66,7 129,2 188,-16 64,-20 125,-53 180,-91 57,-40 104,-83 136,-136 25,-42 40,-91 58,-138 89,58 188,85 276,125 99,45 195,93 280,156 20,14 37,26 57,40 25,-43 48,-88 65,-125 44,-101 51,-125 46,-156 -9,-48 -69,-86 -200,-126 -166,-50 -291,-97 -442,-165 -181,-82 -262,-115 -413,-160 -131,-40 -202,-99 -247,-221 -36,-97 -34,-210 5,-330 43,-130 76,-171 122,-204 79,-57 151,-132 185,-220 40,-105 63,-130 127,-128 36,1 73,8 105,24 82,42 149,56 241,75 71,63 153,114 238,151 89,38 191,46 283,48 92,2 86,-5 41,-89 -51,-95 -132,-151 -215,-204 70,-38 308,-274 121,-264 -53,4 -99,11 -141,26 -68,24 -126,65 -191,120 -47,41 -87,89 -129,137l-64,-17c-56,-14 -119,-22 -166,-54 -34,-24 -41,-25 -133,-20 -98,6 -158,21 -161,52 -5,70 -16,133 -52,177 -33,41 -82,103 -121,121 -41,19 -68,62 -86,87 -16,20 -30,41 -43,62 -33,-15 -63,-33 -81,-60 22,-41 29,-93 78,-146 71,-76 128,-157 165,-245 39,-92 47,-181 44,-267 -3,-74 -16,-147 -31,-221zm-47,196c15,4 23,28 23,72 0,78 -23,153 -49,221 -31,81 -101,148 -163,187 -34,-87 -33,-177 -3,-256 26,-68 74,-131 121,-180 32,-34 55,-49 71,-44zm1046,148c11,0 19,1 23,5 15,18 -30,69 -68,95 -38,26 -94,60 -113,32 -19,-27 10,-67 51,-93 23,-15 76,-36 107,-39zm-1563,172c19,0 47,16 82,50 100,95 190,275 172,345 -5,21 -12,26 -39,25 -74,-1 -175,-117 -220,-252 -36,-108 -32,-167 5,-168zm1433,60c28,0 65,12 94,24 46,19 88,67 76,89 -12,23 -74,9 -123,-14 -49,-23 -100,-54 -84,-84 6,-11 20,-15 37,-15zm-670,1146c10,-1 24,3 44,8 94,25 165,66 243,104 133,67 268,136 421,187 148,49 179,78 148,136 -16,30 -53,17 -153,-32 -122,-59 -239,-91 -339,-135 -123,-53 -226,-110 -320,-154 -61,-29 -60,-30 -62,-70 -2,-32 2,-43 18,-44zm-492,24c100,13 201,55 265,133 34,41 -2,71 -37,62 -90,-25 -207,-69 -254,-153 -16,-29 4,-45 26,-42zm623,234c31,0 47,24 28,56 -60,100 -149,210 -260,245 -82,26 -79,-17 -51,-66 58,-102 146,-181 247,-227 13,-6 25,-9 36,-8zm-489,37c45,-2 60,32 40,62 -68,98 -183,149 -295,167 -77,13 -90,-4 -45,-71 65,-96 185,-154 300,-158z"/>
	</g>
	<g id="紅4" transform="scale(0.1)">
		<use href="#花4" fill="#011"/>
		<path fill="#b00" d="m1917,484c-10,168 -86,224 -152,309 55,-7 91,-24 133,-59 24,39 51,73 83,104 -76,80 -156,154 -254,219 -140,94 -41,88 104,9 86,-47 150,-101 216,-166 86,84 183,177 285,222 56,24 96,24 165,-6 65,-28 53,-38 -13,-67 -137,-60 -268,-111 -375,-203 31,-26 73,-65 104,-109 66,-95 76,-214 -50,-210 -46,2 -89,10 -136,17 4,-25 -4,-59 -21,-76 -29,-29 -86,-20 -88,17zm185,214c-37,50 -54,71 -62,78 -35,-34 -64,-71 -89,-109 8,-10 15,-21 22,-31l83,-17c102,-21 85,26 46,79zm-66,323c-5,10 -6,24 -4,40 7,55 -7,70 -18,68 -20,-2 -12,29 -4,64 13,55 14,75 -7,91 -11,9 -22,13 -35,12 28,46 57,87 108,100 104,25 115,-103 59,-154 -52,-47 -54,-60 -31,-88 29,-36 16,-102 -28,-141 -17,-15 -31,-15 -41,8z"/>
		<path fill="#b00" d="m1684,1321c-46,-1 -106,20 -131,53 -40,55 -46,110 -27,162 -41,-18 -77,-23 -109,-13 -36,12 -68,42 -87,77 -33,64 -23,108 7,143 28,32 79,52 132,53 -9,15 -17,32 -22,49 -20,61 6,127 55,155 50,29 100,23 149,-1 29,-14 43,-41 60,-71 30,29 73,46 116,43 48,-4 95,-32 120,-66 20,-29 27,-69 14,-117 -4,-14 -11,-28 -19,-41 21,-16 40,-33 56,-53 33,-40 36,-108 17,-155 -22,-54 -72,-79 -126,-77 -31,1 -49,6 -74,17 -2,-47 -8,-85 -40,-118 -24,-25 -56,-39 -91,-40zm-19,68c47,0 83,38 82,85 -2,47 -41,85 -88,85 -47,0 -84,-38 -82,-85 1,-47 41,-85 88,-85zm219,137c44,0 78,36 77,80 -1,44 -38,80 -83,80 -44,0 -79,-36 -77,-80 1,-44 38,-80 83,-80zm-415,44c47,0 84,38 82,85 -2,47 -41,85 -88,85 -47,0 -84,-38 -82,-85 1,-47 41,-85 88,-85zm205,43c33,0 59,27 58,60 -1,33 -28,60 -62,60 -33,0 -59,-27 -58,-60 1,-33 29,-60 62,-60zm137,134c47,0 84,38 82,84 -1,47 -41,85 -88,85 -47,0 -83,-38 -82,-85 2,-46 41,-84 88,-84zm-219,45c47,0 84,38 82,85 -1,47 -41,85 -88,85 -47,0 -83,-38 -82,-85 2,-47 41,-85 88,-85z"/>
		<path fill="#050" d="m502,1608c23,70 58,135 77,215 23,94 45,195 76,278 27,71 63,145 124,234 99,148 180,247 330,333 -108,30 -220,63 -322,91 -128,35 -242,67 -377,99 139,92 255,168 443,146 120,-14 233,-38 336,-66 -50,92 -99,169 -153,247 -81,118 -152,248 -214,365 200,-58 332,-139 474,-260 129,-110 236,-243 325,-373 68,-2 142,17 197,40 109,46 162,84 161,115 -1,23 -16,28 -69,14 -59,-7 -167,-51 -220,-69 -13,29 -20,86 -14,136 9,78 46,165 85,204 81,79 209,94 303,93 99,-1 159,11 222,21 63,9 108,14 159,16 -7,-44 -14,-93 -19,-133 -7,-57 -15,-154 13,-242 31,-101 38,-188 20,-259 -21,-86 -87,-149 -154,-188 -73,-43 -153,-48 -241,-48 9,-85 24,-175 49,-247 22,-61 51,-116 86,-168 49,-74 109,-141 178,-206 83,-80 151,-163 190,-255 51,-120 47,-120 -40,-67 -57,34 -116,74 -177,106 -90,48 -183,87 -254,142 -75,57 -138,127 -184,197 -75,115 -129,221 -164,324 6,-112 10,-219 10,-314 0,-26 -1,-46 -3,-52 -7,-29 -28,-36 -49,-16 -10,9 -13,24 -16,71 -7,104 -14,219 -17,314 -44,-65 -93,-130 -145,-192 -85,-100 -175,-193 -259,-265 -48,-41 -135,-116 -205,-129 4,149 67,294 100,427 -77,-105 -130,-170 -186,-262 -63,-103 -150,-212 -231,-283 -41,-36 -162,-111 -245,-134zm155,171c60,45 98,104 139,164 70,101 132,211 210,313 69,91 157,169 241,242 44,37 81,68 123,112l-155,37c-144,-77 -275,-201 -352,-337 -65,-114 -115,-242 -160,-355 -24,-59 -35,-121 -46,-176zm1773,32c-43,60 -90,120 -142,164 -108,89 -180,195 -237,318 -47,102 -61,169 -75,274 -15,117 -11,244 0,339 -132,-61 -161,-157 -157,-288 3,-92 22,-183 56,-268 42,-103 107,-199 172,-283 47,-61 102,-100 163,-137 71,-43 148,-78 220,-119zm-1228,223c60,33 130,100 166,135 69,68 153,158 205,224 26,34 84,122 96,145l1,65c-101,9 -179,-67 -242,-136 -56,-62 -115,-150 -149,-230 -25,-58 -51,-141 -77,-203zm480,680c13,65 35,104 67,145 -163,-22 -340,-47 -494,-17 -189,36 -407,130 -593,38 204,-54 409,-123 597,-166 144,-33 288,-34 423,0zm479,-6c34,1 68,7 98,23 68,36 131,101 136,160 6,70 -16,125 -30,177 -31,114 -60,224 -38,337 -49,-17 -102,-33 -155,-36 -70,-4 -142,9 -198,0 -48,-8 -90,-31 -138,-71 -49,-40 -82,-113 -68,-145 10,-25 32,-23 78,6 15,10 49,16 94,16 88,2 134,-21 157,-76 14,-35 16,-44 -13,-130 -29,-87 -32,-171 -26,-257 33,-3 68,-6 103,-4zm-760,203c34,0 67,1 101,2 -50,75 -104,163 -171,234 -95,102 -208,180 -310,227 51,-87 105,-162 153,-241 43,-71 81,-146 121,-217 37,-3 72,-5 106,-5z"/>
	</g>
	<g id="黑1" transform="scale(0.1)">
		<path fill="#011" d="m857,489c-8,54 -19,97 -41,140 -38,18 -60,28 -136,44 2,-34 7,-68 27,-97 17,-25 12,-63 -3,-82 -17,-23 -39,-30 -63,-28 -51,4 -118,40 -117,78 1,25 5,47 29,53 39,10 31,-2 21,92 -37,5 -71,10 -96,1 -31,-12 -62,4 -59,37 3,27 21,84 49,87 39,4 59,-2 101,-12 0,65 -60,100 -88,122 -89,70 -112,86 -99,107 20,30 36,42 73,22 35,-20 69,-45 102,-68 -3,50 1,103 -11,148 -4,17 -19,31 -52,33 -32,2 -62,-5 -95,-9 38,57 75,108 111,161 63,92 134,-12 136,-73 4,-108 7,-198 13,-298 27,36 53,57 85,57 -26,60 -41,119 -15,174 15,31 20,34 47,28 37,-8 148,-17 213,-20 17,-1 56,-3 86,-4 -7,43 -24,72 -66,77 -81,10 -188,-89 -93,45 72,102 76,121 158,63 91,-65 78,-56 108,-173l61,6c78,8 82,-83 3,-88l-44,-3 21,-99 57,14c142,34 64,-130 -2,-128l-30,1c11,-47 25,-103 -10,-139 -50,-53 -128,-21 -195,-21 -223,1 -179,-23 -258,190 -38,-36 -84,-71 -116,-100l3,-57 79,-27 -36,44c28,-17 105,-43 161,-95 28,-5 74,-14 119,-17 257,-13 312,-42 234,-120 -23,-22 -42,-37 -64,-32 -64,12 -124,41 -189,53 52,-62 34,-95 -43,-121 -43,-14 -70,-1 -75,34zm307,323 -23,98 -92,9 24,-97zm-161,18 -33,96 -97,9 40,-93zm117,172 -24,103 -93,-1 24,-99zm-178,6 -33,96 -89,-1c-2,-32 15,-62 25,-91z"/>
		<use href="#花1" fill="#b00" x="1600"/>
		<path fill="#b00" d="m1182,1773c-38,2 -74,16 -95,47 -41,61 -98,119 -154,159 -69,49 -79,87 -46,182 16,45 17,61 7,139 -10,82 -9,92 9,122 11,17 46,49 78,70 31,21 69,56 84,78 37,57 79,79 148,79 53,0 60,3 81,31 13,18 35,38 49,45 34,19 48,18 116,-5 33,-11 80,-20 105,-20 45,0 49,-4 111,-71 48,-52 71,-70 91,-70 14,0 37,-11 50,-24 20,-20 24,-35 23,-79 -1,-36 7,-74 23,-111 31,-74 29,-112 -7,-167 -19,-29 -32,-66 -37,-103 -16,-113 -43,-165 -142,-196 -30,-9 -60,-18 -78,-42 -36,-49 -119,-63 -203,-33 -46,17 -43,18 -103,-11 -30,-14 -71,-23 -110,-20zm37,99c23,-2 46,5 72,17 49,21 51,21 168,2 33,-5 46,0 106,39 38,25 84,51 102,58 43,17 56,49 49,122 -5,54 -3,60 27,95 35,42 42,87 20,132 -8,15 -16,47 -20,72 -9,55 -30,80 -59,84 -27,3 -51,21 -72,53 -35,57 -80,73 -141,77 -77,4 -104,16 -131,-28 -26,-41 -43,-51 -120,-43 -58,5 -59,-6 -87,-53 -17,-30 -48,-64 -67,-78 -88,-66 -93,-62 -59,-159 14,-37 24,-72 10,-100 -30,-61 -24,-85 39,-146 31,-30 74,-75 96,-102 22,-27 44,-39 67,-42zm155,236c-83,0 -151,67 -151,150 0,84 68,151 151,151 83,0 150,-67 150,-151 0,-83 -67,-150 -150,-150z"/>
		<path fill="#050" d="m2249,1987c-70,1 -28,75 -8,123 16,41 41,128 52,178 -35,35 -66,72 -76,112 -23,97 11,202 49,277 -55,-37 -116,-84 -182,-79 -78,7 -110,78 -130,141 -22,72 -32,161 4,198 74,78 113,54 229,35l-13,96c-46,8 -90,17 -131,17 -120,-1 -155,-27 -257,-75 -153,65 -288,96 -423,94 -64,-1 -127,-11 -192,-23 0,-32 -3,-81 -4,-95 -4,-38 -17,-61 -48,-62 -25,-1 -46,33 -52,79 0,7 0,34 0,57 -34,-8 -67,-18 -98,-28 20,-47 32,-100 32,-148 -1,-59 -22,-105 -84,-139 -49,-27 -106,2 -143,30 -50,39 -72,89 -105,148 -42,-23 -72,30 -77,58 -8,35 15,44 73,67 29,11 85,27 114,37 -48,75 -103,153 -171,157 -55,3 -71,24 -67,58 4,27 19,43 36,48 30,10 63,8 94,-3 7,32 14,67 20,78 31,58 81,115 135,129 44,12 92,-7 127,-59 47,-71 33,-215 -27,-287 -6,-7 -31,-32 -48,-50l14,-31c62,18 124,34 185,47 53,11 106,20 158,27 -21,48 -41,104 -41,153 1,88 81,174 164,169 92,-6 133,-98 142,-177 6,-47 -5,-93 -12,-137 41,-2 84,-6 129,-11 62,92 214,169 308,154 122,-19 242,44 314,129 71,86 77,90 149,73 91,-21 50,-38 -50,-154 -43,-49 -93,-80 -145,-111 -53,-31 -98,-56 -147,-69 43,-1 84,-5 116,-12 145,-28 159,-23 219,79 32,56 94,133 132,179 32,38 61,36 102,27 28,-5 54,-18 55,-48 0,-8 -32,-48 -72,-90 -63,-67 -91,-119 -149,-233 -21,-41 -43,-60 -76,-66 -28,-4 -56,-4 -83,-3 8,-87 24,-219 40,-284 25,19 51,39 76,53 53,31 97,49 116,49 32,0 81,-42 105,-91 53,-108 -22,-450 -125,-515 -39,-24 -75,-32 -109,-28 -13,-44 -29,-99 -34,-123 -17,-80 -15,-116 -94,-124 -6,-1 -11,-1 -16,-1zm149,368c44,1 86,52 104,103 21,58 63,273 -10,280 -44,4 -94,-54 -127,-106 -47,-76 -69,-173 -45,-217 23,-45 51,-61 78,-60zm-294,364c44,8 70,27 116,46l-13,81c-42,16 -125,48 -150,18 -11,-12 -11,-24 -1,-62 14,-58 26,-87 48,-83zm-1217,167c1,38 -18,75 -40,102 -18,-8 -46,-20 -64,-27 13,-24 29,-56 45,-83 23,-40 57,-33 59,8zm878,249c58,35 120,52 183,75 -26,4 -69,17 -109,17 -58,0 -87,-30 -118,-71 14,-8 29,-15 44,-21zm-411,77 30,1c8,46 19,82 14,124 -4,40 -15,68 -51,69 -33,1 -48,-31 -40,-76 8,-44 30,-84 47,-118zm-540,33c33,32 66,80 61,124 -3,24 -23,47 -50,42 -54,-11 -59,-71 -68,-114 21,-16 40,-33 57,-52z"/>
	</g>
	<g id="黑2" transform="scale(0.1)">
		<path fill="#011" d="m1024,480c-43,-3 -68,35 -51,107 14,56 12,73 -26,113 -60,62 -8,61 44,48 20,-5 45,-16 74,-29 102,-48 115,-128 53,-187 -35,-34 -69,-50 -94,-51zm-430,138c5,72 39,151 89,166 76,23 150,-38 191,-112 39,-71 -10,-65 -59,-57 -70,11 -97,14 -121,-19 -43,-58 -107,-73 -100,22zm621,130c-114,13 -209,61 -312,85 -102,24 -210,30 -361,11 -39,-5 -45,-3 -42,26 7,76 80,123 138,111 133,-27 255,-64 392,-76 44,-4 108,8 85,75 59,-13 156,-32 204,-85 61,-68 -32,-155 -104,-147zm-418,247c28,69 93,139 157,160 50,16 124,-8 100,-62 -32,-73 -94,-98 -164,-105 -30,-3 -67,-2 -93,7zm13,174c-31,-3 -28,8 -18,30 38,89 110,157 192,192 68,30 135,-28 94,-86 -57,-81 -174,-127 -268,-137z"/>
		<use href="#花2" fill="#b00" x="1600"/>
		<path fill="#b00" d="m1790,1913c-29,1 -55,10 -75,27 -27,25 -15,69 18,143 50,111 22,216 7,343 130,36 252,65 248,183 -1,56 -6,173 52,160 137,-31 249,-253 189,-374 -36,-73 -107,-119 -183,-148 40,-59 32,-163 -2,-212 -47,-69 -166,-126 -254,-122zm85,380c10,-84 11,-191 -28,-262 75,13 106,45 111,85 8,55 -36,125 -83,177zm228,280c-18,-94 -69,-187 -164,-205 79,-37 139,-18 172,25 36,46 37,121 -8,180z"/>
		<path fill="#050" d="m1552,1279c-16,1 -33,11 -41,28 -24,49 -43,133 -68,331 -7,51 -10,128 -13,176 -94,142 -155,331 -173,485 -17,145 1,289 28,436 -18,-16 -37,-32 -56,-49 -55,-233 -108,-496 -115,-731 -2,-88 -22,-138 -57,-133 -66,9 -66,105 -69,155 -9,203 41,403 83,587 -98,-58 -200,-80 -296,3 -107,94 -101,388 3,615 54,116 178,259 203,234 19,-20 0,-94 -53,-200 -79,-161 -93,-203 -94,-323 -1,-66 3,-197 76,-205 53,-6 140,33 206,89 34,29 121,125 195,214 178,216 347,380 467,453 100,60 149,71 167,36 11,-21 0,-62 -47,-171 -105,-263 -189,-509 -239,-763 -44,-225 -77,-464 -85,-680 69,-114 179,-171 314,-164 233,11 295,118 382,245 40,59 57,71 84,56 24,-13 24,-17 5,-92 -102,-210 -257,-347 -465,-350 -122,-1 -219,39 -321,112 3,-32 7,-76 13,-142 6,-61 21,-207 8,-231 -8,-16 -25,-23 -42,-21zm-105,783c32,199 44,416 84,596 56,249 121,433 236,636 -243,-190 -312,-372 -362,-643 -39,-207 -16,-412 42,-589z"/>
	</g>
	<g id="黑3" transform="scale(0.1)">
		<path fill="#011" d="m1008,430c-25,-1 -45,15 -46,46 -3,60 -84,136 -130,180 -21,3 -41,5 -62,6 33,-27 54,-80 56,-115 2,-36 -15,-47 -39,-17 -26,33 -52,11 -81,-16 -48,-45 -94,-15 -78,54 8,34 29,77 61,99 -31,4 -82,5 -119,7 -77,4 -38,59 -1,80 64,37 60,24 132,16l1,68 -83,13c-98,15 -158,27 -144,50 27,44 80,68 139,56l88,-19 1,68 -90,10c-54,6 -136,1 -118,39 14,30 46,46 81,52 -31,20 -66,54 -86,92 -29,56 -32,120 15,136 75,25 116,-31 129,-91 10,-46 4,-103 3,-136l67,-12c2,89 -14,182 17,258 28,67 78,88 108,-14 15,-53 9,-101 8,-158 35,60 83,117 128,160 51,49 74,62 111,42 57,-31 133,-238 142,-394 9,-161 -58,-208 -243,-199 -50,2 -96,9 -143,19v-62c72,-15 144,-31 208,-34 106,-5 141,-15 128,-46 -13,-33 -55,-59 -95,-57 -22,1 -45,6 -68,12 40,-22 82,-77 90,-108 10,-36 -8,-82 -89,-85zm-34,458c65,1 132,46 123,105 -11,69 -24,157 -64,186 -31,22 -57,22 -83,9 -27,-14 -62,-38 -112,-69v-48c41,-4 93,7 125,-11 49,-27 1,-98 -66,-89l-62,9v-72c47,-8 94,-21 138,-20z"/>
		<use href="#花3" fill="#b00" x="1600"/>
		<path fill="#b00" d="m1551,1636c-109,2 -177,89 -203,153 -135,-41 -247,-2 -287,74 -40,76 -47,154 32,241 -130,62 -161,172 -132,259 28,88 121,162 224,122 -8,136 87,215 173,233 81,16 179,-29 220,-104 120,141 247,107 334,51 95,-60 104,-218 35,-344 126,-35 161,-191 125,-279 -61,-149 -199,-131 -293,-123 16,-136 -67,-273 -212,-282 -6,-1 -11,-1 -16,-1zm7,90c64,0 115,52 115,115 0,64 -51,115 -115,115 -63,0 -115,-51 -115,-115 0,-63 52,-115 115,-115zm-336,139c58,0 105,47 105,105 0,58 -47,105 -105,105 -58,0 -105,-47 -105,-105 0,-58 47,-105 105,-105zm645,147c61,0 110,50 110,111 0,60 -49,110 -110,110 -60,0 -110,-50 -110,-110 0,-61 50,-111 110,-111zm-344,12c89,0 160,72 160,160 0,89 -71,161 -160,161 -88,0 -160,-72 -160,-161 0,-88 72,-160 160,-160zm-367,178c52,0 95,43 95,95 0,53 -43,95 -95,95 -52,0 -95,-42 -95,-95 0,-52 43,-95 95,-95zm610,155c69,0 125,56 125,125 0,69 -56,125 -125,125 -69,0 -125,-56 -125,-125 0,-69 56,-125 125,-125zm-364,14c69,0 125,56 125,125 0,69 -56,125 -125,125 -69,0 -125,-56 -125,-125 0,-69 56,-125 125,-125z"/>
		<path fill="#050" d="m676,2146c-30,58 -127,160 -147,223 -28,92 -29,181 -9,268 16,71 56,140 117,198 -46,49 -95,87 -127,129 -33,43 -58,92 -59,124 -2,33 0,38 23,40 17,2 48,-9 66,-29 53,-59 83,-139 142,-195 45,-42 79,-48 121,-30 25,11 76,32 101,42 -97,39 -241,111 -258,222 38,11 74,27 102,55 -12,52 -30,104 -39,157 -13,76 -14,151 -9,225 82,-9 150,-38 227,-102 57,-48 77,-64 116,-102 27,20 55,40 82,61 88,-88 128,-297 91,-394 144,48 244,89 383,140 -20,38 -36,69 -58,74 -17,5 -39,-10 -66,-28 -44,-30 -80,-40 -94,-25 -15,15 -13,104 8,169 38,121 223,-15 259,-57 25,-29 75,-88 75,-88 141,44 249,100 338,180 39,34 71,89 103,114 20,16 46,19 57,7 48,-50 28,-92 -7,-134 -59,-70 -131,-119 -196,-176 57,-23 126,-22 192,-34 109,-19 213,-44 283,-103l-80,-107c98,-94 135,-231 157,-361 -92,22 -185,39 -277,46 -105,7 -189,30 -250,81 -73,62 -108,137 -127,211 -19,71 -19,146 -15,220 -373,-136 -746,-276 -1087,-404 55,-86 91,-157 81,-231 -12,-93 -62,-181 -136,-251 -41,-38 -54,-96 -83,-135zm-7,190c58,44 109,105 121,171 18,99 8,175 -64,253 -88,-42 -125,-159 -131,-233 -6,-84 25,-138 74,-191zm1747,422c-35,117 -87,142 -152,177 20,45 43,83 78,116 -101,35 -210,48 -322,54 1,-98 -4,-205 74,-269 111,-91 213,-74 322,-78zm-1378,213c24,10 49,19 73,28 35,108 14,193 -20,294 -22,-18 -51,-34 -91,-50 -55,89 -128,141 -212,190 7,-97 38,-187 86,-267 -23,-31 -55,-58 -88,-69 79,-62 165,-101 252,-126z"/>
	</g>
	<g id="黑4" transform="scale(0.1)">
		<path fill="#011" d="m950,475c-25,0 -19,2 -24,53 -7,77 -38,148 -72,215 -37,70 -84,137 -139,200 -50,59 -53,97 7,58 41,-27 116,-77 189,-138l60,-5c12,98 -13,292 -66,375 -126,195 21,176 144,21 90,-113 76,-268 78,-414l62,-7c79,-9 91,-32 91,-72 0,-46 -56,-86 -119,-76l-93,14c32,-44 52,-84 54,-110 4,-50 -96,-114 -172,-114zm-384,150c-15,179 92,171 216,65 108,-92 57,-136 -18,-95 -62,34 -67,8 -90,-40 -39,-84 -101,-21 -109,70zm-135,236c-13,172 76,152 174,94 139,-82 128,-139 29,-119 -29,6 -66,2 -84,-31 -55,-106 -115,-7 -119,56z"/>
		<use href="#花4" fill="#b00" x="1600"/>
		<path fill="#050" d="m1431,1319c-8,49 -12,155 -17,318 -3,98 -10,198 -16,223 -9,34 -9,58 0,99 7,30 13,112 13,181 1,105 -3,140 -21,195 -22,66 -22,68 -4,115 15,38 18,74 17,201 0,85 -6,183 -13,219 -23,124 -16,151 -12,212 3,37 1,94 -1,151l-123,51c-8,-26 -13,-52 -11,-77 4,-69 19,-175 36,-225 26,-77 25,-85 -9,-118 -6,-6 -28,-29 -36,-38 13,-52 23,-119 6,-168 -18,-52 -49,-87 -87,-126 27,-60 44,-120 46,-160 2,-60 -73,-135 -157,-145 -37,-5 -86,34 -105,54 -88,3 -159,39 -218,92 -109,97 -130,213 -199,329 -86,145 16,109 93,61 52,-32 115,-61 149,-75 -15,79 -23,159 -51,229 -63,156 60,74 106,35 21,-18 42,-35 62,-54 9,84 27,226 19,321 -6,75 56,45 82,18 61,-62 117,-133 162,-205 40,103 -4,260 -30,353 -18,-38 -45,-101 -87,-92 -31,7 -36,32 -37,166 -1,86 7,112 19,151 28,94 98,55 86,-8 -10,-52 -13,-108 -15,-142 43,33 76,65 140,32 36,-19 45,10 5,77 -63,106 23,127 83,69 14,-14 37,-42 54,-62 1,22 4,42 13,57 22,35 53,32 73,-7 14,-27 14,-82 27,-287 6,-105 -4,-167 14,-255l65,-6c29,73 15,154 15,221 -1,116 1,201 11,227 47,123 114,7 101,-54 -6,-27 -10,-116 -9,-198 2,-83 2,-257 1,-389 -1,-132 4,-305 11,-385l12,-144c41,-8 83,-20 122,-37l3,174c2,112 -3,147 -24,217 -30,105 -43,200 -53,399 -16,309 -5,391 52,405 41,10 40,-1 39,-75 -1,-32 0,-63 1,-95 27,-10 52,-22 76,-37 0,35 -1,132 -1,161 0,145 108,144 105,-16 -1,-46 5,-160 14,-230 18,-14 36,-28 54,-39 52,-33 46,-95 -10,-95 -28,0 -66,18 -140,68 -20,13 -67,40 -91,52 4,-71 10,-140 11,-207 4,-165 5,-182 32,-251 27,-72 26,-83 30,-252 2,-68 0,-174 10,-244 14,-12 28,-25 40,-40 -4,61 3,121 19,177 7,26 36,98 51,171 18,90 -10,189 43,178 59,-12 98,-200 122,-295 13,-51 30,-94 41,-150 35,61 126,144 199,236 131,167 134,160 111,-92 -25,-268 -50,-357 -111,-437 -41,-56 -78,-84 -121,-84 -29,0 -62,14 -92,47 -24,-37 -49,-59 -76,-67 -27,-8 -56,0 -91,21 -13,-25 -37,-54 -56,-61 -45,-16 -101,12 -131,38 -27,25 -74,80 -103,125 -29,44 -59,80 -66,80 -19,0 -18,-59 2,-169 14,-74 18,-105 5,-183 -23,-139 -7,-290 4,-431 6,-76 -93,-51 -100,-5 -11,68 -13,329 -8,424 3,47 9,90 -5,127l-99,-1c8,-181 15,-373 18,-538 1,-76 -81,-58 -89,-5zm546,624c46,49 -19,139 -49,183 -34,51 -80,92 -136,116 -47,20 -43,19 -29,-27 9,-28 23,-87 58,-138 33,-48 110,-184 156,-135zm-471,-8 83,3c10,64 -9,134 -7,188 3,96 40,172 6,243 -25,-1 -56,-3 -78,-4 -22,-78 1,-163 3,-234 3,-72 -10,-133 -7,-196zm618,42c74,2 56,123 52,179 -6,93 -46,173 -64,218 -22,54 -27,54 -37,5 -16,-83 -28,-160 -26,-225 1,-51 17,-179 75,-177zm297,190c14,37 17,116 20,159 6,85 6,96 -57,27 -36,-40 -75,-88 -91,-137 -23,-73 -31,-188 -3,-201 71,-33 111,98 131,151zm-1349,165c43,43 16,122 -19,190 -38,75 -98,143 -130,177 -85,90 -90,86 -65,-25 15,-64 35,-134 62,-197 28,-64 89,-208 152,-145zm-205,51c-37,68 -65,138 -73,167 -15,12 -48,35 -73,51 -73,47 -65,37 -28,-34 42,-80 89,-151 174,-184zm717,62c18,65 -14,158 -14,233 0,129 10,213 -14,323h-65c-31,-111 18,-229 18,-327 0,-83 -17,-157 -2,-227zm-482,182c52,39 71,91 60,151 -12,71 -61,151 -97,193 -61,71 -63,72 -74,-10 -6,-42 -15,-110 -21,-156 49,-56 96,-121 132,-178zm269,722c1,30 -2,65 -5,100 4,-53 -42,-63 -69,-72z"/>
	</g>
</svg>
