<svg width="300" height="400"
	xmlns="http://www.w3.org/2000/svg"
	xmlns:xlink="http://www.w3.org/1999/xlink">
	<g id="一筒" transform="translate(150,200)">
		<path fill="#050" d="M0,-117A117,117 0,0,0 -117,0 117,117 0,0,0 0,117 117,117 0,0,0 117,0 117,117 0,0,0 0,-117ZM0,-107A107,107 0,0,1 107,0 107,107 0,0,1 0,107 107,107 0,0,1 -107,0 107,107 0,0,1 0,-107ZM0,-97A97,97 0,0,0 -97,0 97,97 0,0,0 0,97 97,97 0,0,0 97,0 97,97 0,0,0 0,-97ZM0,-88.2 20.1,-71.5 12.3,-47.4A49,49 0,0,0 3,-48.9V-73H-3V-48.8A49,49 0,0,0 -12.2,-47.4L-20.1,-71.5ZM-51.9,-71.4 -25.8,-69.6 -17.9,-45.5A49,49 0,0,0 -26.3,-41.3L-40.5,-60.8 -45.3,-57.3 -31.1,-37.7A49,49 0,0,0 -37.7,-31.1L-58.3,-46ZM51.9,-71.4 58.3,-46 37.8,-31.2A49,49 0,0,0 31.2,-37.8L45.3,-57.3 40.5,-60.8 26.3,-41.3A49,49 0,0,0 18,-45.6L25.8,-69.6ZM0,-46A46,46 0,0,1 46,0 46,46 0,0,1 0,46 46,46 0,0,1 -46,0 46,46 0,0,1 0,-46ZM-61.8,-41.2 -41.3,-26.3A49,49 0,0,0 -45.5,-17.9L-68.5,-25.4 -70.4,-19.7 -47.4,-12.2A49,49 0,0,0 -48.8,-3H-74.2L-83.9,-27.3ZM61.8,-41.2L83.9,-27.3 74.2,-3H48.9A49,49 0,0,0 47.4,-12.3L70.4,-19.7 68.5,-25.4 45.6,-18A49,49 0,0,0 41.3,-26.3ZM-74.2,3H-48.8A49,49 0,0,0 -47.4,12.2L-70.4,19.7 -68.5,25.4 -45.5,17.9A49,49 0,0,0 -41.3,26.3L-61.8,41.2 -83.9,27.3ZM48.8,3H74.2L83.9,27.3 61.8,41.2 41.3,26.3A49,49 0,0,0 45.5,17.9L68.5,25.4 70.4,19.7 47.4,12.2A49,49 0,0,0 48.8,3ZM-37.7,31.1A49,49 0,0,0 -31.1,37.7L-45.3,57.3 -40.5,60.8 -26.3,41.3A49,49 0,0,0 -17.9,45.5L-25.8,69.6 -51.9,71.4 -58.3,46ZM37.7,31.1 58.3,46 51.9,71.4 25.8,69.6 17.9,45.5A49,49 0,0,0 26.3,41.3L40.5,60.8 45.3,57.3 31.1,37.7A49,49 0,0,0 37.7,31.1ZM-12.2,47.4A49,49 0,0,0 -3,48.8V73H3V48.8A49,49 0,0,0 12.2,47.4L20.1,71.5 0,88.2 -20.1,71.5Z"/>
		<path fill="#b00" d="M0,-38A38,38 0,0,0 -5.7,-37.6 38,38 0,0,0 -34.1,-16.6 50,50 0,0,1 -34.1,-16.6 38,38 0,0,0 -34.1,-16.6 38,38 0,0,0 -35.3,-13.8 38,38 0,0,0 -36,-11.9 38,38 0,0,0 -36.7,-9.4 38,38 0,0,0 -37.3,-6.9 38,38 0,0,0 -37.7,-4.8 38,38 0,0,0 -38,0 38,38 0,0,0 -37.6,5.7 38,38 0,0,0 -37.5,5.8 38,38 0,0,0 -36.3,11.2 38,38 0,0,0 -36.2,11.3 38,38 0,0,0 -34.1,16.6 38,38 0,0,0 -16.6,34.1 50,50 0,0,1 -16.6,34.1 38,38 0,0,0 -16.6,34.1 38,38 0,0,0 -13.8,35.3 38,38 0,0,0 -11.9,36 38,38 0,0,0 -9.4,36.7 38,38 0,0,0 -6.9,37.3 38,38 0,0,0 -4.8,37.7 38,38 0,0,0 0,38 38,38 0,0,0 5.7,37.6 38,38 0,0,0 5.8,37.5 38,38 0,0,0 11.2,36.3 38,38 0,0,0 11.3,36.2 38,38 0,0,0 16.6,34.1 38,38 0,0,0 37.6,5.7 38,38 0,0,0 38,0 38,38 0,0,0 37.8,-4.2 38,38 0,0,0 37.7,-4.5 38,38 0,0,0 37.1,-8.4 38,38 0,0,0 37,-8.6 38,38 0,0,0 35.8,-12.6 38,38 0,0,0 34.2,-16.6 38,38 0,0,0 34.2,-16.6 50,50 0,0,1 34.2,-16.6 38,38 0,0,0 16.6,-34.2 50,50 0,0,1 16.6,-34.2 38,38 0,0,0 16.5,-34.2 38,38 0,0,0 12.6,-35.8 38,38 0,0,0 8.7,-37 38,38 0,0,0 8.3,-37.1 38,38 0,0,0 4.5,-37.7 38,38 0,0,0 4.2,-37.8 38,38 0,0,0 0,-38ZM12.1,-28.5A31,31 0,0,1 28.5,-12.1 50,50 0,0,1 3.2,-3.2 50,50 0,0,1 12.1,-28.5ZM-12,-28.5A50,50 0,0,1 -3.2,-3.2 50,50 0,0,1 -28.5,-12.1 31,31 0,0,1 -12,-28.5ZM3.2,3.2A50,50 0,0,1 28.5,12 31,31 0,0,1 12.1,28.5 50,50 0,0,1 3.2,3.2ZM-3.2,3.2A50,50 0,0,1 -12.1,28.5 31,31 0,0,1 -28.5,12.1 50,50 0,0,1 -3.2,3.2Z"/>
	</g>
	<path id="筒a" d="M0,-69A69,69 0,0,0 -69,0 69,69 0,0,0 0,69 69,69 0,0,0 69,0 69,69 0,0,0 0,-69ZM20.9,-49.8A54,54 0,0,1 49.8,-20.9 21,21 0,0,0 48,-21 21,21 0,0,0 28.6,-8H8V-28.6A21,21 0,0,0 21,-48 21,21 0,0,0 20.9,-49.8ZM-20.8,-49.6A21,21 0,0,0 -21,-48 21,21 0,0,0 -8,-28.6V-8H-28.6A21,21 0,0,0 -48,-21 21,21 0,0,0 -49.6,-20.8 54,54 0,0,1 -20.8,-49.6ZM-28.6,8H-8V28.6A21,21 0,0,0 -21,48 21,21 0,0,0 -20.8,49.6 54,54 0,0,1 -49.6,20.8 21,21 0,0,0 -48,21 21,21 0,0,0 -28.6,8ZM8,8H28.6A21,21 0,0,0 48,21 21,21 0,0,0 49.6,20.8 54,54 0,0,1 20.8,49.6 21,21 0,0,0 21,48 21,21 0,0,0 8,28.6Z"/>
	<g id="二筒" transform="translate(150,200)">
		<use xlink:href="#筒a" fill="#011" y="-91"/>
		<use xlink:href="#筒a" fill="#050" y="91"/>
	</g>
	<path id="筒b" d="M0,-58A58,58 0,0,0 -58,0 58,58 0,0,0 0,58 58,58 0,0,0 58,0 58,58 0,0,0 0,-58ZM18,-41.2A45,45 0,0,1 41.2,-18 18,18 0,0,0 40,-18 18,18 0,0,0 22.7,-5H5V-22.7A18,18 0,0,0 18,-40 18,18 0,0,0 18,-41.2ZM-17.9,-41.2A18,18 0,0,0 -18,-40 18,18 0,0,0 -5,-22.7V-5H-22.7A18,18 0,0,0 -40,-18 18,18 0,0,0 -41.2,-17.9 45,45 0,0,1 -17.9,-41.2ZM-22.7,5H-5V22.7A18,18 0,0,0 -18,40 18,18 0,0,0 -17.9,41.2 45,45 0,0,1 -41.2,17.9 18,18 0,0,0 -40,18 18,18 0,0,0 -22.7,5ZM5,5H22.7A18,18 0,0,0 40,18 18,18 0,0,0 41.2,17.9 45,45 0,0,1 17.9,41.2 18,18 0,0,0 18,40 18,18 0,0,0 5,22.7Z"/>
	<g id="三筒" transform="translate(150,200)">
		<use xlink:href="#筒b" fill="#011" x="-65" y="-116"/>
		<use xlink:href="#筒b" fill="#b00"/>
		<use xlink:href="#筒b" fill="#050" x="65" y="116"/>
	</g>
	<path id="筒c" d="M0,-49A49,49 0,0,0 -49,0 49,49 0,0,0 0,49 49,49 0,0,0 49,0 49,49 0,0,0 0,-49ZM15.9,-32.3A36,36 0,0,1 32.3,-15.9 16,16 0,0,0 18.2,-6H6V-18.2A16,16 0,0,0 15.9,-32.3ZM-15.9,-32.2A16,16 0,0,0 -6,-18.2V-6H-18.2A16,16 0,0,0 -32.1,-15.9 36,36 0,0,1 -15.9,-32.2ZM-18.2,6H-6V18.2A16,16 0,0,0 -15.9,32.2 36,36 0,0,1 -32.2,15.9 16,16 0,0,0 -18.2,6ZM6,6H18.2A16,16 0,0,0 32.2,15.9 36,36 0,0,1 15.9,32.2 16,16 0,0,0 6,18.2Z"/>
	<g id="四筒" transform="translate(150,200)">
		<use xlink:href="#筒c" fill="#050" x="-54" y="-81"/>
		<use xlink:href="#筒c" fill="#011" x="54" y="-81"/>
		<use xlink:href="#筒c" fill="#011" x="-54" y="81"/>
		<use xlink:href="#筒c" fill="#050" x="54" y="81"/>
	</g>
	<g id="五筒" transform="translate(150,200)">
		<use xlink:href="#筒c" fill="#050" x="-54" y="-89"/>
		<use xlink:href="#筒c" fill="#011" x="54" y="-89"/>
		<use xlink:href="#筒c" fill="#b00"/>
		<use xlink:href="#筒c" fill="#011" x="-54" y="89"/>
		<use xlink:href="#筒c" fill="#050" x="54" y="89"/>
	</g>
	<g id="六筒" transform="translate(150,200)">
		<use xlink:href="#筒c" fill="#050" x="-54" y="-115"/>
		<use xlink:href="#筒c" fill="#050" x="54" y="-115"/>
		<use xlink:href="#筒c" fill="#b00" x="-54" y="15"/>
		<use xlink:href="#筒c" fill="#b00" x="54" y="15"/>
		<use xlink:href="#筒c" fill="#b00" x="-54" y="115"/>
		<use xlink:href="#筒c" fill="#b00" x="54" y="115"/>
	</g>
	<path id="筒d" d="M0,-41A41,41 0,0,0 -41,0 41,41 0,0,0 0,41 41,41 0,0,0 41,0 41,41 0,0,0 0,-41ZM12.9,-29.3A32,32 0,0,1 29.3,-12.9 13,13 0,0,0 28,-13 13,13 0,0,0 15.7,-4H4V-15.6A13,13 0,0,0 13,-28 13,13 0,0,0 12.9,-29.3ZM-12.9,-29.2A13,13 0,0,0 -13,-28 13,13 0,0,0 -4,-15.7V-4H-15.6A13,13 0,0,0 -28,-13 13,13 0,0,0 -29.2,-12.9 32,32 0,0,1 -12.9,-29.2ZM-15.7,4H-4V15.7A13,13 0,0,0 -13,28 13,13 0,0,0 -12.9,29.2 32,32 0,0,1 -29.2,12.9 13,13 0,0,0 -28,13 13,13 0,0,0 -15.7,4ZM4,4H15.7A13,13 0,0,0 28,13 13,13 0,0,0 29.2,12.9 32,32 0,0,1 12.9,29.2 13,13 0,0,0 13,28 13,13 0,0,0 4,15.7Z"/>
	<g id="七筒" transform="translate(150,200)">
		<use xlink:href="#筒d" fill="#050" x="-77" y="-134"/>
		<use xlink:href="#筒d" fill="#050" y="-88"/>
		<use xlink:href="#筒d" fill="#050" x="77" y="-42"/>
		<use xlink:href="#筒d" fill="#b00" x="-45" y="45"/>
		<use xlink:href="#筒d" fill="#b00" x="45" y="45"/>
		<use xlink:href="#筒d" fill="#b00" x="-45" y="135"/>
		<use xlink:href="#筒d" fill="#b00" x="45" y="135"/>
	</g>
	<g id="八筒" transform="translate(150,200)">
		<use xlink:href="#筒d" fill="#011" x="-45" y="-135"/>
		<use xlink:href="#筒d" fill="#011" x="45" y="-135"/>
		<use xlink:href="#筒d" fill="#011" x="-45" y="-45"/>
		<use xlink:href="#筒d" fill="#011" x="45" y="-45"/>
		<use xlink:href="#筒d" fill="#011" x="-45" y="45"/>
		<use xlink:href="#筒d" fill="#011" x="45" y="45"/>
		<use xlink:href="#筒d" fill="#011" x="-45" y="135"/>
		<use xlink:href="#筒d" fill="#011" x="45" y="135"/>
	</g>
	<g id="九筒" transform="translate(150,200)">
		<use xlink:href="#筒d" fill="#011" x="-87" y="-110"/>
		<use xlink:href="#筒d" fill="#011" y="-110"/>
		<use xlink:href="#筒d" fill="#011" x="87" y="-110"/>
		<use xlink:href="#筒d" fill="#b00" x="-87"/>
		<use xlink:href="#筒d" fill="#b00"/>
		<use xlink:href="#筒d" fill="#b00" x="87"/>
		<use xlink:href="#筒d" fill="#050" x="-87" y="110"/>
		<use xlink:href="#筒d" fill="#050" y="110"/>
		<use xlink:href="#筒d" fill="#050" x="87" y="110"/>
	</g>
	<g id="一條">
		<path fill="#b00" d="M179.2,52.5C177.6,52.5 175.5,54.1 173.1,57.8 165.5,69.9 153.3,80.9 138.9,86.6 132.8,89 126.6,92.6 121.8,96.4 117.3,99.9 115.2,101.1 111.5,99.5L79.9,85.7C74,83.2 71.2,89.6 75.9,92.9L107.6,115.2C113,119 112.9,119.1 117.3,112.8 121.3,107.3 126.2,102.6 138.6,102.9 151,103.2 159.7,115.5 159.4,127.4 159.1,139.3 149.9,149.9 137.3,149.7 124.7,149.5 119.2,143.3 117.1,136.3 115,129.2 112.4,126.2 108.7,127.4 104.6,128.7 105.1,135.2 104.1,140.1 103.3,144.4 102,149 100.9,153.5 98.5,164.3 98.1,176.3 97.4,186.5 96.9,194.9 96.9,202.9 98.7,211.8 99.8,217.5 101,225.2 97.6,228.7 95.3,231.1 91.2,231.9 88.2,234.4 80,241.4 83.7,244.7 91.9,241.6 100.4,238.5 107.9,232 112.5,225.1 115.2,221 117.1,215.4 119.4,210.3 121.6,205.4 122.8,199.5 123.9,194.7 126.1,184.1 126.2,172.9 126.5,162.5L126.6,159.7 134.5,159.6 134.5,161.6C134.4,166.8 134.4,171.5 134.3,176.7 134.1,180.3 133.8,184.2 133.2,187.7 131,200.2 134.6,200.8 137.5,188.9 138.3,185.5 139,182.1 139.5,177.8 140.2,172.3 140.3,167.7 140.2,162.1L140.2,159.3 148.2,158.1 148.4,161.2C148.9,167.8 148.7,173.2 148.6,179.7 148.6,187.2 144.4,194.2 142.8,200.4 141.8,204.3 144.7,205 147,202.5 152.8,196.1 154.7,187.2 154.9,179.5 155.2,171.9 155.2,167.3 154.7,160L154.5,155.9 160.3,151.7 161.4,154.3C164.3,160.8 164.2,166.2 163.9,172.4 163.7,176.6 163.3,181.4 162.5,184.2 160.3,191.9 164.2,193.9 167.4,185.7 169.2,180.9 169.5,177.2 169.7,172.2 170.1,165 170.5,157.6 166.5,151.1L164.3,147.3 167.3,142.2 172,148.1C175.8,152.8 177,158.1 177.8,164 178.9,172 178.5,179.3 176.4,186.5 174.6,192.7 171.6,198 167.6,201.9 162.3,207 155.6,210.5 149.1,212.8 142.4,215 135.4,216.7 128.9,218.5 119.1,221.3 117.3,226.3 128.6,225.5 135.8,225 144.8,222.5 151,219.9 159.1,216.5 166.4,213 172.4,207.4 178.2,201.9 182.4,195.2 184.2,188 186.4,179.5 186.4,170.4 184.8,162.3 183.6,156 181.2,149.2 177.8,144.2 175.8,141.2 173,138.4 169.4,135.8 170.2,132.9 170.1,129.9 170.1,126.7 170.1,117.4 167.1,110.3 162.1,104.4 159,100.8 155.4,98 151.5,95 153.7,93.6 156.8,91.3 162.1,87.2 169.7,81.2 176.2,72.4 180.7,65.1 183.9,59.9 185.8,52.6 179.2,52.5ZM138,116.9C132.4,116.8 127.8,121.4 127.7,127.1 127.6,132.9 132.1,137.6 137.7,137.7 143.3,137.8 147.9,133.2 148,127.5 148.1,121.7 143.6,117 138,116.9ZM113.7,151.5C117.6,151.6 120.8,154.9 120.7,158.9 120.7,162.9 117.4,166.1 113.4,166 109.5,165.9 106.3,162.6 106.4,158.6 106.5,154.6 109.7,151.5 113.7,151.5ZM113.2,173.7C116.9,173.8 119.8,176.9 119.7,180.6 119.6,184.4 116.6,187.4 113,187.3 109.3,187.3 106.4,184.2 106.4,180.4 106.5,176.7 109.5,173.7 113.2,173.7ZM109.5,196.5C112.8,196.6 115.5,199.4 115.4,202.8 115.4,206.3 112.6,209 109.3,209 105.9,208.9 103.3,206.1 103.3,202.6 103.4,199.2 106.1,196.5 109.5,196.5Z"/>
		<path fill="#050" d="M230.7,147.7C214.5,147.2 206.8,162 202.8,171.6 200.4,177.4 196.3,185.1 193,191.9 186.7,204.5 171.2,216.8 160,221.2 140.5,229 129.6,235.1 121.2,239 109.9,244.4 105.9,247.8 102.4,252.9 100.9,255.1 99.8,257.1 96.8,259.3L92.7,262.2 83.2,261.8C73.7,261.4 69.4,261.9 63.9,266.6 59.9,270.2 57.9,272.4 54.7,280 52.7,284.7 52.2,289 52,291.4 51.6,296.7 55.4,296.9 57.1,292.2 58,289.4 59,285.3 60.5,281.6 62.3,277.4 65.2,272.5 69.6,271.7 73,271 76.8,271.1 80.1,271.6 77.9,273 74.3,275 72.6,276.9 68.4,281.5 64.9,291.7 67.2,294 68.9,295.7 69.3,290.3 72.7,286.6 75.4,283.6 78,281.5 78,281.5L77.6,286.7C75.7,306.8 83.2,301.6 84.5,283.8L84.3,278 89.9,274.7 93.5,286.4C96.8,297.1 101.6,288.3 100.9,277.3L99.8,268.7 108.6,263.4 110,270.1C110.9,274.8 111,276.5 111.8,280.9 113.1,288.4 115.5,293.7 118.1,294.5 124.2,296.2 124.9,286.8 119.2,278.1 117.1,274.9 116.1,269.2 115.9,265.2L115.1,259.5 124.3,253.9 124.9,260.1C126.1,273 128.7,284.1 133.7,295.5 139.7,309.2 146.4,319.6 158.7,329 168.7,336.7 179.9,346.9 192.7,347.5 204.9,348 191.6,338.8 189.4,337.2 181.1,331.5 172.3,326.4 165.2,320.1 155.6,311.5 148.9,302 143.6,291.9 138,281.1 131.8,266.7 131.2,255.3L130.9,249.9 136.4,246.6 139.3,254.1C142,261.3 143.6,268.8 146.2,275.7 150.6,287.6 154.9,293.8 159,293.8 166.5,294 166.3,288.5 157,277 150.8,269.5 147.9,260.5 145.7,251.6L143.3,242.5 149.6,238.7 152.6,248.8C154.2,254.2 155.9,258.9 157.7,264 161.7,275.1 166.6,273.7 164.4,262.7 163.2,256.9 160.8,250.7 159.3,245.9L155.9,234.9 162.8,230.7 164.2,235.1C166.4,242.4 166.2,249.8 167.3,256.7 168.1,262.1 172.7,261.4 173.2,257.2 174.4,248.4 173.7,239.8 172.1,231.7L170.8,225.9 177.2,222.1 178.4,228C179.5,233.8 179.8,239.8 179.5,245.8 179.1,256.1 177.1,266 173.6,273.3 171.1,278.5 170.2,282.3 173.3,283.3 176.6,284.4 180.4,280.2 182.6,274.9 186.3,266.1 187.9,255.6 188.2,247 188.5,240.5 187.8,233.8 186.5,226.4L184.8,217.4C192.7,212.6 198.3,203.2 201.9,195.9 205.7,188.3 208.8,181.5 211.7,174.5 215.6,165.1 222.2,156.5 230.3,156.5 235.7,156.6 239.4,159.5 239.4,163.7 239.3,169.1 236.1,170.9 229.6,170.8 224.1,170.8 220.4,172.6 220,175.6 219.4,179.3 222.1,180.5 230.2,180.8 241.9,181.3 248.7,175.6 249,164.6 249.3,154.3 241.8,148.1 230.7,147.7Z"/>
	</g>
	<path id="條a" d="M0,-80A24,24 0,0,0 -24,-56 24,24 0,0,0 -20,-42.77148V-13.22852A24,24 0,0,0 -20.23633,-12.7832 24,24 0,0,0 -21.73438,-9.96289 24,24 0,0,0 -22.29102,-8.76758 24,24 0,0,0 -23.26367,-5.55273 24,24 0,0,0 -23.55664,-4.45703 24,24 0,0,0 -24,0 24,24 0,0,0 -23.55664,4.45703 24,24 0,0,0 -23.26367,5.55273 24,24 0,0,0 -22.29102,8.76758 24,24 0,0,0 -21.73438,9.96289 24,24 0,0,0 -20.23633,12.7832 24,24 0,0,0 -20,13.22852V42.77148A24,24 0,0,0 -24,56 24,24 0,0,0 0,80 24,24 0,0,0 24,56 24,24 0,0,0 20,42.73633V13.22852A24,24 0,0,0 20.23633,12.7832 24,24 0,0,0 21.73438,9.96289 24,24 0,0,0 22.29102,8.76758 24,24 0,0,0 23.26367,5.55273 24,24 0,0,0 23.55664,4.45703 24,24 0,0,0 24,0 24,24 0,0,0 23.54492,-4.625 24,24 0,0,0 23.52932,-4.70120 24,24 0,0,0 22.21096,-9.07815 24,24 0,0,0 22.15436,-9.20511 24,24 0,0,0 20.03912,-13.18948 24,24 0,0,0 20,-13.26367V-42.77148A24,24 0,0,0 24,-56 24,24 0,0,0 0,-80ZM0,-66A10,10 0,0,1 10,-56 10,10 0,0,1 0,-46 10,10 0,0,1 -10,-56 10,10 0,0,1 0,-66ZM0,-38A5,5 0,0,1 5,-33V-32.58984 -23.4668 -23A5,5 0,0,1 0,-18 5,5 0,0,1 -5,-23V-23.41211 -32.58984 -33A5,5 0,0,1 0,-38ZM0,-10A10,10 0,0,1 10,0 10,10 0,0,1 0,10 10,10 0,0,1 -10,0 10,10 0,0,1 -9.66016,-2.58789 10,10 0,0,1 0,-10ZM0,18A5,5 0,0,1 5,23V23.41211 32.5332 33A5,5 0,0,1 0,38 5,5 0,0,1 -5,33V32.58984 23.41211 23A5,5 0,0,1 0,18ZM0,46A10,10 0,0,1 10,56 10,10 0,0,1 0,66 10,10 0,0,1 -10,56 10,10 0,0,1 0,46Z"/>
	<g id="二條" transform="translate(150,200)">
		<use xlink:href="#條a" fill="#011" y="-84"/>
		<use xlink:href="#條a" fill="#050" y="84"/>
	</g>
	<g id="三條" transform="translate(150,200)">
		<use xlink:href="#條a" fill="#011" y="-84"/>
		<use xlink:href="#條a" fill="#050" x="-70" y="84"/>
		<use xlink:href="#條a" fill="#050" x="70" y="84"/>
	</g>
	<g id="四條" transform="translate(150,200)">
		<use xlink:href="#條a" fill="#050" x="-70" y="-84"/>
		<use xlink:href="#條a" fill="#011" x="70" y="-84"/>
		<use xlink:href="#條a" fill="#011" x="-70" y="84"/>
		<use xlink:href="#條a" fill="#050" x="70" y="84"/>
	</g>
	<g id="五條" transform="translate(150,200)">
		<use xlink:href="#條a" fill="#050" x="-70" y="-84"/>
		<use xlink:href="#條a" fill="#011" x="70" y="-84"/>
		<use xlink:href="#條a" fill="#b00"/>
		<use xlink:href="#條a" fill="#011" x="-70" y="84"/>
		<use xlink:href="#條a" fill="#050" x="70" y="84"/>
	</g>
	<g id="六條" transform="translate(150,200)">
		<use xlink:href="#條a" fill="#011" x="-80" y="-84"/>
		<use xlink:href="#條a" fill="#011" y="-84"/>
		<use xlink:href="#條a" fill="#011" x="80" y="-84"/>
		<use xlink:href="#條a" fill="#050" x="-80" y="84"/>
		<use xlink:href="#條a" fill="#050" y="84"/>
		<use xlink:href="#條a" fill="#050" x="80" y="84"/>
	</g>
	<path id="條b" d="M0,-58A22,22 0,0,0 -22,-36 22,22 0,0,0 -18,-23.5V-12.5A22,22 0,0,0 -22,0 22,22 0,0,0 -18,12.5V23.5A22,22 0,0,0 -22,36 22,22 0,0,0 0,58 22,22 0,0,0 22,36 22,22 0,0,0 18,23.45703V12.49805A22,22 0,0,0 22,0 22,22 0,0,0 18,-12.54297V-23.50195A22,22 0,0,0 22,-36 22,22 0,0,0 0,-58ZM0,-43A7,7 0,0,1 7,-36 7,7 0,0,1 0,-29 7,7 0,0,1 -7,-36 7,7 0,0,1 0,-43ZM0,-23A5,5 0,0,1 5,-18 5,5 0,0,1 0,-13 5,5 0,0,1 -5,-18 5,5 0,0,1 0,-23ZM0,-7A7,7 0,0,1 7,0 7,7 0,0,1 0,7 7,7 0,0,1 -7,0 7,7 0,0,1 0,-7ZM0,13A5,5 0,0,1 5,18 5,5 0,0,1 0,23 5,5 0,0,1 -5,18 5,5 0,0,1 0,13ZM0,29A7,7 0,0,1 7,36 7,7 0,0,1 0,43 7,7 0,0,1 -7,36 7,7 0,0,1 0,29Z"/>
	<g id="七條" transform="translate(150,200)">
		<use xlink:href="#條b" fill="#b00" y="-123"/>
		<use xlink:href="#條b" fill="#050" x="-80"/>
		<use xlink:href="#條b" fill="#011"/>
		<use xlink:href="#條b" fill="#050" x="80"/>
		<use xlink:href="#條b" fill="#050" x="-80" y="123"/>
		<use xlink:href="#條b" fill="#011" y="123"/>
		<use xlink:href="#條b" fill="#050" x="80" y="123"/>
	</g>
	<use id="條c" xlink:href="#條a" transform="rotate(51)"/>
	<use id="條d" xlink:href="#條a" transform="rotate(-51)"/>
	<g id="八條" transform="translate(150,200)">
		<use xlink:href="#條a" fill="#011" x="-87" y="-84"/>
		<use xlink:href="#條c" fill="#011" x="-43.5" y="-63.4"/>
		<use xlink:href="#條d" fill="#011" x="43.5" y="-63.4"/>
		<use xlink:href="#條a" fill="#011" x="87" y="-84"/>
		<use xlink:href="#條a" fill="#050" x="-87" y="84"/>
		<use xlink:href="#條d" fill="#050" x="-43.5" y="63.4"/>
		<use xlink:href="#條c" fill="#050" x="43.5" y="63.4"/>
		<use xlink:href="#條a" fill="#050" x="87" y="84"/>
	</g>
	<g id="九條" transform="translate(150,200)">
		<use xlink:href="#條b" fill="#050" x="-80" y="-123"/>
		<use xlink:href="#條b" fill="#b00" y="-123"/>
		<use xlink:href="#條b" fill="#011" x="80" y="-123"/>
		<use xlink:href="#條b" fill="#050" x="-80"/>
		<use xlink:href="#條b" fill="#b00"/>
		<use xlink:href="#條b" fill="#011" x="80"/>
		<use xlink:href="#條b" fill="#050" x="-80" y="123"/>
		<use xlink:href="#條b" fill="#b00" y="123"/>
		<use xlink:href="#條b" fill="#011" x="80" y="123"/>
	</g>
	<path id="萬a" fill="#b00" d="m1302,2086c-19,0 -36,12 -49,23 -49,43 -76,108 -77,168 -2,43 24,87 38,97 32,24 66,34 104,25 35,-8 72,-33 89,-59 30,-49 61,-131 9,-140 -63,-11 -85,-29 -90,-73 -2,-19 -10,-41 -24,-41zm279,40c20,18 33,66 36,105 2,33 4,69 -36,112l-53,57c0,0 -170,4 -256,6 -63,1 -107,-4 -121,7 -28,21 -34,79 -11,102 68,69 95,46 254,35l1,100c-116,-2 -164,-12 -118,53 27,39 50,35 119,27l1,86c-83,7 -118,-1 -109,37 13,60 44,50 110,43l1,80 -190,14c17,-11 1,-119 -5,-171 -9,-86 -16,-108 -39,-138 -36,-48 -63,-63 -84,-46 -17,15 -16,87 10,299 18,154 9,158 184,144l125,-10 2,99c-24,2 -231,20 -354,28 -19,-131 -18,-201 -99,-201 -90,0 -72,74 -65,212 -50,6 -142,-40 -168,9 -23,43 97,137 121,134l55,-8 9,144c7,98 25,225 135,198 89,-22 49,-60 27,-366l340,-29 2,116 -152,6c-33,1 -66,-10 -81,9 -12,14 22,133 38,152 10,13 27,18 91,9l448,-65 57,64c-3,2 -58,-13 -58,-12 0,31 68,146 116,193 25,24 61,53 95,54 68,1 126,-44 167,-125 42,-82 106,-233 137,-325 39,-112 33,-115 -46,-194 -50,-50 -108,-77 -164,-98 -58,-22 -115,-2 -153,19 -23,13 -62,37 -100,40l-250,17 -1,-100 129,-5c114,-4 130,-8 179,-34 57,-32 102,-87 126,-156 29,-80 7,-142 -48,-193 -30,-29 -79,-30 -124,-28l-267,8 -1,-100h253c68,0 129,14 137,-58 3,-21 -5,-37 -14,-49 -8,-13 -25,-33 -45,-33l-163,-1 123,-113c14,-13 26,-26 21,-52 -15,-71 -89,-130 -180,-137 -44,-4 -125,1 -94,29zm178,588c39,-1 53,22 47,97 -7,104 -22,135 -98,139l-160,9 -1,-85c129,-11 164,-3 178,-53 16,-56 -67,-36 -179,-27l-1,-77zm168,524c87,-2 72,120 61,185 -17,96 -43,159 -72,158h-55c23,-91 33,-170 9,-226 -17,-41 -39,-58 -82,-62 -39,-4 -106,-13 -114,31 -3,15 9,54 13,68l-134,2 -2,-130 372,-26c1,0 3,0 4,0z"/>
	<g id="一萬" transform="scale(0.1)">
		<path fill="#011" d="m2032,843c-189,8 -368,58 -528,79 -194,26 -311,26 -535,25 -94,-1 -218,-19 -268,10 -84,49 12,148 61,193 73,67 146,111 272,108 177,-4 345,-49 505,-70 214,-27 423,-35 613,41 119,47 210,-1 172,-95 -54,-134 -147,-297 -292,-291z"/>
		<use xlink:href="#萬a"/>
	</g>
	<g id="二萬" transform="scale(0.1)">
		<path fill="#011" d="m1715,528c-178,29 -342,85 -503,79 -109,-4 -220,0 -148,132 45,83 160,144 258,133 94,-12 186,-55 270,-74 98,-23 149,-24 267,-5 52,9 92,-27 88,-87 -5,-88 -155,-190 -232,-178zm289,683c-437,0 -813,100 -1107,92 -151,-4 -209,34 -201,100 15,126 179,174 295,168 266,-14 547,-88 792,-95 186,-5 522,114 520,-26 -2,-92 -166,-239 -299,-239z"/>
		<use xlink:href="#萬a"/>
	</g>
	<g id="三萬" transform="scale(0.1)">
		<path fill="#011" d="m1715,479c-178,29 -342,85 -503,79 -109,-4 -220,0 -148,132 45,83 160,144 258,133 94,-12 186,-55 270,-74 98,-23 149,-24 267,-5 52,9 92,-27 88,-87 -5,-88 -155,-190 -232,-178zm-45,396c-116,0 -205,78 -406,80 -113,0 -146,19 -152,75 -11,101 112,159 202,157 151,-4 178,-64 401,-64 150,0 173,-6 172,-70 0,-86 -118,-179 -217,-178zm334,387c-437,0 -813,100 -1107,92 -151,-4 -209,34 -201,100 15,126 179,174 295,168 266,-14 547,-88 792,-95 186,-5 522,114 520,-26 -2,-92 -166,-239 -299,-239z"/>
		<use xlink:href="#萬a"/>
	</g>
	<g id="四萬" transform="scale(0.1)">
		<path fill="#011" d="m1858,510c-13,-1 -34,11 -47,24 -44,48 -76,55 -312,70 -123,8 -402,21 -485,23 -248,6 -166,47 -123,95 53,60 123,137 176,155 44,16 138,-21 138,-21 32,165 -32,205 -160,375 -16,21 -19,46 6,44 145,-12 297,-139 356,-261 31,-65 31,-122 29,-193l136,-20c-5,64 -75,141 -9,184 89,58 5,107 -65,160 -43,32 -33,49 16,53 88,7 229,-59 321,-141 72,-63 94,-149 -5,-157 -102,-8 -89,-28 -91,-126 0,0 107,-24 170,-14 59,10 118,92 92,204l-45,196c-30,127 -62,171 -125,170 -64,-1 -45,-44 -97,-58 -32,-9 -88,1 -210,18l-558,77 -14,-197c-6,-78 0,-90 29,-129 58,-79 8,-114 -119,-245 -129,-134 -158,-139 -151,-64 22,222 35,466 90,670 24,91 54,167 74,180 21,15 47,8 73,-19 25,-24 45,-30 237,-60l496,-76 85,75c90,80 177,82 224,48 200,-143 236,-336 282,-454 73,-184 125,-173 119,-202 -13,-55 -191,-158 -239,-193 -129,-94 -261,-188 -294,-191z"/>
		<use xlink:href="#萬a"/>
	</g>
	<g id="五萬" transform="scale(0.1)">
		<path fill="#011" d="m1206,345c-39,0 -53,22 -69,105 -12,58 -32,112 -76,197 -71,137 -123,211 -318,445 -79,95 -143,179 -143,188 0,21 25,18 106,-9 81,-27 173,-77 253,-129l-52,522c-6,63 56,107 107,85 44,-18 69,-60 82,-107l243,-10c67,-2 455,-55 716,-42 207,10 201,13 235,-20 24,-23 30,-37 30,-69 0,-36 -6,-46 -57,-94 -67,-63 -102,-92 -138,-90 -69,3 -97,72 -140,76l-66,7 24,-93c22,-85 45,-151 117,-203 45,-33 49,-52 23,-106 -22,-47 -119,-158 -148,-159 -54,-2 -92,56 -151,66l-123,20 41,-268c49,-11 109,-18 198,-18 166,0 191,-6 190,-70 0,-86 -130,-179 -239,-178 -129,0 -227,78 -449,80 -15,0 -29,0 -41,0 -8,-11 -18,-22 -26,-32 -43,-48 -104,-94 -129,-94zm138,337c37,14 77,21 113,21 10,-1 20,-1 29,-2l-42,265c-63,13 -88,14 -130,22 -82,16 -91,108 -4,151 31,15 70,0 107,-6l-53,325 -253,26 55,-502c44,-57 82,-116 116,-175 23,-41 44,-83 62,-125zm430,402c62,1 38,108 23,164l-45,169 -172,18 52,-327 129,-23c5,-1 9,-1 13,-1z"/>
		<use xlink:href="#萬a"/>
	</g>
	<g id="六萬" transform="scale(0.1)">
		<path fill="#011" d="m1396,405c-51,1 -59,29 -59,111l-1,258 -203,31c-68,11 -203,4 -252,-1 -119,-12 -176,-45 -165,35 16,112 152,202 270,197 269,-13 548,-107 843,-113 320,-7 340,82 430,-15 60,-65 13,-166 -98,-219 -116,-53 -174,-23 -379,22l-132,30c12,-80 44,-196 17,-268 -12,-30 -182,-70 -271,-68zm253,630c-53,34 -14,135 24,187 112,148 161,174 76,203 -116,40 -76,48 64,128 75,43 195,144 240,142 54,-3 77,-79 76,-167 -4,-188 -127,-336 -324,-472 -45,-31 -109,-52 -156,-21zm-498,59c-34,12 -31,39 -9,107 43,138 -147,288 -260,378 -108,86 -46,117 93,88 50,-10 113,-27 178,-59 132,-66 248,-180 302,-334 13,-38 -10,-72 -95,-126 -65,-40 -147,-75 -209,-54z"/>
		<use xlink:href="#萬a"/>
	</g>
	<g id="七萬" transform="scale(0.1)">
		<path fill="#011" d="m1319,385c-17,0 -34,3 -50,8 -37,11 -11,75 -11,160 1,150 -9,324 -8,461l-229,55c-79,19 -119,27 -212,27 -155,0 -169,14 -169,86 0,53 56,107 154,148 76,31 153,29 217,3 80,-31 241,-94 241,-94l-2,161c0,59 28,110 56,160 66,122 271,144 369,150 224,11 295,4 348,-23 64,-34 105,-146 73,-249l-50,-158c-22,-70 -53,-103 -69,-6 -12,74 -20,116 -67,149 -40,29 -95,54 -174,56 -175,3 -234,-14 -229,-137l8,-173 246,-68c92,-25 230,-41 316,-25 56,10 87,1 102,-30 28,-62 3,-124 -76,-191 -69,-58 -89,-63 -140,-59 -84,6 -233,93 -309,113 -43,12 -129,36 -129,36l15,-195c8,-111 57,-247 -9,-289 -64,-40 -139,-78 -212,-76z"/>
		<use xlink:href="#萬a"/>
	</g>
	<g id="八萬" transform="scale(0.1)">
		<path fill="#011" d="m779,1430c165,-139 259,-254 389,-493 64,-119 19,-127 157,-31 143,99 119,60 27,192 -136,197 -262,391 -418,448 -238,86 -348,46 -155,-116zm1200,119c-141,-30 -183,-86 -393,-501 -186,-366 -186,-366 -265,-403 -46,-21 -67,-66 -31,-99 82,-75 234,-20 285,43 85,105 157,236 222,334 77,115 267,348 389,419 184,106 304,174 234,199 -125,43 -283,42 -441,8z"/>
		<use xlink:href="#萬a"/>
	</g>
	<g id="九萬" transform="scale(0.1)">
		<path fill="#011" d="m1244,367c-54,13 -50,18 -50,224l-1,261c-79,23 -170,41 -256,49 -84,8 -150,39 -164,78 -9,27 -6,32 41,73 72,63 165,131 220,101l112,-60c-28,92 -74,174 -125,250 -74,111 -154,188 -265,283 -159,135 -78,148 82,74 167,-77 278,-176 383,-330 48,-70 85,-149 115,-229l53,-146 252,-121 -125,305c-45,107 -55,224 -16,314 62,144 160,185 430,178 107,-3 217,-4 292,-34 68,-27 109,-81 108,-114 -2,-84 -22,-173 -46,-279 -43,-190 -85,-196 -93,-12 -5,115 -14,146 -50,182 -32,33 -119,43 -215,43 -198,1 -248,10 -238,-130 5,-72 37,-130 63,-183l141,-288c17,-33 43,-68 24,-89 -36,-40 -157,-113 -196,-118 -57,-8 -82,1 -137,50 -35,32 -100,64 -154,84 7,-97 13,-178 71,-259 53,-74 33,-137 -56,-157 -67,-16 -137,-16 -200,0z"/>
		<use xlink:href="#萬a"/>
	</g>
	<path id="東風" transform="scale(0.1)" fill="#011" d="m1237,660c-80,5 -68,116 -49,176 24,76 41,80 86,125 38,38 99,72 143,96 -89,11 -215,10 -319,3 -52,-3 -56,1 -58,25 -2,18 14,49 57,107 75,103 99,104 151,87l105,-35 3,156 -305,64c-46,10 -78,-18 -101,-34 -46,-32 -68,-32 -87,-2 -21,32 -39,186 -32,273 11,129 127,335 211,449 44,59 62,101 106,84 -268,340 -367,433 -630,570 -229,119 -174,189 -52,167 281,-49 499,-259 611,-375 106,-110 258,-381 300,-366l10,747 -320,-21c-57,-4 -90,16 -49,55 52,50 163,116 248,167 96,58 271,151 296,157 33,7 58,-10 75,-28 28,-30 57,-83 83,-129 24,-43 45,-92 65,-137 12,-27 -9,-38 -29,-39l-190,-13 -15,-790c44,-6 58,21 75,53 109,207 229,417 377,601 66,82 204,122 381,86 288,-58 337,-96 135,-182 -107,-46 -274,-150 -369,-218 -150,-106 -274,-229 -383,-373 18,-4 36,-14 46,-43 31,-84 190,-352 293,-468 67,-75 68,-104 -3,-197 -100,-130 -170,-194 -218,-193 -59,1 -106,50 -164,62l-184,39 -3,-147c61,-5 126,-6 191,-2 79,4 115,-16 134,-57 10,-21 5,-30 -33,-74 -52,-60 -81,-73 -135,-61 -41,10 -70,13 -87,15 -32,-107 -193,-247 -248,-315 -37,-47 -82,-68 -119,-65zm566,835c44,51 -13,170 -46,263 -42,115 -92,253 -136,257l-71,7 -5,-208c101,-21 129,-13 141,-112 12,-101 -78,-55 -143,-45l-3,-143 172,-37c55,-12 72,-4 91,18zm-445,52 4,143c-196,54 -275,36 -185,144 47,56 16,75 189,19l4,187 -153,34c-73,16 -113,-82 -146,-191 -28,-94 -70,-262 31,-283z"/>
	<path id="南風" transform="scale(0.1)" fill="#011" d="m1364,795c-36,0 -48,27 -33,98 5,23 17,60 13,104l-42,463 -326,83c-117,30 -125,32 -130,55 -4,25 81,111 143,141 98,48 130,17 156,9l128,-39 -35,282 -105,15 -53,-75c-49,-70 -120,-26 -94,35l25,58 -182,27c-63,9 -140,-12 -197,15 -35,16 -54,68 -45,133 37,270 78,544 182,779 35,78 76,142 105,147 14,3 62,-22 93,-43 58,-40 121,-197 101,-283 -36,-158 -156,-264 -214,-376 -50,-97 -67,-156 -39,-165 89,-27 182,-37 273,-56l22,51c9,20 19,33 24,41 5,6 25,13 25,13 -46,-6 -95,-12 -129,-1 -31,10 -37,44 -38,66 0,38 41,63 86,71 43,7 139,-13 209,-24l17,95c-151,23 -201,-13 -254,13 -23,12 -19,58 7,89 44,52 74,56 188,24 14,-4 42,-10 78,-14 0,0 21,146 63,200 45,58 130,38 154,24 30,-18 -3,-64 -11,-109 -8,-47 -11,-136 -11,-136 44,-3 96,-11 198,-7 138,5 184,-4 168,-33 -91,-165 -247,-111 -375,-86l-3,-94c83,-14 175,-28 256,-29 58,-1 52,-16 -14,-78 -56,-52 -99,-18 -161,-3l122,-200c18,-4 178,-41 266,-54 43,-6 79,13 85,52 32,213 -23,447 -52,664 -12,94 -22,118 -68,118 -36,0 -74,-22 -167,-100 -65,-55 -95,-54 -91,30 2,29 11,61 24,91 56,126 220,335 323,328 204,-15 210,-278 275,-584 63,-297 59,-475 96,-559 46,-102 11,-161 -124,-254 -110,-75 -148,-95 -171,-87 -10,3 -46,37 -80,75 -34,38 -46,66 -82,75l-127,31 22,-39c22,-39 -53,-97 -91,-123 -53,-36 -96,-65 -111,-49 -4,4 -3,39 -4,78 0,65 -13,110 -32,168l-186,30 108,-333 182,-55c64,-19 136,-25 186,-32 148,-20 -118,-232 -179,-215l-106,30 40,-105c19,-49 49,-63 49,-100 0,-57 -29,-108 -103,-184 -75,-78 -202,-177 -227,-177zm180,1315 -63,179 -191,16c0,0 22,-17 19,-32 -2,-15 -14,-37 -29,-57l-33,-46z"/>
	<path id="西風" transform="scale(0.1)" fill="#011" d="m1793,1030c-61,2 -105,45 -153,60 -40,12 -107,28 -257,66 -133,35 -259,53 -380,59 -125,5 -190,-41 -200,27 -16,101 136,195 219,209 88,14 140,-16 196,-37 97,-35 269,-81 269,-81l-62,540 -160,39c-26,-78 -36,-129 -98,-213 -43,-60 -108,-130 -145,-130 -46,0 -110,48 -117,87 -8,46 16,76 45,103 47,44 86,109 111,190l-111,21c-61,11 -97,20 -145,20 -77,-1 -132,-20 -164,2 -36,23 -36,156 -36,199 -1,113 56,287 138,453 68,137 129,230 173,273 29,29 57,53 63,53 11,0 19,-8 70,-71 13,-16 25,-38 33,-53 45,17 66,13 98,5l557,-138c26,51 40,77 74,130 33,52 68,79 104,84 55,7 105,-12 143,-55 14,-15 35,-53 58,-95 102,-192 170,-421 211,-612 7,-33 25,-84 40,-112 48,-85 38,-122 -58,-215 -77,-76 -197,-170 -227,-169 -40,2 -32,63 -244,110l-199,42 57,-513c0,0 30,-3 64,-5 90,-6 231,40 260,-88 12,-55 -42,-110 -123,-151 -43,-22 -75,-35 -104,-34zm260,918c24,24 33,60 -7,221 -49,198 -87,323 -119,393 -17,37 -74,25 -121,-3 -55,-32 -65,-15 -379,63l-327,81c112,-223 148,-351 176,-610l129,-29 -27,200c-5,32 9,56 54,63 52,8 66,27 66,59 0,18 -9,49 -21,68 -44,76 -1,84 111,21 109,-62 209,-172 209,-231 0,-47 -40,-74 -109,-74 -36,0 -96,37 -86,-35l16,-125 351,-89c30,-7 66,9 84,27zm-982,197c-9,129 -36,311 -71,457 -65,-65 -170,-291 -170,-338 0,-33 9,-55 53,-67z"/>
	<path id="北風" transform="scale(0.1)" fill="#011" d="m1587,915c-37,0 -77,25 -121,78 -71,85 -71,91 -9,212 25,49 50,73 56,115 6,39 8,85 8,126l-184,227c1,-65 2,-145 3,-172 2,-41 16,-74 -1,-97 -34,-47 -159,-117 -209,-106 -22,5 -26,13 -26,39 0,38 -112,240 -157,321l-31,55 -56,-14c-82,-21 -120,-9 -139,16 -25,30 -22,66 10,151 16,40 39,106 51,148 30,97 52,141 71,137 8,-1 33,-27 47,-61 47,-106 43,-150 38,-271l187,-181 5,290 -191,238c-93,115 -113,78 -186,-39 -71,-116 -109,-175 -123,216 -5,157 52,312 210,323 53,4 98,-94 121,-136l171,-305 2,195c1,164 9,197 36,227 49,52 105,34 144,-68 22,-58 28,-189 27,-282l-4,-402 184,-296 2,923c0,75 -4,139 4,180 20,105 72,140 193,150 88,8 182,3 92,108 -78,91 -83,119 -4,124 149,11 360,-94 484,-197 77,-64 125,-189 8,-280 -66,-51 -226,-53 -324,-20 -235,80 -255,67 -253,-56l3,-244c154,-118 273,-249 409,-364 125,-106 157,-172 86,-313 -36,-72 -149,-213 -181,-228 -40,-18 -55,14 -70,92 -26,130 -38,280 -122,380 -25,30 -76,94 -118,127l2,-182c1,-106 8,-217 14,-313 11,-196 14,-204 82,-287 67,-81 -2,-135 -39,-167 -81,-70 -162,-117 -202,-117z"/>
	<path id="中元" transform="scale(0.1)" fill="#b00" d="m1531,3356c-42,-16 -56,-70 -64,-110 -35,-167 -22,-184 -35,-636l-12,-407 -214,53c-45,11 -87,14 -109,-14 -84,-108 -188,-302 -292,-479 -104,-177 -191,-246 -179,-284 18,-56 93,-82 146,-81 40,0 80,14 114,39 70,51 99,76 261,29l236,-68 -45,-346c-11,-86 -45,-187 -47,-307 -2,-137 68,-106 148,-63 84,45 282,121 323,184 18,28 17,49 1,74 -33,51 -66,101 -79,156 -20,80 -19,177 -17,250 61,-11 120,-32 181,-57 119,-49 124,-82 217,-12l260,193c96,70 42,124 -17,213l-291,436c-47,70 -58,71 -92,71 -29,0 -58,-13 -106,-40 -49,-28 -84,-12 -157,3l-10,517c-8,424 -10,557 -21,599 -11,45 -49,107 -100,87zm-118,-1340 -15,-403l-315,75 159,364zm442,-52 77,-269c43,-150 31,-158 -41,-170 -55,-9 -166,28 -221,43l-7,420z"/>
	<path id="發元" transform="scale(0.1)" fill="#050" d="m1829,3013c-75,-73 -140,-135 -227,-213 -54,38 -117,73 -178,92 -56,17 -153,48 -196,3 -43,-45 -9,-62 69,-112 58,-37 173,-111 173,-111 -38,-28 -131,-78 -124,-113 10,-52 63,-51 104,-50 56,1 112,29 155,47l82,-100 -138,-15c-53,-6 -127,-10 -147,-31 -33,-34 -34,-56 -10,-87 15,-18 53,-25 139,-28 131,-5 224,-46 258,-28 54,30 103,73 131,123 23,40 17,67 -38,129 -35,39 -85,82 -117,115 41,31 100,71 116,82 126,90 150,359 54,375 -24,4 -52,-27 -106,-78zm-896,33c-73,-50 -83,-131 -142,-203 -49,-59 -58,-81 -35,-101 29,-25 66,-26 94,-7 28,19 85,45 132,35 29,-6 81,-55 109,-107 37,-69 71,-139 41,-155 -69,-36 -167,25 -222,-19 -43,-33 -47,-122 -7,-149 53,-36 137,-31 192,-34 10,-38 26,-97 10,-107l-102,-1c-64,-1 -130,-18 -125,-85 6,-72 105,-94 148,-100l98,-14c5,-29 29,-98 6,-107 -38,-16 -68,5 -116,-4 -19,-4 -39,-26 -50,-44 -114,161 -222,370 -366,482 -101,79 -158,66 -102,-29l299,-509c-66,-30 -147,-51 -189,-105 -22,-28 0,-76 28,-89 69,-30 160,-3 256,19l89,-170c-44,5 -89,4 -127,4 -78,-1 -110,-89 -90,-142 14,-37 14,-37 84,-43 78,-6 127,-29 204,-96 57,-50 82,-69 119,-63 82,14 119,96 158,141 64,-53 86,-66 160,-125 34,-26 45,-51 34,-97 -22,-88 -4,-99 48,-117 64,-22 146,36 190,73 44,37 47,90 -6,138l-145,132 100,92c35,-28 100,-63 107,-115 7,-56 29,-108 54,-122 34,-18 51,-11 118,42 69,54 93,94 93,150 0,57 -50,116 -110,123 -62,8 -78,4 -144,55 51,58 249,313 390,445 116,109 366,244 444,320 91,88 -117,131 -210,133 -211,5 -336,-154 -437,-305 -88,-132 -161,-209 -228,-289 -45,64 -49,103 -57,155 -8,53 -8,91 15,91 36,0 64,-57 95,-51 38,8 71,73 78,106 10,51 7,70 -36,94 -27,16 -86,34 -139,35 -58,1 -115,-19 -136,-40 -33,-35 -18,-78 -17,-112l7,-186 -78,2 -14,129c-11,104 -27,146 -76,192 -22,20 -35,19 -69,17l-63,-3 -37,127c27,15 59,32 59,63 1,87 -38,191 -81,294 -54,128 -129,252 -203,331 -43,46 -56,54 -100,25zm455,-1029c11,-74 -7,-141 -42,-204 -39,72 -74,135 -92,184 47,5 54,26 61,34 12,13 7,48 -2,97 52,-8 68,-62 75,-111zm-42,-274c58,-72 89,-99 175,-54 68,35 100,17 184,-13 -136,-184 -326,-205 -385,-371l-280,397c67,18 103,31 158,-3 79,-49 97,-10 148,44z"/>
	<path id="白元" fill="#011" d="M50,50V60 90 100 200 300 310 340 350H150 250V340 310 300 200 100 90 60 50H150ZM60,60H124V90H60ZM134,60H142V90H134ZM158,60H166V90H158ZM176,60H240V90H176ZM68,68V82H116V68ZM184,68V82H232V68ZM60,100H90V175H60ZM100,100H150 200V200 300H150 100V200ZM210,100H240V175H210ZM68,108V167H82V108ZM218,108V167H232V108ZM60,185H90V192H60ZM210,185H240V192H210ZM60,208H90V215H60ZM210,208H240V215H210ZM60,225H90V300H60ZM210,225H240V300H210ZM68,233V292H82V233ZM218,233V292H232V233ZM60,310H124V340H60ZM134,310H142V340H134ZM158,310H166V340H158ZM176,310H240V340H176ZM68,318V332H116V318ZM184,318V332H232V318Z"/>
	<g id="春花" transform="scale(0.1)">
		<path fill="#011" d="m715,625 -85,1 -180,189 70,66 86,-91v399h110z"/>
		<path fill="#b00" d="m2074,425c-25,0 -48,8 -67,23 -34,26 -34,35 5,68 15,14 38,37 38,55l0,17 -53,10c-82,17 -143,-58 -161,-2 -20,63 74,120 164,105l52,-9 -2,380 -84,13c-131,19 -170,22 -226,-4 -29,-13 -56,-21 -61,-18 -22,14 -8,65 30,104 32,34 61,58 109,38 61,-25 112,-36 164,-44l-61,126 -56,-6c-71,-7 -34,72 -13,98 30,39 34,41 74,35 22,-3 96,-26 163,-52 159,-61 169,-59 203,53 12,41 19,40 56,40 88,0 86,-91 39,-155l-96,-132c-17,-24 -59,-40 -65,-6 -12,64 11,103 -67,110l-105,7 32,-131c117,-10 236,-26 336,-26 52,0 62,4 80,-15 24,-23 24,-68 0,-80 -158,-79 -180,-83 -181,-32 0,47 -13,54 -84,62l-85,9 -2,-153 124,-57c40,-19 49,-38 22,-77 -20,-28 -35,-25 -84,4l-62,37 -1,-138 99,-8c84,-6 124,-10 129,-48 10,-69 -84,-62 -126,-58l-103,11c1,-70 40,-65 36,-97 -6,-35 -36,-38 -61,-47 -17,-7 -33,-10 -49,-10zm-121,364c-20,0 -50,2 -97,5 -126,6 -137,14 -94,60 19,20 31,23 100,23 101,0 130,-10 129,-49 -1,-29 -5,-38 -38,-39zm17,154c-16,-1 -44,12 -97,14 -87,3 -135,8 -96,59 20,25 77,6 103,2 40,-7 121,-1 108,-54 -3,-15 -8,-21 -18,-21z"/>
		<path fill="#b00" d="m1478,1413c-47,2 -92,29 -137,87l-48,61c-18,-8 -55,-24 -97,-42 -44,-19 -88,-32 -130,-41 -37,49 -73,105 -92,160 -23,67 -36,138 -42,209 -48,9 -99,29 -122,67 -31,49 -26,128 -7,178 26,67 69,119 123,157 54,37 90,58 140,81 0,49 8,101 19,143 13,51 29,102 44,153l110,-5c55,-2 106,-6 162,-15 58,-8 98,-32 145,-60 44,33 90,71 134,93 60,31 119,45 183,70l74,-74c32,-33 63,-88 67,-144 3,-42 -9,-89 -27,-115l101,-23c77,-17 127,-58 150,-121 21,-57 25,-116 -1,-166 -28,-55 -64,-80 -111,-114 22,-42 40,-98 51,-140 12,-44 20,-91 30,-136 -77,-33 -164,-60 -238,-65 -77,-5 -142,6 -218,16 0,0 -72,-104 -112,-146 -53,-56 -104,-70 -151,-68zm7,75c43,-2 87,44 109,74 29,39 45,67 76,110 -27,43 -56,85 -87,126 -30,-3 -54,2 -84,11 -16,-38 -36,-85 -58,-116 -26,-36 -50,-56 -80,-90 0,0 25,-42 42,-61 23,-26 51,-53 82,-54zm-386,88c68,23 141,54 191,90 66,47 95,107 130,176 0,0 -40,29 -56,46 -18,18 -48,58 -48,58 -44,-31 -95,-52 -139,-68 -52,-19 -104,-29 -160,-35 0,0 15,-91 28,-135 15,-49 32,-90 54,-132zm836,103c67,2 114,25 178,45 -11,47 -22,101 -40,143 -22,51 -49,107 -88,142 -40,35 -89,44 -165,56 0,0 -50,-97 -73,-132 -31,-49 -84,-101 -84,-101l40,-63c24,-39 32,-54 60,-67 49,-21 116,-23 172,-23zm-378,207c92,6 159,128 185,203 20,55 0,91 -42,114 -96,52 -231,73 -313,-1 -35,-32 -51,-93 -14,-165 36,-71 100,-156 184,-151zm-410,63c54,14 86,32 135,67 -11,23 -17,47 -22,72 0,0 -98,42 -131,69 -40,33 -51,82 -51,82l-79,-47c-42,-24 -93,-75 -115,-126 -45,-102 8,-131 72,-138 61,-6 127,3 191,21zm932,74c34,24 71,52 79,90 8,44 -7,90 -33,120 -51,58 -123,60 -195,76 -39,-35 -77,-69 -116,-103 15,-23 20,-44 19,-72 48,-6 104,-9 144,-28 42,-19 68,-50 102,-83zm-812,159c13,50 44,85 87,107 62,32 124,35 194,34 -9,50 -20,105 -48,144 -30,42 -86,62 -131,71 -61,12 -121,7 -184,6 0,0 -14,-59 -21,-88 -15,-59 -18,-126 -10,-183 7,-61 53,-69 113,-91zm487,74c38,36 80,75 112,109 35,38 67,84 54,133 -13,53 -45,80 -81,119 -43,-17 -94,-29 -131,-51 -44,-27 -79,-53 -122,-83 22,-56 34,-116 44,-176 44,-12 84,-30 124,-51z"/>
		<path fill="#050" d="m671,2319c-33,21 -47,58 -52,95 -4,32 -6,103 -4,157l4,76c-17,12 -37,27 -55,34 -28,10 -55,8 -82,12 5,41 29,80 54,104 30,30 68,52 93,63 77,33 243,64 320,59 34,-2 58,-10 90,-17l40,25 -99,96c0,0 -46,-23 -71,-28 -55,-11 -150,-13 -230,0 -71,12 -137,38 -173,74 25,35 54,67 87,95 0,13 -13,28 -51,71 -76,84 -133,162 -140,189 -7,30 4,55 35,67 41,16 144,14 215,1 56,-11 78,-24 128,-53 27,52 54,92 90,136 41,-43 82,-94 110,-140 37,-61 58,-120 69,-185 11,-65 -6,-105 -24,-162l126,-116 80,50c34,22 -5,54 -18,65 -83,67 -93,85 -93,168 0,49 56,147 104,188 51,43 120,100 161,123 24,13 47,-3 56,-26 28,-67 52,-125 79,-188l56,20c100,36 62,-22 42,-65 -26,-59 -45,-106 -88,-143l-49,-44 48,-52c62,56 131,110 188,151 96,67 196,129 295,179 105,53 230,89 331,105l107,-319c0,0 -136,-31 -201,-54 -65,-23 -190,-82 -190,-82 0,0 183,-41 272,-66 97,-26 288,-88 288,-88l-174,-163c0,0 68,-79 101,-121 30,-38 84,-119 84,-119 -93,4 -189,10 -273,20 -87,11 -171,33 -205,51 -39,21 -105,74 -127,115 -54,97 -94,180 -134,275l-386,-284 -94,45c-40,18 -124,56 -148,78 -22,20 -28,55 -15,66l26,24 -42,49 -115,-87c-22,-17 -26,-35 -34,-67 -25,-97 -87,-168 -213,-267 -43,-35 -85,-63 -121,-97 -34,-31 -53,-57 -78,-93zm34,178 49,33c24,16 71,46 111,77 42,31 84,66 110,105 22,35 33,72 48,113 -41,7 -87,17 -125,18 -65,1 -130,-11 -182,-34 -39,-16 -81,-45 -108,-72l102,-60zm1783,81 -139,160 120,114c0,0 -153,46 -236,64 -86,19 -257,56 -257,56 38,-84 69,-167 113,-241 46,-75 114,-106 193,-120 71,-12 141,-21 206,-33zm-1008,178 77,59c112,85 233,163 351,236 87,54 174,101 261,139l150,64 -50,115c-83,-34 -176,-70 -252,-102 -91,-38 -179,-78 -266,-127 -57,-32 -168,-116 -224,-167 -57,-51 -104,-95 -159,-149zm-718,315c54,2 110,11 148,35 48,30 46,108 29,157 -16,47 -44,94 -66,129 -24,-36 -44,-73 -60,-105 -38,37 -60,57 -116,78 -39,15 -64,20 -86,20 -67,3 -89,5 -43,-55 55,-71 144,-162 144,-162l-78,-73c42,-11 85,-25 128,-24zm630,75c30,9 68,23 86,49 9,12 13,29 4,48l-56,112c-20,40 -30,51 -41,44 -43,-29 -153,-96 -154,-169 -1,-35 19,-63 51,-77 36,-16 75,-18 110,-7z"/>
	</g>
	<g id="夏花" transform="scale(0.1)">
		<path fill="#011" d="m747,572c-70,-2 -159,47 -197,95 -41,52 -57,93 -10,121 47,29 78,-5 113,-46 24,-27 67,-51 102,-42 41,11 61,67 37,92 -69,74 -126,98 -205,164 -34,28 -48,45 -65,79 -22,45 -22,91 -22,139l426,0v-117l-250,-1c42,-48 97,-89 142,-123 102,-79 144,-142 115,-230 -28,-83 -105,-128 -186,-131z"/>
		<path fill="#b00" d="m2190,441c-30,-4 -61,9 -87,20 -45,17 -94,27 -155,31 -71,5 -117,3 -135,19 -26,25 -1,53 17,80 23,33 43,24 186,-1 34,-6 68,-14 102,-23l-96,138 -115,-20c-19,-3 -36,17 -35,27l13,85 -46,8c-25,5 -54,11 -97,11 -109,0 -119,11 -63,72 36,40 54,41 116,26l92,-21c-16,90 -80,145 -128,187 -111,106 -127,136 -75,136 48,0 109,-47 172,-110 39,-40 66,-75 102,-123l98,101c-66,69 -150,116 -210,146 -40,21 -95,47 -95,51 34,20 71,35 99,24 66,-24 121,-54 172,-88 31,-20 61,-42 91,-67 20,27 51,63 87,96 55,49 119,92 148,99 76,18 163,8 163,-19 0,-5 -19,-22 -42,-37 -38,-24 -102,-57 -161,-97 -44,-30 -95,-70 -131,-99 13,-13 26,-28 40,-44 28,-35 69,-63 25,-114 -10,-12 -28,-22 -47,-23 -26,-3 -43,20 -52,39 -12,24 -26,49 -41,73l-103,-94 49,-71c56,-12 108,-17 168,-14 72,3 114,5 133,-26 25,-41 -26,-71 -58,-72 -26,-1 -41,-2 -68,-7l-85,-14c17,-25 57,-84 89,-119 60,-65 69,-86 30,-121 -23,-21 -51,-43 -67,-45z"/>
		<path fill="#b00" d="m1826,1612c-91,16 -191,43 -264,88l-16,-50c-66,68 -141,135 -202,201 -64,68 -112,137 -139,220 -137,-85 -292,-85 -441,-83 29,153 86,303 159,429 114,197 290,250 483,208 0,0 54,49 76,78 128,162 331,191 516,105 106,-50 223,-85 327,-101 -82,-214 -163,-281 -337,-392 10,-42 26,-84 27,-126 5,-112 -12,-226 -9,-332l-50,23c-29,-108 -60,-184 -130,-268zm-36,84c46,66 75,141 94,210 -42,20 -110,49 -132,55 -7,-36 -11,-70 -24,-102 -34,7 -64,19 -91,37 -23,-37 -38,-72 -49,-120 67,-41 128,-63 202,-80zm-271,115c11,49 27,95 54,137 -65,65 -120,126 -163,198 -18,31 -33,63 -48,95 -31,72 -53,167 -21,242 -91,-112 -96,-272 -54,-395 43,-127 129,-206 232,-277zm162,146c11,107 3,206 -29,300 -7,21 -15,41 -24,61 -50,106 -126,202 -183,169 -71,-42 -27,-171 -8,-222 10,-31 24,-61 41,-89 50,-86 125,-172 203,-219zm224,14c24,90 32,188 12,276 -23,107 -83,201 -163,267 -59,47 -137,66 -218,45 76,-40 129,-121 168,-209 9,-22 17,-44 25,-66 28,-84 33,-173 31,-257 27,-11 93,-38 145,-56zm-1028,100c111,0 218,33 309,83 -23,140 -1,292 100,386 -79,5 -143,-21 -195,-64 -63,-52 -108,-128 -140,-201 -30,-66 -51,-135 -74,-204zm1077,324c113,58 189,139 248,246 -93,10 -174,60 -261,90 -175,61 -268,42 -390,-89 244,11 298,-68 403,-247z"/>
		<path fill="#050" d="m636,2620c-24,0 -16,18 44,98 88,117 170,247 225,362 44,91 98,186 148,263 39,59 78,109 121,159 28,32 57,58 65,58 18,0 51,-29 51,-45 0,-7 -26,-43 -58,-81 -115,-137 -167,-233 -203,-373 -21,-83 -26,-214 -9,-271 23,-79 0,-82 -57,-5 -25,34 -38,75 -55,114 -22,-32 -49,-70 -67,-99 -57,-94 -155,-180 -205,-180zm526,159c-20,-2 -36,16 -32,51 20,170 84,316 148,459 30,68 72,127 115,186 12,17 26,29 39,23 42,-18 13,-80 -6,-115 -98,-177 -168,-358 -211,-545 -8,-39 -34,-58 -53,-59zm260,62c-16,2 -34,-2 -27,64 8,81 24,151 37,209 24,101 149,390 190,406 48,18 48,-21 0,-137 -62,-151 -128,-333 -138,-435 -7,-76 -29,-112 -62,-107zm863,145c-99,1 -190,63 -252,120 -33,31 -100,94 -100,94l-74,-78c-58,-62 -149,-102 -184,-102 -25,0 -59,30 -42,37 34,12 110,66 131,98 45,71 77,173 51,237 -19,47 -17,48 -2,82 34,76 62,-6 80,-37 115,-200 282,-335 382,-345 84,-8 198,26 229,83 36,68 69,45 40,-26 -44,-107 -154,-165 -259,-163z"/>
	</g>
	<g id="秋花" transform="scale(0.1)">
		<path fill="#011" d="m690,565c-48,1 -95,21 -126,51 -24,24 -38,46 -41,77 -3,31 18,55 49,56 28,2 36,-21 49,-41 28,-43 46,-48 89,-49 29,0 85,11 84,72 0,46 -34,77 -106,77l-77,0v55 55c0,0 50,-1 76,-2 83,-1 108,29 118,72 15,68 -50,91 -107,87 -37,-2 -77,-2 -97,-53 -9,-25 -28,-47 -53,-47 -26,0 -51,22 -48,49 6,44 28,89 61,117 41,34 94,38 150,39 107,0 190,-69 198,-172 5,-66 -26,-133 -102,-148 58,-19 84,-61 87,-106 3,-64 -28,-125 -76,-158 -38,-26 -89,-32 -128,-31z"/>
		<path fill="#b00" d="m2163,437c-11,14 -14,33 -10,60 9,57 13,116 15,173 2,76 3,148 -10,215 -19,98 -59,189 -124,281 -76,107 -12,71 41,23 70,-63 123,-151 150,-234 33,45 75,92 72,133 -1,14 -10,18 -27,23 31,50 102,157 170,147 89,-17 58,-140 22,-187 -30,-37 -77,-80 -130,-115 -16,-11 -65,-49 -89,-68 5,-19 11,-57 14,-76 69,34 138,12 164,-60 16,-43 27,-91 2,-131 -24,-40 -64,-34 -73,4 -13,51 -29,85 -85,82 2,-37 4,-73 5,-109 3,-104 -9,-133 -66,-166 -16,-9 -31,-8 -41,5zm-324,37c-5,13 4,34 2,54 -5,67 -86,110 -135,156 49,0 89,-13 126,-24l1,97c-30,11 -59,21 -91,27 -74,13 -115,41 -100,69 24,44 65,58 148,28 15,-6 46,-17 46,-17 1,33 -17,69 -42,103 -35,45 -86,80 -120,97 -64,31 -183,80 -42,73 79,-4 165,-52 213,-99 1,44 0,79 2,123 2,27 -1,85 31,79 27,-5 39,-59 48,-141 2,-17 3,-89 0,-160 22,14 52,18 77,12 -5,11 -3,31 5,39 17,19 31,21 50,8 36,-27 41,-86 50,-130 11,-57 -18,-80 -54,-104 8,-27 -6,-51 -58,-48 -28,2 -54,7 -78,14l-3,-95c68,-29 155,-75 98,-112 -26,-17 -61,-45 -97,-58 -25,-9 -66,-20 -77,9zm189,329 -5,74c-28,-19 -73,-28 -101,-35 31,-5 66,-11 86,-23 8,-5 14,-10 20,-16z"/>
		<path fill="#b00" d="m1873,1992c-43,25 -109,89 -139,132 -80,-46 -170,-84 -233,-118 -65,20 -139,40 -190,77 -50,36 -135,151 -68,201 28,21 58,8 87,0 -27,43 -34,94 -36,139 -4,103 40,190 102,259 47,51 103,93 159,113 60,22 132,22 185,-3 87,-39 139,-101 175,-178 134,34 271,45 368,-34 78,-64 95,-188 83,-286 -15,-136 -120,-278 -243,-321 -83,-29 -180,-22 -250,19zm229,83c88,41 155,144 162,247 7,108 -32,191 -104,221 -47,20 -168,6 -219,-18 12,-60 8,-123 -7,-177 -19,-67 -60,-124 -107,-161 35,-46 67,-87 110,-108 57,-28 114,-27 165,-4zm-705,31c9,-1 19,1 29,5 47,20 28,86 -32,111 -43,18 -65,19 -81,3 -19,-19 -12,-41 16,-70 20,-22 42,-46 68,-49zm397,127c65,62 96,131 94,219 -2,60 -16,123 -49,168 -45,61 -121,98 -204,96 -92,-2 -162,-37 -210,-89 -45,-50 -70,-118 -74,-194 -3,-69 25,-126 66,-174 48,-54 115,-90 183,-94 69,-5 150,25 194,68zm-195,44c-31,0 -46,18 -35,45 4,11 12,14 28,9 55,-16 60,-54 7,-54zm114,41c-11,1 -20,12 -22,22 -3,13 1,17 15,15 10,-2 21,-12 21,-22 1,-14 -5,-15 -14,-15zm-229,12c-4,2 -3,13 0,21 7,20 41,20 36,0 -5,-18 -21,-29 -36,-21zm292,50c-3,0 -6,1 -11,2 -33,10 -41,22 -26,39 24,29 66,11 55,-24 -4,-12 -9,-17 -18,-17zm-322,32c-2,0 -4,5 -7,16 -3,13 -6,31 -6,41 0,18 24,24 34,9 3,-5 -1,-24 -8,-41 -7,-17 -10,-25 -13,-25zm144,26c-12,1 -25,14 -29,26 -10,26 -9,26 25,11 15,-6 21,-15 22,-23 1,-7 0,-15 -18,-14zm156,49c-18,0 -28,17 -21,35 7,19 20,19 35,0 14,-17 6,-35 -14,-35zm-93,80c-18,0 -32,18 -26,33 7,17 22,21 48,10 29,-11 12,-44 -22,-43zm-148,2c-3,0 -6,1 -9,2 -13,5 -14,9 -4,21 14,16 50,20 50,6 0,-14 -21,-28 -37,-29z"/>
		<path fill="#050" d="m1262,1170c-68,65 -134,133 -190,206 -50,65 -93,133 -121,207 -22,58 -32,119 -20,181 -44,-47 -94,-95 -148,-134 -77,-54 -160,-95 -229,-138 -2,86 -5,166 8,245 14,83 33,168 77,234 38,59 87,116 145,159 39,29 81,47 120,66 27,13 94,60 119,78 -11,121 -11,225 22,308 36,91 88,151 151,207 46,41 105,76 146,129 51,66 106,131 170,180 -19,8 -36,16 -53,26 -116,-97 -252,-200 -385,-260 -159,-71 -332,-126 -454,-159 42,118 140,218 225,292 55,48 123,86 192,135 -112,24 -208,77 -283,146 -71,66 -127,128 -167,216 98,14 215,10 322,-15 99,-23 191,-64 249,-129 32,-36 56,-92 73,-165 23,1 46,-3 69,-18l61,40c-58,66 -106,138 -151,207 -33,53 -61,106 -73,158 66,7 129,2 188,-16 64,-20 125,-53 180,-91 57,-40 104,-83 136,-136 25,-42 40,-91 58,-138 89,58 188,85 276,125 99,45 195,93 280,156 20,14 37,26 57,40 25,-43 48,-88 65,-125 44,-101 51,-125 46,-156 -9,-48 -69,-86 -200,-126 -166,-50 -291,-97 -442,-165 -181,-82 -262,-115 -413,-160 -131,-40 -202,-99 -247,-221 -36,-97 -34,-210 5,-330 43,-130 76,-171 122,-204 79,-57 151,-132 185,-220 40,-105 63,-130 127,-128 36,1 73,8 105,24 82,42 149,56 241,75 71,63 153,114 238,151 89,38 191,46 283,48 92,2 86,-5 41,-89 -51,-95 -132,-151 -215,-204 70,-38 308,-274 121,-264 -53,4 -99,11 -141,26 -68,24 -126,65 -191,120 -47,41 -87,89 -129,137l-64,-17c-56,-14 -119,-22 -166,-54 -34,-24 -41,-25 -133,-20 -98,6 -158,21 -161,52 -5,70 -16,133 -52,177 -33,41 -82,103 -121,121 -41,19 -68,62 -86,87 -16,20 -30,41 -43,62 -33,-15 -63,-33 -81,-60 22,-41 29,-93 78,-146 71,-76 128,-157 165,-245 39,-92 47,-181 44,-267 -3,-74 -16,-147 -31,-221zm-47,196c15,4 23,28 23,72 0,78 -23,153 -49,221 -31,81 -101,148 -163,187 -34,-87 -33,-177 -3,-256 26,-68 74,-131 121,-180 32,-34 55,-49 71,-44zm1046,148c11,0 19,1 23,5 15,18 -30,69 -68,95 -38,26 -94,60 -113,32 -19,-27 10,-67 51,-93 23,-15 76,-36 107,-39zm-1563,172c19,0 47,16 82,50 100,95 190,275 172,345 -5,21 -12,26 -39,25 -74,-1 -175,-117 -220,-252 -36,-108 -32,-167 5,-168zm1433,60c28,0 65,12 94,24 46,19 88,67 76,89 -12,23 -74,9 -123,-14 -49,-23 -100,-54 -84,-84 6,-11 20,-15 37,-15zm-670,1146c10,-1 24,3 44,8 94,25 165,66 243,104 133,67 268,136 421,187 148,49 179,78 148,136 -16,30 -53,17 -153,-32 -122,-59 -239,-91 -339,-135 -123,-53 -226,-110 -320,-154 -61,-29 -60,-30 -62,-70 -2,-32 2,-43 18,-44zm-492,24c100,13 201,55 265,133 34,41 -2,71 -37,62 -90,-25 -207,-69 -254,-153 -16,-29 4,-45 26,-42zm623,234c31,0 47,24 28,56 -60,100 -149,210 -260,245 -82,26 -79,-17 -51,-66 58,-102 146,-181 247,-227 13,-6 25,-9 36,-8zm-489,37c45,-2 60,32 40,62 -68,98 -183,149 -295,167 -77,13 -90,-4 -45,-71 65,-96 185,-154 300,-158z"/>
	</g>
	<g id="冬花" transform="scale(0.1)">
		<path fill="#011" d="m802,599 -199,280c-63,89 -70,107 -69,176l2,37h241l-1,127h116v-128l76,1 -1,-91 -75,1v-403zm-26,230v172h-120z"/>
		<path fill="#b00" d="m1969,450c-21,0 -41,9 -44,31 -10,177 -90,236 -158,325 57,-7 95,-25 139,-62 25,41 51,73 84,105 -11,14 -39,53 -82,91 -51,45 -135,116 -180,144 -34,21 -61,47 -61,59 -1,23 92,-6 169,-50 63,-36 132,-82 178,-128 29,-30 39,-39 47,-47 39,42 85,84 123,116 56,45 112,90 174,117 59,25 100,25 172,-6 68,-29 54,-38 -14,-70 -83,-39 -174,-73 -249,-112 -55,-29 -101,-66 -142,-102 32,-27 76,-68 108,-115 45,-68 67,-141 35,-179 -24,-29 -45,-41 -87,-42 -48,-1 -93,10 -142,18 6,-18 1,-38 -8,-57 -11,-21 -35,-34 -58,-36 -1,0 -3,0 -4,0zm147,167c65,0 30,53 2,89 -40,51 -61,71 -69,79 -36,-36 -62,-71 -89,-111 8,-11 16,-22 23,-33l87,-18c16,-3 29,-5 39,-5 3,0 5,-1 7,-1zm-46,410c-1,0 -2,0 -3,0 -7,1 -13,8 -18,19 -4,11 -6,25 -4,42 7,58 -7,73 -19,72 -21,-3 -12,30 -4,67 14,58 14,78 -7,96 -12,9 -23,14 -37,13 18,32 33,58 62,78 15,12 34,21 51,27 37,14 58,3 84,-25 46,-48 19,-100 -22,-137 -54,-49 -56,-63 -32,-93 30,-38 16,-106 -29,-148 -8,-7 -16,-11 -22,-11z"/>
		<path fill="#b00" d="m1684,1321c-46,-1 -106,20 -131,53 -40,55 -46,110 -27,162 -41,-18 -77,-23 -109,-13 -36,12 -68,42 -87,77 -33,64 -23,108 7,143 28,32 79,52 132,53 -9,15 -17,32 -22,49 -20,61 6,127 55,155 50,29 100,23 149,-1 29,-14 43,-41 60,-71 30,29 73,46 116,43 48,-4 95,-32 120,-66 20,-29 27,-69 14,-117 -4,-14 -11,-28 -19,-41 21,-16 40,-33 56,-53 33,-40 36,-108 17,-155 -22,-54 -72,-79 -126,-77 -31,1 -49,6 -74,17 -2,-47 -8,-85 -40,-118 -24,-25 -56,-39 -91,-40zm-19,68c47,0 83,38 82,85 -2,47 -41,85 -88,85 -47,0 -84,-38 -82,-85 1,-47 41,-85 88,-85zm219,137c44,0 78,36 77,80 -1,44 -38,80 -83,80 -44,0 -79,-36 -77,-80 1,-44 38,-80 83,-80zm-415,44c47,0 84,38 82,85 -2,47 -41,85 -88,85 -47,0 -84,-38 -82,-85 1,-47 41,-85 88,-85zm205,43c33,0 59,27 58,60 -1,33 -28,60 -62,60 -33,0 -59,-27 -58,-60 1,-33 29,-60 62,-60zm137,134c47,0 84,38 82,84 -1,47 -41,85 -88,85 -47,0 -83,-38 -82,-85 2,-46 41,-84 88,-84zm-219,45c47,0 84,38 82,85 -1,47 -41,85 -88,85 -47,0 -83,-38 -82,-85 2,-47 41,-85 88,-85z"/>
		<path fill="#050" d="m502,1608c23,70 58,135 77,215 23,94 45,195 76,278 27,71 63,145 124,234 99,148 180,247 330,333 -108,30 -220,63 -322,91 -128,35 -242,67 -377,99 139,92 255,168 443,146 120,-14 233,-38 336,-66 -50,92 -99,169 -153,247 -81,118 -152,248 -214,365 200,-58 332,-139 474,-260 129,-110 236,-243 325,-373 68,-2 142,17 197,40 109,46 162,84 161,115 -1,23 -16,28 -69,14 -59,-7 -167,-51 -220,-69 -13,29 -20,86 -14,136 9,78 46,165 85,204 81,79 209,94 303,93 99,-1 159,11 222,21 63,9 108,14 159,16 -7,-44 -14,-93 -19,-133 -7,-57 -15,-154 13,-242 31,-101 38,-188 20,-259 -21,-86 -87,-149 -154,-188 -73,-43 -153,-48 -241,-48 9,-85 24,-175 49,-247 22,-61 51,-116 86,-168 49,-74 109,-141 178,-206 83,-80 151,-163 190,-255 51,-120 47,-120 -40,-67 -57,34 -116,74 -177,106 -90,48 -183,87 -254,142 -75,57 -138,127 -184,197 -75,115 -129,221 -164,324 6,-112 10,-219 10,-314 0,-26 -1,-46 -3,-52 -7,-29 -28,-36 -49,-16 -10,9 -13,24 -16,71 -7,104 -14,219 -17,314 -44,-65 -93,-130 -145,-192 -85,-100 -175,-193 -259,-265 -48,-41 -135,-116 -205,-129 4,149 67,294 100,427 -77,-105 -130,-170 -186,-262 -63,-103 -150,-212 -231,-283 -41,-36 -162,-111 -245,-134zm155,171c60,45 98,104 139,164 70,101 132,211 210,313 69,91 157,169 241,242 44,37 81,68 123,112l-155,37c-144,-77 -275,-201 -352,-337 -65,-114 -115,-242 -160,-355 -24,-59 -35,-121 -46,-176zm1773,32c-43,60 -90,120 -142,164 -108,89 -180,195 -237,318 -47,102 -61,169 -75,274 -15,117 -11,244 0,339 -132,-61 -161,-157 -157,-288 3,-92 22,-183 56,-268 42,-103 107,-199 172,-283 47,-61 102,-100 163,-137 71,-43 148,-78 220,-119zm-1228,223c60,33 130,100 166,135 69,68 153,158 205,224 26,34 84,122 96,145l1,65c-101,9 -179,-67 -242,-136 -56,-62 -115,-150 -149,-230 -25,-58 -51,-141 -77,-203zm480,680c13,65 35,104 67,145 -163,-22 -340,-47 -494,-17 -189,36 -407,130 -593,38 204,-54 409,-123 597,-166 144,-33 288,-34 423,0zm479,-6c34,1 68,7 98,23 68,36 131,101 136,160 6,70 -16,125 -30,177 -31,114 -60,224 -38,337 -49,-17 -102,-33 -155,-36 -70,-4 -142,9 -198,0 -48,-8 -90,-31 -138,-71 -49,-40 -82,-113 -68,-145 10,-25 32,-23 78,6 15,10 49,16 94,16 88,2 134,-21 157,-76 14,-35 16,-44 -13,-130 -29,-87 -32,-171 -26,-257 33,-3 68,-6 103,-4zm-760,203c34,0 67,1 101,2 -50,75 -104,163 -171,234 -95,102 -208,180 -310,227 51,-87 105,-162 153,-241 43,-71 81,-146 121,-217 37,-3 72,-5 106,-5z"/>
	</g>
	<g id="梅花" transform="scale(0.1)">
		<path fill="#011" d="m899,440c-14,-1 -25,9 -31,41 -9,57 -14,87 -29,118 -4,8 -9,17 -13,25 -39,18 -61,29 -139,45 2,-35 7,-70 28,-99 17,-26 12,-64 -3,-84 -17,-23 -40,-30 -64,-29 -8,0 -17,2 -25,3 -45,10 -97,32 -94,76 1,25 5,48 30,54 14,3 21,9 23,16 2,4 -1,47 -2,78 -38,5 -73,11 -98,1 -32,-12 -61,4 -60,38 0,15 10,42 21,60 11,18 17,28 29,29 40,4 60,-2 103,-12l-4,40c-3,25 -29,45 -86,84 -95,66 -115,88 -101,109 20,31 37,43 75,22 36,-20 70,-46 104,-69 -3,51 0,105 -11,151 -5,17 -19,32 -53,34 -33,3 -63,-5 -97,-9 39,58 77,110 113,164 15,22 32,33 49,31 51,-7 88,-67 90,-105 7,-110 7,-202 13,-304 28,37 54,58 87,58 -27,61 -42,121 -15,177 15,32 20,35 48,29 38,-8 151,-17 218,-20 17,-1 57,-3 88,-4 -4,23 -11,51 -25,62 -25,19 -57,19 -80,14 -109,-22 -105,-22 -58,48 72,105 76,121 161,64 50,-35 87,-75 100,-130 3,-15 7,-31 10,-46 26,3 52,6 62,6 43,0 62,-40 35,-70 -11,-11 -25,-20 -32,-20 -5,0 -25,-1 -45,-3 7,-34 14,-67 21,-101 23,7 47,14 58,14 26,-1 52,-5 58,-12 30,-30 0,-106 -60,-118 -11,-3 -21,-1 -31,1 4,-20 8,-42 13,-61 7,-31 -8,-61 -23,-81 -31,-44 -72,-30 -114,-27 -29,2 -57,4 -85,6 -168,13 -199,23 -204,55 -6,45 -34,92 -60,139 -39,-37 -82,-77 -115,-107l2,-51c46,-17 61,-20 78,-30 -10,19 -25,25 -37,45 29,-17 107,-44 164,-97 29,-5 76,-15 122,-17 262,-13 319,-43 239,-122 -23,-23 -42,-33 -65,-33 -18,0 -37,7 -62,19 -33,16 -89,27 -131,35 15,-22 25,-40 29,-52 5,-26 -27,-43 -78,-64 -20,-8 -32,-13 -41,-14zm283,370 -24,100 -94,9 25,-99zm-164,18 -34,98 -99,9 41,-95zm119,175 -25,105 -95,-1 25,-101zm-182,6 -34,98 -91,-1c-2,-33 15,-63 26,-93z"/>
		<path fill="#b00" d="m2348,529 -85,1 -180,189 69,66 86,-90v400h111z"/>
		<path fill="#b00" d="m1182,1773c-38,2 -74,16 -95,47 -41,61 -98,119 -154,159 -69,49 -79,87 -46,182 16,45 17,61 7,139 -10,82 -9,92 9,122 11,17 46,49 78,70 31,21 69,56 84,78 37,57 79,79 148,79 53,0 60,3 81,31 13,18 35,38 49,45 34,19 48,18 116,-5 33,-11 80,-20 105,-20 45,0 49,-4 111,-71 48,-52 71,-70 91,-70 14,0 37,-11 50,-24 20,-20 24,-35 23,-79 -1,-36 7,-74 23,-111 31,-74 29,-112 -7,-167 -19,-29 -32,-66 -37,-103 -16,-113 -43,-165 -142,-196 -30,-9 -60,-18 -78,-42 -36,-49 -119,-63 -203,-33 -46,17 -43,18 -103,-11 -30,-14 -71,-23 -110,-20zm37,99c23,-2 46,5 72,17 49,21 51,21 168,2 33,-5 46,0 106,39 38,25 84,51 102,58 43,17 56,49 49,122 -5,54 -3,60 27,95 35,42 42,87 20,132 -8,15 -16,47 -20,72 -9,55 -30,80 -59,84 -27,3 -51,21 -72,53 -35,57 -80,73 -141,77 -77,4 -104,16 -131,-28 -26,-41 -43,-51 -120,-43 -58,5 -59,-6 -87,-53 -17,-30 -48,-64 -67,-78 -88,-66 -93,-62 -59,-159 14,-37 24,-72 10,-100 -30,-61 -24,-85 39,-146 31,-30 74,-75 96,-102 22,-27 44,-39 67,-42zm155,236c-83,0 -151,67 -151,150 0,84 68,151 151,151 83,0 150,-67 150,-151 0,-83 -67,-150 -150,-150z"/>
		<path fill="#050" d="m2249,1987c-70,1 -28,75 -8,123 16,41 41,128 52,178 -35,35 -66,72 -76,112 -23,97 11,202 49,277 -55,-37 -116,-84 -182,-79 -78,7 -110,78 -130,141 -22,72 -32,161 4,198 74,78 113,54 229,35l-13,96c-46,8 -90,17 -131,17 -120,-1 -155,-27 -257,-75 -153,65 -288,96 -423,94 -64,-1 -127,-11 -192,-23 0,-32 -3,-81 -4,-95 -4,-38 -17,-61 -48,-62 -25,-1 -46,33 -52,79 0,7 0,34 0,57 -34,-8 -67,-18 -98,-28 20,-47 32,-100 32,-148 -1,-59 -22,-105 -84,-139 -49,-27 -106,2 -143,30 -50,39 -72,89 -105,148 -42,-23 -72,30 -77,58 -8,35 15,44 73,67 29,11 85,27 114,37 -48,75 -103,153 -171,157 -55,3 -71,24 -67,58 4,27 19,43 36,48 30,10 63,8 94,-3 7,32 14,67 20,78 31,58 81,115 135,129 44,12 92,-7 127,-59 47,-71 33,-215 -27,-287 -6,-7 -31,-32 -48,-50l14,-31c62,18 124,34 185,47 53,11 106,20 158,27 -21,48 -41,104 -41,153 1,88 81,174 164,169 92,-6 133,-98 142,-177 6,-47 -5,-93 -12,-137 41,-2 84,-6 129,-11 62,92 214,169 308,154 122,-19 242,44 314,129 71,86 77,90 149,73 91,-21 50,-38 -50,-154 -43,-49 -93,-80 -145,-111 -53,-31 -98,-56 -147,-69 43,-1 84,-5 116,-12 145,-28 159,-23 219,79 32,56 94,133 132,179 32,38 61,36 102,27 28,-5 54,-18 55,-48 0,-8 -32,-48 -72,-90 -63,-67 -91,-119 -149,-233 -21,-41 -43,-60 -76,-66 -28,-4 -56,-4 -83,-3 8,-87 24,-219 40,-284 25,19 51,39 76,53 53,31 97,49 116,49 32,0 81,-42 105,-91 53,-108 -22,-450 -125,-515 -39,-24 -75,-32 -109,-28 -13,-44 -29,-99 -34,-123 -17,-80 -15,-116 -94,-124 -6,-1 -11,-1 -16,-1zm149,368c44,1 86,52 104,103 21,58 63,273 -10,280 -44,4 -94,-54 -127,-106 -47,-76 -69,-173 -45,-217 23,-45 51,-61 78,-60zm-294,364c44,8 70,27 116,46l-13,81c-42,16 -125,48 -150,18 -11,-12 -11,-24 -1,-62 14,-58 26,-87 48,-83zm-1217,167c1,38 -18,75 -40,102 -18,-8 -46,-20 -64,-27 13,-24 29,-56 45,-83 23,-40 57,-33 59,8zm878,249c58,35 120,52 183,75 -26,4 -69,17 -109,17 -58,0 -87,-30 -118,-71 14,-8 29,-15 44,-21zm-411,77 30,1c8,46 19,82 14,124 -4,40 -15,68 -51,69 -33,1 -48,-31 -40,-76 8,-44 30,-84 47,-118zm-540,33c33,32 66,80 61,124 -3,24 -23,47 -50,42 -54,-11 -59,-71 -68,-114 21,-16 40,-33 57,-52z"/>
	</g>
	<g id="蘭花" transform="scale(0.1)">
		<path fill="#011" d="m1019,500c-43,-3 -67,35 -50,106 14,55 12,73 -26,112 -59,62 -8,60 44,48 20,-5 45,-15 73,-29 75,-37 95,-59 94,-106 0,-33 -7,-46 -42,-80 -35,-33 -68,-49 -93,-51zm-388,76c-34,4 -37,42 -37,61 1,72 40,146 88,165 31,13 42,11 93,-15 41,-21 80,-66 96,-96 39,-70 -10,-65 -58,-57 -69,11 -92,10 -120,-19 -27,-28 -45,-42 -62,-39zm592,172c-32,1 -64,15 -99,27 -102,36 -202,75 -303,83 -95,8 -178,11 -278,3 -39,-4 -45,-3 -42,26 6,75 78,117 137,110 63,-9 129,-34 184,-45 73,-15 156,-26 204,-30 44,-3 107,8 84,74 58,-13 152,-34 202,-84 41,-41 25,-79 0,-114 -28,-39 -58,-51 -89,-50zm-360,255c-25,-1 -48,1 -68,8 28,68 92,138 155,159 31,10 65,9 89,-9 15,-12 19,-32 10,-53 -32,-72 -93,-97 -162,-104 -8,-1 -16,-1 -24,-1zm-55,181c-31,-3 -28,8 -18,30 38,88 109,155 190,191 68,29 133,-27 93,-85 -57,-80 -172,-126 -265,-136z"/>
		<path fill="#b00" d="m2306,575c-71,-2 -160,47 -198,95 -40,52 -57,93 -10,122 47,28 78,-6 114,-47 23,-27 67,-51 101,-42 42,11 62,67 38,93 -70,74 -127,98 -206,165 -33,28 -48,44 -65,79 -22,45 -22,91 -22,139l426,1v-118l-249,-1c42,-49 96,-89 141,-124 103,-79 144,-143 115,-231 -27,-84 -105,-128 -185,-131z"/>
		<path fill="#b00" d="m1790,1913c-29,1 -55,10 -75,27 -27,25 -15,69 18,143 50,111 22,216 7,343 130,36 252,65 248,183 -1,56 -6,173 52,160 137,-31 249,-253 189,-374 -36,-73 -107,-119 -183,-148 40,-59 32,-163 -2,-212 -47,-69 -166,-126 -254,-122zm85,380c10,-84 11,-191 -28,-262 75,13 106,45 111,85 8,55 -36,125 -83,177zm228,280c-18,-94 -69,-187 -164,-205 79,-37 139,-18 172,25 36,46 37,121 -8,180z"/>
		<path fill="#050" d="m1552,1279c-16,1 -33,11 -41,28 -24,49 -43,133 -68,331 -7,51 -10,128 -13,176 -94,142 -155,331 -173,485 -17,145 1,289 28,436 -18,-16 -37,-32 -56,-49 -55,-233 -108,-496 -115,-731 -2,-88 -22,-138 -57,-133 -66,9 -66,105 -69,155 -9,203 41,403 83,587 -98,-58 -200,-80 -296,3 -107,94 -101,388 3,615 54,116 178,259 203,234 19,-20 0,-94 -53,-200 -79,-161 -93,-203 -94,-323 -1,-66 3,-197 76,-205 53,-6 140,33 206,89 34,29 121,125 195,214 178,216 347,380 467,453 100,60 149,71 167,36 11,-21 0,-62 -47,-171 -105,-263 -189,-509 -239,-763 -44,-225 -77,-464 -85,-680 69,-114 179,-171 314,-164 233,11 295,118 382,245 40,59 57,71 84,56 24,-13 24,-17 5,-92 -102,-210 -257,-347 -465,-350 -122,-1 -219,39 -321,112 3,-32 7,-76 13,-142 6,-61 21,-207 8,-231 -8,-16 -25,-23 -42,-21zm-105,783c32,199 44,416 84,596 56,249 121,433 236,636 -243,-190 -312,-372 -362,-643 -39,-207 -16,-412 42,-589z"/>
	</g>
	<g id="菊花" transform="scale(0.1)">
		<path fill="#011" d="m1007,425c-24,0 -44,15 -45,47 -3,61 -82,139 -127,184 -20,3 -40,5 -60,6 32,-28 53,-82 55,-118 2,-37 -15,-48 -38,-17 -26,33 -51,11 -79,-16 -47,-46 -91,-15 -76,55 8,35 28,79 59,101 -11,0 -23,1 -32,1 -60,0 -110,10 -121,29 -13,34 50,82 108,79 19,0 38,-2 57,-4l1,70c-26,5 -53,10 -81,13 -96,9 -154,28 -140,51 26,45 78,68 136,57 27,-5 56,-11 86,-19l1,70c-29,6 -57,10 -88,10 -53,1 -132,1 -115,40 14,31 45,47 79,53 -30,20 -65,55 -84,94 -29,57 -31,123 15,139 73,26 113,-32 126,-93 10,-47 4,-105 3,-139 22,-2 46,-8 65,-12 2,91 -14,186 17,264 27,69 76,90 105,-14 15,-54 9,-103 8,-162 34,61 81,120 125,164 50,50 72,64 108,43 56,-31 128,-244 138,-403 6,-111 -8,-141 -83,-177 -57,-22 -103,-28 -154,-27 -49,1 -94,9 -139,19l0,-63c70,-15 140,-31 203,-35 103,-4 137,-15 125,-47 -13,-34 -54,-60 -93,-58 -21,1 -44,6 -66,12 39,-23 82,-80 83,-113 1,-21 -10,-46 -29,-62 -15,-13 -32,-21 -48,-22 -1,0 -3,0 -5,0zm-55,473c5,0 9,0 14,0 38,2 72,17 90,53 16,30 15,47 10,116 -3,49 -6,91 -35,124 -38,43 -100,-18 -151,-47 -16,-9 -29,-13 -39,-14l0,-49c3,0 7,0 11,0 51,1 87,3 111,-11 47,-29 1,-98 -64,-91 -22,2 -41,6 -60,9l0,-74c41,-8 80,-16 113,-16z"/>
		<path fill="#b00" d="m2247,528c-48,1 -96,21 -127,51 -23,24 -38,47 -41,78 -3,30 18,54 49,56 28,1 36,-21 49,-42 28,-43 46,-48 89,-49 29,0 85,12 85,73 -1,45 -35,77 -107,77l-77,-1v55 55c0,0 51,0 76,-1 84,-1 108,29 118,72 16,68 -50,91 -107,87 -36,-2 -77,-2 -97,-53 -9,-25 -28,-47 -52,-47 -27,0 -52,22 -48,49 5,44 28,90 61,117 40,34 93,38 149,39 107,1 190,-69 198,-172 5,-66 -26,-133 -101,-148 57,-19 84,-61 86,-107 3,-64 -27,-124 -76,-158 -38,-26 -89,-32 -127,-31z"/>
		<path fill="#b00" d="m1551,1636c-109,2 -177,89 -203,153 -135,-41 -247,-2 -287,74 -40,76 -47,154 32,241 -130,62 -161,172 -132,259 28,88 121,162 224,122 -8,136 87,215 173,233 81,16 179,-29 220,-104 120,141 247,107 334,51 95,-60 104,-218 35,-344 126,-35 161,-191 125,-279 -61,-149 -199,-131 -293,-123 16,-136 -67,-273 -212,-282 -6,-1 -11,-1 -16,-1zm7,90c64,0 115,52 115,115 0,64 -51,115 -115,115 -63,0 -115,-51 -115,-115 0,-63 52,-115 115,-115zm-336,139c58,0 105,47 105,105 0,58 -47,105 -105,105 -58,0 -105,-47 -105,-105 0,-58 47,-105 105,-105zm645,147c61,0 110,50 110,111 0,60 -49,110 -110,110 -60,0 -110,-50 -110,-110 0,-61 50,-111 110,-111zm-344,12c89,0 160,72 160,160 0,89 -71,161 -160,161 -88,0 -160,-72 -160,-161 0,-88 72,-160 160,-160zm-367,178c52,0 95,43 95,95 0,53 -43,95 -95,95 -52,0 -95,-42 -95,-95 0,-52 43,-95 95,-95zm610,155c69,0 125,56 125,125 0,69 -56,125 -125,125 -69,0 -125,-56 -125,-125 0,-69 56,-125 125,-125zm-364,14c69,0 125,56 125,125 0,69 -56,125 -125,125 -69,0 -125,-56 -125,-125 0,-69 56,-125 125,-125z"/>
		<path fill="#050" d="m676,2146c-30,58 -127,160 -147,223 -28,92 -29,181 -9,268 16,71 56,140 117,198 -46,49 -95,87 -127,129 -33,43 -58,92 -59,124 -2,33 0,38 23,40 17,2 48,-9 66,-29 53,-59 83,-139 142,-195 45,-42 79,-48 121,-30 25,11 76,32 101,42 -97,39 -241,111 -258,222 38,11 74,27 102,55 -12,52 -30,104 -39,157 -13,76 -14,151 -9,225 82,-9 150,-38 227,-102 57,-48 77,-64 116,-102 27,20 55,40 82,61 88,-88 128,-297 91,-394 144,48 244,89 383,140 -20,38 -36,69 -58,74 -17,5 -39,-10 -66,-28 -44,-30 -80,-40 -94,-25 -15,15 -13,104 8,169 38,121 223,-15 259,-57 25,-29 75,-88 75,-88 141,44 249,100 338,180 39,34 71,89 103,114 20,16 46,19 57,7 48,-50 28,-92 -7,-134 -59,-70 -131,-119 -196,-176 57,-23 126,-22 192,-34 109,-19 213,-44 283,-103l-80,-107c98,-94 135,-231 157,-361 -92,22 -185,39 -277,46 -105,7 -189,30 -250,81 -73,62 -108,137 -127,211 -19,71 -19,146 -15,220 -373,-136 -746,-276 -1087,-404 55,-86 91,-157 81,-231 -12,-93 -62,-181 -136,-251 -41,-38 -54,-96 -83,-135zm-7,190c58,44 109,105 121,171 18,99 8,175 -64,253 -88,-42 -125,-159 -131,-233 -6,-84 25,-138 74,-191zm1747,422c-35,117 -87,142 -152,177 20,45 43,83 78,116 -101,35 -210,48 -322,54 1,-98 -4,-205 74,-269 111,-91 213,-74 322,-78zm-1378,213c24,10 49,19 73,28 35,108 14,193 -20,294 -22,-18 -51,-34 -91,-50 -55,89 -128,141 -212,190 7,-97 38,-187 86,-267 -23,-31 -55,-58 -88,-69 79,-62 165,-101 252,-126z"/>
	</g>
	<g id="竹花" transform="scale(0.1)">
		<path fill="#011" d="m956,470c-25,0 -20,2 -24,53 -7,77 -38,148 -73,215 -37,70 -85,137 -141,200 -51,59 -54,97 7,58 42,-27 118,-77 191,-138l61,-5c12,98 -17,289 -67,374 -64,105 -90,162 45,105 63,-27 128,-97 154,-198 31,-116 25,-249 26,-299l63,-7c80,-8 92,-32 92,-72 0,-46 -56,-77 -121,-76 -12,0 -56,7 -94,14 32,-44 53,-84 55,-110 4,-50 -97,-114 -174,-114zm-316,49c-31,1 -68,39 -73,101 -6,67 10,134 65,143 58,10 124,-28 154,-78 72,-122 58,-136 -18,-95 -63,34 -74,10 -91,-40 -7,-20 -20,-30 -34,-31 -1,0 -2,0 -3,0zm-145,228c-7,0 -13,2 -21,5 -29,14 -44,49 -44,104 0,52 19,103 49,133 38,38 63,28 135,-52 67,-76 84,-117 47,-117 -21,0 -35,22 -60,20 -21,-1 -32,-8 -50,-40 -20,-36 -37,-53 -56,-53z"/>
		<path fill="#b00" d="m2315,492 -198,281c-63,88 -70,107 -70,175l2,37h242l-2,127h116v-128l77,1 -2,-90 -75,0v-403zm-26,230v173h-119z"/>
		<path fill="#050" d="m1479,1136c-21,0 -43,6 -48,37 -8,49 -12,156 -17,319 -3,98 -10,199 -16,224 -9,34 -9,58 0,99 7,30 13,112 13,182 1,105 -3,140 -21,196 -22,66 -22,68 -4,115 15,38 18,74 17,202 0,85 -7,184 -13,220 -24,124 -16,152 -12,213 3,37 1,94 -1,152l-123,51c-8,-26 -13,-52 -11,-77 4,-69 19,-176 36,-226 26,-77 25,-85 -9,-118 -6,-6 -28,-29 -36,-38 6,-23 10,-45 12,-68 7,-90 -6,-123 -54,-182 -21,-26 -32,-38 -39,-45 27,-60 45,-120 46,-161 3,-60 -73,-137 -157,-146 -4,-1 -9,-1 -13,-1 -32,2 -63,24 -92,55 -88,3 -159,39 -218,92 -109,97 -130,214 -199,330 -25,41 -27,87 -5,95 10,4 51,-11 98,-34 55,-27 115,-61 149,-75 -15,79 -27,158 -51,230 -27,52 -27,69 -1,83 30,16 51,-3 107,-48 22,-17 42,-35 62,-54 9,84 26,227 19,322 -4,44 -3,45 28,48 26,3 31,-6 54,-30 61,-62 117,-133 162,-206 40,103 -4,261 -30,354 -18,-38 -45,-102 -87,-92 -31,7 -36,32 -37,167 -1,86 3,114 19,152 17,38 26,47 45,47 35,0 50,-13 41,-55 -11,-52 -13,-108 -15,-143 43,33 76,65 140,32 36,-19 41,8 5,77 -22,42 -25,54 -15,75 15,34 55,32 98,-6 15,-13 37,-42 54,-62 1,22 5,42 13,57 23,35 52,32 73,-7 13,-27 15,-82 27,-288 7,-105 -4,-168 14,-256l65,-6c29,73 15,155 15,222 -1,116 3,201 11,228 11,39 14,42 46,42 51,0 69,-32 55,-96 -6,-27 -10,-116 -9,-199 2,-83 2,-258 1,-390 0,-132 4,-306 11,-386l12,-145c41,-8 83,-20 122,-37 2,44 3,117 3,175 0,112 -4,147 -24,218 -31,105 -43,201 -53,400 -16,310 -5,392 52,406 41,10 41,-1 39,-75 0,-32 0,-63 1,-95 27,-10 52,-22 76,-37 0,35 -1,87 -1,116 0,99 1,106 24,120 28,19 73,11 80,-13 3,-9 3,-44 1,-77 -3,-46 5,-161 14,-231 18,-14 36,-28 54,-39 52,-33 46,-95 -10,-95 -28,0 -66,18 -140,68 -20,13 -67,40 -91,52 4,-71 9,-141 11,-208 3,-166 6,-182 32,-252 28,-72 26,-83 30,-253 2,-68 0,-175 10,-245 14,-12 28,-25 40,-40 -4,61 3,121 19,178 7,26 36,98 51,172 18,90 -11,186 43,179 58,-15 98,-201 122,-296 13,-51 30,-94 41,-151 35,61 123,147 199,237 57,67 97,110 113,100 16,-9 5,-128 -2,-192 -27,-269 -50,-358 -111,-439 -41,-56 -78,-84 -121,-84 -29,0 -62,14 -92,47 -24,-37 -49,-60 -76,-67 -27,-8 -56,0 -91,21 -13,-25 -37,-54 -56,-61 -45,-16 -102,11 -131,38 -28,24 -74,80 -103,125 -29,44 -59,80 -66,80 -19,0 -18,-59 2,-170 14,-74 18,-105 5,-184 -23,-139 -5,-291 4,-433 3,-36 -24,-33 -45,-35 -25,-1 -49,-1 -55,30 -12,68 -13,330 -8,425 3,47 9,90 -5,127l-99,-1c8,-182 15,-374 18,-540 1,-37 -17,-41 -37,-42 -1,0 -3,0 -4,0zm475,652c2,0 3,0 4,0 7,1 13,4 19,11 44,51 -19,139 -49,184 -34,51 -80,92 -136,116 -47,20 -43,19 -29,-27 9,-28 21,-88 58,-138 25,-33 87,-145 133,-146zm-448,3 83,3c10,64 -9,134 -7,189 3,96 40,173 6,244 -25,-1 -56,-3 -78,-4 -22,-78 1,-164 3,-235 3,-72 -10,-133 -7,-197zm618,42c1,0 2,0 3,1 70,3 51,156 49,179 -5,93 -46,174 -64,219 -22,54 -28,54 -37,5 -17,-83 -28,-161 -26,-226 1,-51 17,-177 75,-178zm182,36c53,1 100,113 115,155 14,37 17,116 20,160 6,85 6,96 -57,27 -36,-41 -76,-88 -91,-137 -24,-73 -32,-190 -3,-202 4,-1 7,-2 11,-3 2,0 3,0 5,0zm-1260,308c1,0 3,0 5,0 7,2 14,6 21,13 41,45 16,122 -19,191 -38,75 -98,143 -130,178 -85,90 -91,86 -65,-25 14,-64 35,-134 62,-198 18,-41 72,-152 121,-159 2,0 3,0 5,0zm-179,64c-37,68 -65,138 -73,168 -15,12 -48,35 -73,51 -73,47 -65,37 -28,-34 42,-80 89,-152 174,-185zm717,62c18,65 -14,159 -14,234 0,129 10,214 -14,324h-65c-31,-111 18,-230 18,-328 0,-83 -17,-158 -2,-228zm-482,183c52,39 70,91 60,152 -13,71 -61,151 -97,194 -61,71 -63,72 -74,-10 -6,-42 -15,-110 -21,-157 49,-56 96,-121 132,-179zm269,725c1,30 -2,65 -5,100 4,-53 -42,-63 -69,-72z"/>
	</g>
</svg>
