<svg width="300" height="400"
	xmlns="http://www.w3.org/2000/svg">
	<path fill="#b00" d="M179.2,52.5C177.6,52.5 175.5,54.1 173.1,57.8 165.5,69.9 153.3,80.9 138.9,86.6 132.8,89 126.6,92.6 121.8,96.4 117.3,99.9 115.2,101.1 111.5,99.5L79.9,85.7C74,83.2 71.2,89.6 75.9,92.9L107.6,115.2C113,119 112.9,119.1 117.3,112.8 121.3,107.3 126.2,102.6 138.6,102.9 151,103.2 159.7,115.5 159.4,127.4 159.1,139.3 149.9,149.9 137.3,149.7 124.7,149.5 119.2,143.3 117.1,136.3 115,129.2 112.4,126.2 108.7,127.4 104.6,128.7 105.1,135.2 104.1,140.1 103.3,144.4 102,149 100.9,153.5 98.5,164.3 98.1,176.3 97.4,186.5 96.9,194.9 96.9,202.9 98.7,211.8 99.8,217.5 101,225.2 97.6,228.7 95.3,231.1 91.2,231.9 88.2,234.4 80,241.4 83.7,244.7 91.9,241.6 100.4,238.5 107.9,232 112.5,225.1 115.2,221 117.1,215.4 119.4,210.3 121.6,205.4 122.8,199.5 123.9,194.7 126.1,184.1 126.2,172.9 126.5,162.5L126.6,159.7 134.5,159.6 134.5,161.6C134.4,166.8 134.4,171.5 134.3,176.7 134.1,180.3 133.8,184.2 133.2,187.7 131,200.2 134.6,200.8 137.5,188.9 138.3,185.5 139,182.1 139.5,177.8 140.2,172.3 140.3,167.7 140.2,162.1L140.2,159.3 148.2,158.1 148.4,161.2C148.9,167.8 148.7,173.2 148.6,179.7 148.6,187.2 144.4,194.2 142.8,200.4 141.8,204.3 144.7,205 147,202.5 152.8,196.1 154.7,187.2 154.9,179.5 155.2,171.9 155.2,167.3 154.7,160L154.5,155.9 160.3,151.7 161.4,154.3C164.3,160.8 164.2,166.2 163.9,172.4 163.7,176.6 163.3,181.4 162.5,184.2 160.3,191.9 164.2,193.9 167.4,185.7 169.2,180.9 169.5,177.2 169.7,172.2 170.1,165 170.5,157.6 166.5,151.1L164.3,147.3 167.3,142.2 172,148.1C175.8,152.8 177,158.1 177.8,164 178.9,172 178.5,179.3 176.4,186.5 174.6,192.7 171.6,198 167.6,201.9 162.3,207 155.6,210.5 149.1,212.8 142.4,215 135.4,216.7 128.9,218.5 119.1,221.3 117.3,226.3 128.6,225.5 135.8,225 144.8,222.5 151,219.9 159.1,216.5 166.4,213 172.4,207.4 178.2,201.9 182.4,195.2 184.2,188 186.4,179.5 186.4,170.4 184.8,162.3 183.6,156 181.2,149.2 177.8,144.2 175.8,141.2 173,138.4 169.4,135.8 170.2,132.9 170.1,129.9 170.1,126.7 170.1,117.4 167.1,110.3 162.1,104.4 159,100.8 155.4,98 151.5,95 153.7,93.6 156.8,91.3 162.1,87.2 169.7,81.2 176.2,72.4 180.7,65.1 183.9,59.9 185.8,52.6 179.2,52.5ZM138,116.9C132.4,116.8 127.8,121.4 127.7,127.1 127.6,132.9 132.1,137.6 137.7,137.7 143.3,137.8 147.9,133.2 148,127.5 148.1,121.7 143.6,117 138,116.9ZM113.7,151.5C117.6,151.6 120.8,154.9 120.7,158.9 120.7,162.9 117.4,166.1 113.4,166 109.5,165.9 106.3,162.6 106.4,158.6 106.5,154.6 109.7,151.5 113.7,151.5ZM113.2,173.7C116.9,173.8 119.8,176.9 119.7,180.6 119.6,184.4 116.6,187.4 113,187.3 109.3,187.3 106.4,184.2 106.4,180.4 106.5,176.7 109.5,173.7 113.2,173.7ZM109.5,196.5C112.8,196.6 115.5,199.4 115.4,202.8 115.4,206.3 112.6,209 109.3,209 105.9,208.9 103.3,206.1 103.3,202.6 103.4,199.2 106.1,196.5 109.5,196.5Z"/>
	<path fill="#050" d="M230.7,147.7C214.5,147.2 206.8,162 202.8,171.6 200.4,177.4 196.3,185.1 193,191.9 186.7,204.5 171.2,216.8 160,221.2 140.5,229 129.6,235.1 121.2,239 109.9,244.4 105.9,247.8 102.4,252.9 100.9,255.1 99.8,257.1 96.8,259.3L92.7,262.2 83.2,261.8C73.7,261.4 69.4,261.9 63.9,266.6 59.9,270.2 57.9,272.4 54.7,280 52.7,284.7 52.2,289 52,291.4 51.6,296.7 55.4,296.9 57.1,292.2 58,289.4 59,285.3 60.5,281.6 62.3,277.4 65.2,272.5 69.6,271.7 73,271 76.8,271.1 80.1,271.6 77.9,273 74.3,275 72.6,276.9 68.4,281.5 64.9,291.7 67.2,294 68.9,295.7 69.3,290.3 72.7,286.6 75.4,283.6 78,281.5 78,281.5L77.6,286.7C75.7,306.8 83.2,301.6 84.5,283.8L84.3,278 89.9,274.7 93.5,286.4C96.8,297.1 101.6,288.3 100.9,277.3L99.8,268.7 108.6,263.4 110,270.1C110.9,274.8 111,276.5 111.8,280.9 113.1,288.4 115.5,293.7 118.1,294.5 124.2,296.2 124.9,286.8 119.2,278.1 117.1,274.9 116.1,269.2 115.9,265.2L115.1,259.5 124.3,253.9 124.9,260.1C126.1,273 128.7,284.1 133.7,295.5 139.7,309.2 146.4,319.6 158.7,329 168.7,336.7 179.9,346.9 192.7,347.5 204.9,348 191.6,338.8 189.4,337.2 181.1,331.5 172.3,326.4 165.2,320.1 155.6,311.5 148.9,302 143.6,291.9 138,281.1 131.8,266.7 131.2,255.3L130.9,249.9 136.4,246.6 139.3,254.1C142,261.3 143.6,268.8 146.2,275.7 150.6,287.6 154.9,293.8 159,293.8 166.5,294 166.3,288.5 157,277 150.8,269.5 147.9,260.5 145.7,251.6L143.3,242.5 149.6,238.7 152.6,248.8C154.2,254.2 155.9,258.9 157.7,264 161.7,275.1 166.6,273.7 164.4,262.7 163.2,256.9 160.8,250.7 159.3,245.9L155.9,234.9 162.8,230.7 164.2,235.1C166.4,242.4 166.2,249.8 167.3,256.7 168.1,262.1 172.7,261.4 173.2,257.2 174.4,248.4 173.7,239.8 172.1,231.7L170.8,225.9 177.2,222.1 178.4,228C179.5,233.8 179.8,239.8 179.5,245.8 179.1,256.1 177.1,266 173.6,273.3 171.1,278.5 170.2,282.3 173.3,283.3 176.6,284.4 180.4,280.2 182.6,274.9 186.3,266.1 187.9,255.6 188.2,247 188.5,240.5 187.8,233.8 186.5,226.4L184.8,217.4C192.7,212.6 198.3,203.2 201.9,195.9 205.7,188.3 208.8,181.5 211.7,174.5 215.6,165.1 222.2,156.5 230.3,156.5 235.7,156.6 239.4,159.5 239.4,163.7 239.3,169.1 236.1,170.9 229.6,170.8 224.1,170.8 220.4,172.6 220,175.6 219.4,179.3 222.1,180.5 230.2,180.8 241.9,181.3 248.7,175.6 249,164.6 249.3,154.3 241.8,148.1 230.7,147.7Z"/>
</svg>
