<svg width="300" height="400" viewBox="-150 -200 300 400"
	xmlns="http://www.w3.org/2000/svg"
	xmlns:xlink="http://www.w3.org/1999/xlink">
	<g opacity="0">
		<path id="a" d="M0,-58A22,22 0,0,0 -22,-36 22,22 0,0,0 -18,-23.5V-12.5A22,22 0,0,0 -22,0 22,22 0,0,0 -18,12.5V23.5A22,22 0,0,0 -22,36 22,22 0,0,0 0,58 22,22 0,0,0 22,36 22,22 0,0,0 18,23.45703V12.49805A22,22 0,0,0 22,0 22,22 0,0,0 18,-12.54297V-23.50195A22,22 0,0,0 22,-36 22,22 0,0,0 0,-58ZM0,-43A7,7 0,0,1 7,-36 7,7 0,0,1 0,-29 7,7 0,0,1 -7,-36 7,7 0,0,1 0,-43ZM0,-23A5,5 0,0,1 5,-18 5,5 0,0,1 0,-13 5,5 0,0,1 -5,-18 5,5 0,0,1 0,-23ZM0,-7A7,7 0,0,1 7,0 7,7 0,0,1 0,7 7,7 0,0,1 -7,0 7,7 0,0,1 0,-7ZM0,13A5,5 0,0,1 5,18 5,5 0,0,1 0,23 5,5 0,0,1 -5,18 5,5 0,0,1 0,13ZM0,29A7,7 0,0,1 7,36 7,7 0,0,1 0,43 7,7 0,0,1 -7,36 7,7 0,0,1 0,29Z"/>
	</g>
	<use xlink:href="#a" fill="#b00" y="-123"/>
	<use xlink:href="#a" fill="#050" x="-80"/>
	<use xlink:href="#a" fill="#011"/>
	<use xlink:href="#a" fill="#050" x="80"/>
	<use xlink:href="#a" fill="#050" x="-80" y="123"/>
	<use xlink:href="#a" fill="#011" y="123"/>
	<use xlink:href="#a" fill="#050" x="80" y="123"/>
</svg>
