<svg width="300" height="400" viewBox="-150 -200 300 400"
	xmlns="http://www.w3.org/2000/svg"
	xmlns:xlink="http://www.w3.org/1999/xlink">
	<g opacity="0">
		<path id="a" d="M0,-80A24,24 0,0,0 -24,-56 24,24 0,0,0 -20,-42.77148V-13.22852A24,24 0,0,0 -20.23633,-12.7832 24,24 0,0,0 -21.73438,-9.96289 24,24 0,0,0 -22.29102,-8.76758 24,24 0,0,0 -23.26367,-5.55273 24,24 0,0,0 -23.55664,-4.45703 24,24 0,0,0 -24,0 24,24 0,0,0 -23.55664,4.45703 24,24 0,0,0 -23.26367,5.55273 24,24 0,0,0 -22.29102,8.76758 24,24 0,0,0 -21.73438,9.96289 24,24 0,0,0 -20.23633,12.7832 24,24 0,0,0 -20,13.22852V42.77148A24,24 0,0,0 -24,56 24,24 0,0,0 0,80 24,24 0,0,0 24,56 24,24 0,0,0 20,42.73633V13.22852A24,24 0,0,0 20.23633,12.7832 24,24 0,0,0 21.73438,9.96289 24,24 0,0,0 22.29102,8.76758 24,24 0,0,0 23.26367,5.55273 24,24 0,0,0 23.55664,4.45703 24,24 0,0,0 24,0 24,24 0,0,0 23.54492,-4.625 24,24 0,0,0 23.52932,-4.70120 24,24 0,0,0 22.21096,-9.07815 24,24 0,0,0 22.15436,-9.20511 24,24 0,0,0 20.03912,-13.18948 24,24 0,0,0 20,-13.26367V-42.77148A24,24 0,0,0 24,-56 24,24 0,0,0 0,-80ZM0,-66A10,10 0,0,1 10,-56 10,10 0,0,1 0,-46 10,10 0,0,1 -10,-56 10,10 0,0,1 0,-66ZM0,-38A5,5 0,0,1 5,-33V-32.58984 -23.4668 -23A5,5 0,0,1 0,-18 5,5 0,0,1 -5,-23V-23.41211 -32.58984 -33A5,5 0,0,1 0,-38ZM0,-10A10,10 0,0,1 10,0 10,10 0,0,1 0,10 10,10 0,0,1 -10,0 10,10 0,0,1 -9.66016,-2.58789 10,10 0,0,1 0,-10ZM0,18A5,5 0,0,1 5,23V23.41211 32.5332 33A5,5 0,0,1 0,38 5,5 0,0,1 -5,33V32.58984 23.41211 23A5,5 0,0,1 0,18ZM0,46A10,10 0,0,1 10,56 10,10 0,0,1 0,66 10,10 0,0,1 -10,56 10,10 0,0,1 0,46Z"/>
	</g>
	<use xlink:href="#a" fill="#011" y="-84"/>
	<use xlink:href="#a" fill="#050" x="-70" y="84"/>
	<use xlink:href="#a" fill="#050" x="70" y="84"/>
</svg>
