<svg width="300" height="400"
	xmlns="http://www.w3.org/2000/svg">
	<path fill="#011" d="M158.7,91.5C155,91.5 151,94 146.6,99.3 139.5,107.8 139.5,108.4 145.7,120.5 148.2,125.4 150.7,127.8 151.3,132 151.9,135.9 152.1,140.5 152.1,144.6L133.7,167.3C133.8,160.8 133.9,152.8 134,150.1 134.2,146 135.6,142.7 133.9,140.4 130.5,135.7 118,128.7 113,129.8 110.8,130.3 110.4,131.1 110.4,133.7 110.4,137.5 99.2,157.7 94.7,165.8L91.6,171.3 86,169.9C77.8,167.8 74,169 72.1,171.5 69.6,174.5 69.9,178.1 73.1,186.6 74.7,190.6 77,197.2 78.2,201.4 81.2,211.1 83.4,215.5 85.3,215.1 86.1,215 88.6,212.4 90,209 94.7,198.4 94.3,194 93.8,181.9L112.5,163.8 113,192.8 93.9,216.6C84.6,228.1 82.6,224.4 75.3,212.7 68.2,201.1 64.4,195.2 63,234.3 62.5,250 68.2,265.5 84,266.6 89.3,267 93.8,257.2 96.1,253L113.2,222.5 113.4,242C113.5,258.4 114.3,261.7 117,264.7 121.9,269.9 127.5,268.1 131.4,257.9 133.6,252.1 134.2,239 134.1,229.7L133.7,189.5 152.1,159.9 152.3,252.2C152.3,259.7 151.9,266.1 152.7,270.2 154.7,280.7 159.9,284.2 172,285.2 180.8,286 190.2,285.5 181.2,296 173.4,305.1 172.9,307.9 180.8,308.4 195.7,309.5 216.8,299 229.2,288.7 236.9,282.3 241.7,269.8 230,260.7 223.4,255.6 207.4,255.4 197.6,258.7 174.1,266.7 172.1,265.4 172.3,253.1L172.6,228.7C188,216.9 199.9,203.8 213.5,192.3 226,181.7 229.2,175.1 222.1,161 218.5,153.8 207.2,139.7 204,138.2 200,136.4 198.5,139.6 197,147.4 194.4,160.4 193.2,175.4 184.8,185.4 182.3,188.4 177.2,194.8 173,198.1L173.2,179.9C173.3,169.3 174,158.2 174.6,148.6 175.7,129 176,128.2 182.8,119.9 189.5,111.8 182.6,106.4 178.9,103.2 170.8,96.2 162.7,91.5 158.7,91.5Z"/>
</svg>
