<svg width="300" height="400"
	xmlns="http://www.w3.org/2000/svg">
	<path fill="#011" d="M136.4,79.5C132.8,79.5 131.6,82.2 133.1,89.3 133.6,91.6 134.8,95.3 134.4,99.7L130.2,146 97.6,154.3C85.9,157.3 85.1,157.5 84.6,159.8 84.2,162.3 92.7,170.9 98.9,173.9 108.7,178.7 111.9,175.6 114.5,174.8L127.3,170.9 123.8,199.1 113.3,200.6 108,193.1C103.1,186.1 96,190.5 98.6,196.6L101.1,202.4 82.9,205.1C76.6,206 68.9,203.9 63.2,206.6 59.7,208.2 57.8,213.4 58.7,219.9 62.4,246.9 66.5,274.3 76.9,297.8 80.4,305.6 84.5,312 87.4,312.5 88.8,312.8 93.6,310.3 96.7,308.2 102.5,304.2 108.8,288.5 106.8,279.9 103.2,264.1 91.2,253.5 85.4,242.3 80.4,232.6 78.7,226.7 81.5,225.8 90.4,223.1 99.7,222.1 108.8,220.2L111,225.3C111.9,227.3 112.9,228.6 113.4,229.4 113.9,230 115.9,230.7 115.9,230.7 111.3,230.1 106.4,229.5 103,230.6 99.9,231.6 99.3,235 99.2,237.2 99.2,241 103.3,243.5 107.8,244.3 112.1,245 121.7,243 128.7,241.9L130.4,251.4C115.3,253.7 110.3,250.1 105,252.7 102.7,253.9 103.1,258.5 105.7,261.6 110.1,266.8 113.1,267.2 124.5,264 125.9,263.6 128.7,263 132.3,262.6 132.3,262.6 134.4,277.2 138.6,282.6 143.1,288.4 151.6,286.4 154,285 157,283.2 153.7,278.6 152.9,274.1 152.1,269.4 151.8,260.5 151.8,260.5 156.2,260.2 161.4,259.4 171.6,259.8 185.4,260.3 190,259.4 188.4,256.5 179.3,240 163.7,245.4 150.9,247.9L150.6,238.5C158.9,237.1 168.1,235.7 176.2,235.6 182,235.5 181.4,234 174.8,227.8 169.2,222.6 164.9,226 158.7,227.5L170.9,207.5C172.7,207.1 188.7,203.4 197.5,202.1 201.8,201.5 205.4,203.4 206,207.3 209.2,228.6 203.7,252 200.8,273.7 199.6,283.1 198.6,285.5 194,285.5 190.4,285.5 186.6,283.3 177.3,275.5 170.8,270 167.8,270.1 168.2,278.5 168.4,281.4 169.3,284.6 170.6,287.6 176.2,300.2 192.6,321.1 202.9,320.4 223.3,318.9 223.9,292.6 230.4,262 236.7,232.3 236.3,214.5 240,206.1 244.6,195.9 241.1,190 227.6,180.7 216.6,173.2 212.8,171.2 210.5,172 209.5,172.3 205.9,175.7 202.5,179.5 199.1,183.3 197.9,186.1 194.3,187L181.6,190.1 183.8,186.2C186,182.3 178.5,176.5 174.7,173.9 169.4,170.3 165.1,167.4 163.6,169 163.2,169.4 163.3,172.9 163.2,176.8 163.2,183.3 161.9,187.8 160,193.6L141.4,196.6 152.2,163.3 170.4,157.8C176.8,155.9 184,155.3 189,154.6 203.8,152.6 177.2,131.4 171.1,133.1L160.5,136.1 164.5,125.6C166.4,120.7 169.4,119.3 169.4,115.6 169.4,109.9 166.5,104.8 159.1,97.2 151.6,89.4 138.9,79.5 136.4,79.5ZM154.4,211 148.1,228.9 129,230.5C129,230.5 131.2,228.8 130.9,227.3 130.7,225.8 129.5,223.6 128,221.6L124.7,217Z"/>
</svg>
