<svg width="300" height="400"
	xmlns="http://www.w3.org/2000/svg">
	<path fill="#011" d="M123.7,66C115.7,66.5 116.9,77.6 118.8,83.6 121.2,91.2 122.9,91.6 127.4,96.1 131.2,99.9 137.3,103.3 141.7,105.7 132.8,106.8 120.2,106.7 109.8,106 104.6,105.7 104.2,106.1 104,108.5 103.8,110.3 105.4,113.4 109.7,119.2 117.2,129.5 119.6,129.6 124.8,127.9L135.3,124.4 135.6,140 105.1,146.4C100.5,147.4 97.3,144.6 95,143 90.4,139.8 88.2,139.8 86.3,142.8 84.2,146 82.4,161.4 83.1,170.1 84.2,183 95.8,203.6 104.2,215 108.6,220.9 110.4,225.1 114.8,223.4 88,257.4 78.1,266.7 51.8,280.4 28.9,292.3 34.4,299.3 46.6,297.1 74.7,292.2 96.5,271.2 107.7,259.6 118.3,248.6 133.5,221.5 137.7,223L138.7,297.7 106.7,295.6C101,295.2 97.7,297.2 101.8,301.1 107,306.1 118.1,312.7 126.6,317.8 136.2,323.6 153.7,332.9 156.2,333.5 159.5,334.2 162,332.5 163.7,330.7 166.5,327.7 169.4,322.4 172,317.8 174.4,313.5 176.5,308.6 178.5,304.1 179.7,301.4 177.6,300.3 175.6,300.2L156.6,298.9 155.1,219.9C159.5,219.3 160.9,222 162.6,225.2 173.5,245.9 185.5,266.9 200.3,285.3 206.9,293.5 220.7,297.5 238.4,293.9 267.2,288.1 272.1,284.3 251.9,275.7 241.2,271.1 224.5,260.7 215,253.9 200,243.3 187.6,231 176.7,216.6 178.5,216.2 180.3,215.2 181.3,212.3 184.4,203.9 200.3,177.1 210.6,165.5 217.3,158 217.4,155.1 210.3,145.8 200.3,132.8 193.3,126.4 188.5,126.5 182.6,126.6 177.9,131.5 172.1,132.7L153.7,136.6 153.4,121.9C159.5,121.4 166,121.3 172.5,121.7 180.4,122.1 184,120.1 185.9,116 186.9,113.9 186.4,113 182.6,108.6 177.4,102.6 174.5,101.3 169.1,102.5 165,103.5 162.1,103.8 160.4,104 157.2,93.3 141.1,79.3 135.6,72.5 131.9,67.8 127.4,65.7 123.7,66ZM180.3,149.5C184.7,154.6 179,166.5 175.7,175.8 171.5,187.3 166.5,201.1 162.1,201.5L155,202.2 154.5,181.4C164.6,179.3 167.4,180.1 168.6,170.2 169.8,160.1 160.8,164.7 154.3,165.7L154,151.4 171.2,147.7C176.7,146.5 178.4,147.3 180.3,149.5ZM135.8,154.7 136.2,169C116.6,174.4 108.7,172.6 117.7,183.4 122.4,189 119.3,190.9 136.6,185.3L137,204 121.7,207.4C114.4,209 110.4,199.2 107.1,188.3 104.3,178.9 100.1,162.1 110.2,160Z"/>
</svg>
