<svg width="300" height="400"
	xmlns="http://www.w3.org/2000/svg">
	<path fill="#011" d="M179.3,103C173.2,103.2 168.8,107.5 164,109 160,110.2 153.3,111.8 138.3,115.6 125,119.1 112.4,120.9 100.3,121.5 87.8,122 81.3,117.4 80.3,124.2 78.7,134.3 93.9,143.7 102.2,145.1 111,146.5 116.2,143.5 121.8,141.4 131.5,137.9 148.7,133.3 148.7,133.3L142.5,187.3 126.5,191.2C123.9,183.4 122.9,178.3 116.7,169.9 112.4,163.9 105.9,156.9 102.2,156.9 97.6,156.9 91.2,161.7 90.5,165.6 89.7,170.2 92.1,173.2 95,175.9 99.7,180.3 103.6,186.8 106.1,194.9L95,197C88.9,198.1 85.3,199 80.5,199 72.8,198.9 67.3,197 64.1,199.2 60.5,201.5 60.5,214.8 60.5,219.1 60.4,230.4 66.1,247.8 74.3,264.4 81.1,278.1 87.2,287.4 91.6,291.7 94.5,294.6 97.3,297 97.9,297 99,297 99.8,296.2 104.9,289.9 106.2,288.3 107.4,286.1 108.2,284.6 112.7,286.3 114.8,285.9 118,285.1L173.7,271.3C176.3,276.4 177.7,279 181.1,284.3 184.4,289.5 187.9,292.2 191.5,292.7 197,293.4 202,291.5 205.8,287.2 207.2,285.7 209.3,281.9 211.6,277.7 221.8,258.5 228.6,235.6 232.7,216.5 233.4,213.2 235.2,208.1 236.7,205.3 241.5,196.8 240.5,193.1 230.9,183.8 223.2,176.2 211.2,166.8 208.2,166.9 204.2,167.1 205,173.2 183.8,177.9L163.9,182.1 169.6,130.8C169.6,130.8 172.6,130.5 176,130.3 185,129.7 199.1,134.3 202,121.5 203.2,116 197.8,110.5 189.7,106.4 185.4,104.2 182.2,102.9 179.3,103ZM205.3,194.8C207.7,197.2 208.6,200.8 204.6,216.9 199.7,236.7 195.9,249.2 192.7,256.2 191,259.9 185.3,258.7 180.6,255.9 175.1,252.7 174.1,254.4 142.7,262.2L110,270.3C121.2,248 124.8,235.2 127.6,209.3L140.5,206.4 137.8,226.4C137.3,229.6 138.7,232 143.2,232.7 148.4,233.5 149.8,235.4 149.8,238.6 149.8,240.4 148.9,243.5 147.7,245.4 143.3,253 147.6,253.8 158.8,247.5 169.7,241.3 179.7,230.3 179.7,224.4 179.7,219.7 175.7,217 168.8,217 165.2,217 159.2,220.7 160.2,213.5L161.8,201 196.9,192.1C199.9,191.4 203.5,193 205.3,194.8ZM107.1,214.5C106.2,227.4 103.5,245.6 100,260.2 93.5,253.7 83,231.1 83,226.4 83,223.1 83.9,220.9 88.3,219.7Z"/>
</svg>
