<svg width="300" height="400"
	xmlns="http://www.w3.org/2000/svg">
	<path fill="#011" d="M120.6,34.5C116.7,34.5 115.3,36.7 113.7,45 112.5,50.8 110.5,56.2 106.1,64.7 99,78.4 93.8,85.8 74.3,109.2 66.4,118.7 60,127.1 60,128 60,130.1 62.5,129.8 70.6,127.1 78.7,124.4 87.9,119.4 95.9,114.2L90.7,166.4C90.1,172.7 96.3,177.1 101.4,174.9 105.8,173.1 108.3,168.9 109.6,164.2L133.9,163.2C140.6,163 179.4,157.7 205.5,159 226.2,160 225.6,160.3 229,157 231.4,154.7 232,153.3 232,150.1 232,146.5 231.4,145.5 226.3,140.7 219.6,134.4 216.1,131.5 212.5,131.7 205.6,132 202.8,138.9 198.5,139.3L191.9,140 194.3,130.7C196.5,122.2 198.8,115.6 206,110.4 210.5,107.1 210.9,105.2 208.3,99.8 206.1,95.1 196.4,84 193.5,83.9 188.1,83.7 184.3,89.5 178.4,90.5L166.1,92.5 170.2,65.7C175.1,64.6 181.1,63.9 190,63.9 206.6,63.9 209.1,63.3 209,56.9 209,48.3 196,39 185.1,39.1 172.2,39.1 162.4,46.9 140.2,47.1 138.7,47.1 137.3,47.1 136.1,47.1 135.3,46 134.3,44.9 133.5,43.9 129.2,39.1 123.1,34.5 120.6,34.5ZM134.4,68.2C138.1,69.6 142.1,70.3 145.7,70.3 146.7,70.2 147.7,70.2 148.6,70.1L144.4,96.6C138.1,97.9 135.6,98 131.4,98.8 123.2,100.4 122.3,109.6 131,113.9 134.1,115.4 138,113.9 141.7,113.3L136.4,145.8 111.1,148.4 116.6,98.2C121,92.5 124.8,86.6 128.2,80.7 130.5,76.6 132.6,72.4 134.4,68.2ZM177.4,108.4C183.6,108.5 181.2,119.2 179.7,124.8L175.2,141.7 158,143.5 163.2,110.8 176.1,108.5C176.6,108.4 177,108.4 177.4,108.4Z"/>
	<path fill="#b00" d="M130.2,208.6C128.3,208.6 126.6,209.8 125.3,210.9 120.4,215.2 117.7,221.7 117.6,227.7 117.4,232 120,236.4 121.4,237.4 124.6,239.8 128,240.8 131.8,239.9 135.3,239.1 139,236.6 140.7,234 143.7,229.1 146.8,220.9 141.6,220 135.3,218.9 133.1,217.1 132.6,212.7 132.4,210.8 131.6,208.6 130.2,208.6ZM158.1,212.6C160.1,214.4 161.4,219.2 161.7,223.1 161.9,226.4 162.1,230 158.1,234.3L152.8,240C152.8,240 135.8,240.4 127.2,240.6 120.9,240.7 116.5,240.2 115.1,241.3 112.3,243.4 111.7,249.2 114,251.5 120.8,258.4 123.5,256.1 139.4,255L139.5,265C127.9,264.8 123.1,263.8 127.7,270.3 130.4,274.2 132.7,273.8 139.6,273L139.7,281.6C131.4,282.3 127.9,281.5 128.8,285.3 130.1,291.3 133.2,290.3 139.8,289.6L139.9,297.6 120.9,299C122.6,297.9 121,287.1 120.4,281.9 119.5,273.3 118.8,271.1 116.5,268.1 112.9,263.3 110.2,261.8 108.1,263.5 106.4,265 106.5,272.2 109.1,293.4 110.9,308.8 110,309.2 127.5,307.8L140,306.8 140.2,316.7C137.8,316.9 117.1,318.7 104.8,319.5 102.9,306.4 103,299.4 94.9,299.4 85.9,299.4 87.7,306.8 88.4,320.6 83.4,321.2 74.2,316.6 71.6,321.5 69.3,325.8 81.3,335.2 83.7,334.9L89.2,334.1 90.1,348.5C90.8,358.3 92.6,371 103.6,368.3 112.5,366.1 108.5,362.3 106.3,331.7L140.3,328.8 140.5,340.4 125.3,341C122,341.1 118.7,340 117.2,341.9 116,343.3 119.4,355.2 121,357.1 122,358.4 123.7,358.9 130.1,358L174.9,351.5 180.6,357.9C180.3,358.1 174.8,356.6 174.8,356.7 174.8,359.8 181.6,371.3 186.4,376 188.9,378.4 192.5,381.3 195.9,381.4 202.7,381.5 208.5,377 212.6,368.9 216.8,360.7 223.2,345.6 226.3,336.4 230.2,325.2 229.6,324.9 221.7,317 216.7,312 210.9,309.3 205.3,307.2 199.5,305 193.8,307 190,309.1 187.7,310.4 183.8,312.8 180,313.1L155,314.8 154.9,304.8 167.8,304.3C179.2,303.9 180.8,303.5 185.7,300.9 191.4,297.7 195.9,292.2 198.3,285.3 201.2,277.3 199,271.1 193.5,266 190.5,263.1 185.6,263 181.1,263.2L154.4,264 154.3,254H179.6C186.4,254 192.5,255.4 193.3,248.2 193.6,246.1 192.8,244.5 191.9,243.3 191.1,242 189.4,240 187.4,240L171.1,239.9 183.4,228.6C184.8,227.3 186,226 185.5,223.4 184,216.3 176.6,210.4 167.5,209.7 163.1,209.3 155,209.8 158.1,212.6ZM175.9,271.4C179.8,271.3 181.2,273.6 180.6,281.1 179.9,291.5 178.4,294.6 170.8,295L154.8,295.9 154.7,287.4C167.6,286.3 171.1,287.1 172.5,282.1 174.1,276.5 165.8,278.5 154.6,279.4L154.5,271.7ZM192.7,323.8C201.4,323.6 199.9,335.8 198.8,342.3 197.1,351.9 194.5,358.2 191.6,358.1H186.1C188.4,349 189.4,341.1 187,335.5 185.3,331.4 183.1,329.7 178.8,329.3 174.9,328.9 168.2,328 167.4,332.4 167.1,333.9 168.3,337.8 168.7,339.2L155.3,339.4 155.1,326.4 192.3,323.8C192.4,323.8 192.6,323.8 192.7,323.8Z"/>
</svg>
