<svg width="300" height="400"
	xmlns="http://www.w3.org/2000/svg">
	<path fill="#011" d="M139.6,40.5C134.5,40.6 133.7,43.4 133.7,51.6L133.6,77.4 113.3,80.5C106.5,81.6 93,80.9 88.1,80.4 76.2,79.2 70.5,75.9 71.6,83.9 73.2,95.1 86.8,104.1 98.6,103.6 125.5,102.3 153.4,92.9 182.9,92.3 214.9,91.6 216.9,100.5 225.9,90.8 231.9,84.3 227.2,74.2 216.1,68.9 204.5,63.6 198.7,66.6 178.2,71.1L165,74.1C166.2,66.1 169.4,54.5 166.7,47.3 165.5,44.3 148.5,40.3 139.6,40.5ZM164.9,103.5C159.6,106.9 163.5,117 167.3,122.2 178.5,137 183.4,139.6 174.9,142.5 163.3,146.5 167.3,147.3 181.3,155.3 188.8,159.6 200.8,169.7 205.3,169.5 210.7,169.2 213,161.6 212.9,152.8 212.5,134 200.2,119.2 180.5,105.6 176,102.5 169.6,100.4 164.9,103.5ZM115.1,109.4C111.7,110.6 112,113.3 114.2,120.1 118.5,133.9 99.5,148.9 88.2,157.9 77.4,166.5 83.6,169.6 97.5,166.7 102.5,165.7 108.8,164 115.3,160.8 128.5,154.2 140.1,142.8 145.5,127.4 146.8,123.6 144.5,120.2 136,114.8 129.5,110.8 121.3,107.3 115.1,109.4Z"/>
	<path fill="#b00" d="M130.2,208.6C128.3,208.6 126.6,209.8 125.3,210.9 120.4,215.2 117.7,221.7 117.6,227.7 117.4,232 120,236.4 121.4,237.4 124.6,239.8 128,240.8 131.8,239.9 135.3,239.1 139,236.6 140.7,234 143.7,229.1 146.8,220.9 141.6,220 135.3,218.9 133.1,217.1 132.6,212.7 132.4,210.8 131.6,208.6 130.2,208.6ZM158.1,212.6C160.1,214.4 161.4,219.2 161.7,223.1 161.9,226.4 162.1,230 158.1,234.3L152.8,240C152.8,240 135.8,240.4 127.2,240.6 120.9,240.7 116.5,240.2 115.1,241.3 112.3,243.4 111.7,249.2 114,251.5 120.8,258.4 123.5,256.1 139.4,255L139.5,265C127.9,264.8 123.1,263.8 127.7,270.3 130.4,274.2 132.7,273.8 139.6,273L139.7,281.6C131.4,282.3 127.9,281.5 128.8,285.3 130.1,291.3 133.2,290.3 139.8,289.6L139.9,297.6 120.9,299C122.6,297.9 121,287.1 120.4,281.9 119.5,273.3 118.8,271.1 116.5,268.1 112.9,263.3 110.2,261.8 108.1,263.5 106.4,265 106.5,272.2 109.1,293.4 110.9,308.8 110,309.2 127.5,307.8L140,306.8 140.2,316.7C137.8,316.9 117.1,318.7 104.8,319.5 102.9,306.4 103,299.4 94.9,299.4 85.9,299.4 87.7,306.8 88.4,320.6 83.4,321.2 74.2,316.6 71.6,321.5 69.3,325.8 81.3,335.2 83.7,334.9L89.2,334.1 90.1,348.5C90.8,358.3 92.6,371 103.6,368.3 112.5,366.1 108.5,362.3 106.3,331.7L140.3,328.8 140.5,340.4 125.3,341C122,341.1 118.7,340 117.2,341.9 116,343.3 119.4,355.2 121,357.1 122,358.4 123.7,358.9 130.1,358L174.9,351.5 180.6,357.9C180.3,358.1 174.8,356.6 174.8,356.7 174.8,359.8 181.6,371.3 186.4,376 188.9,378.4 192.5,381.3 195.9,381.4 202.7,381.5 208.5,377 212.6,368.9 216.8,360.7 223.2,345.6 226.3,336.4 230.2,325.2 229.6,324.9 221.7,317 216.7,312 210.9,309.3 205.3,307.2 199.5,305 193.8,307 190,309.1 187.7,310.4 183.8,312.8 180,313.1L155,314.8 154.9,304.8 167.8,304.3C179.2,303.9 180.8,303.5 185.7,300.9 191.4,297.7 195.9,292.2 198.3,285.3 201.2,277.3 199,271.1 193.5,266 190.5,263.1 185.6,263 181.1,263.2L154.4,264 154.3,254H179.6C186.4,254 192.5,255.4 193.3,248.2 193.6,246.1 192.8,244.5 191.9,243.3 191.1,242 189.4,240 187.4,240L171.1,239.9 183.4,228.6C184.8,227.3 186,226 185.5,223.4 184,216.3 176.6,210.4 167.5,209.7 163.1,209.3 155,209.8 158.1,212.6ZM175.9,271.4C179.8,271.3 181.2,273.6 180.6,281.1 179.9,291.5 178.4,294.6 170.8,295L154.8,295.9 154.7,287.4C167.6,286.3 171.1,287.1 172.5,282.1 174.1,276.5 165.8,278.5 154.6,279.4L154.5,271.7ZM192.7,323.8C201.4,323.6 199.9,335.8 198.8,342.3 197.1,351.9 194.5,358.2 191.6,358.1H186.1C188.4,349 189.4,341.1 187,335.5 185.3,331.4 183.1,329.7 178.8,329.3 174.9,328.9 168.2,328 167.4,332.4 167.1,333.9 168.3,337.8 168.7,339.2L155.3,339.4 155.1,326.4 192.3,323.8C192.4,323.8 192.6,323.8 192.7,323.8Z"/>
</svg>
