<svg width="300" height="400"
	xmlns="http://www.w3.org/2000/svg">
	<path fill="#011" d="M185.8,51C184.5,50.9 182.4,52.1 181.1,53.4 176.7,58.2 173.5,58.9 149.9,60.4 137.6,61.2 109.7,62.5 101.4,62.7 76.6,63.3 84.8,67.4 89.1,72.2 94.4,78.2 101.4,85.9 106.7,87.7 111.1,89.3 120.5,85.6 120.5,85.6 123.7,102.1 117.3,106.1 104.5,123.1 102.9,125.2 102.6,127.7 105.1,127.5 119.6,126.3 134.8,113.6 140.7,101.4 143.8,94.9 143.8,89.2 143.6,82.1L157.2,80.1C156.7,86.5 149.7,94.2 156.3,98.5 165.2,104.3 156.8,109.2 149.8,114.5 145.5,117.7 146.5,119.4 151.4,119.8 160.2,120.5 174.3,113.9 183.5,105.7 190.7,99.4 192.9,90.8 183,90 172.8,89.2 174.1,87.2 173.9,77.4 173.9,77.4 184.6,75 190.9,76 196.8,77 202.7,85.2 200.1,96.4L195.6,116C192.6,128.7 189.4,133.1 183.1,133 176.7,132.9 178.6,128.6 173.4,127.2 170.2,126.3 164.6,127.3 152.4,129L96.6,136.7 95.2,117C94.6,109.2 95.2,108 98.1,104.1 103.9,96.2 98.9,92.7 86.2,79.6 73.3,66.2 70.4,65.7 71.1,73.2 73.3,95.4 74.6,119.8 80.1,140.2 82.5,149.3 85.5,156.9 87.5,158.2 89.6,159.7 92.2,159 94.8,156.3 97.3,153.9 99.3,153.3 118.5,150.3L168.1,142.7 176.6,150.2C185.6,158.2 194.3,158.4 199,155 219,140.7 222.6,121.4 227.2,109.6 234.5,91.2 239.7,92.3 239.1,89.4 237.8,83.9 220,73.6 215.2,70.1 202.3,60.7 189.1,51.3 185.8,51Z"/>
	<path fill="#b00" d="M130.2,208.6C128.3,208.6 126.6,209.8 125.3,210.9 120.4,215.2 117.7,221.7 117.6,227.7 117.4,232 120,236.4 121.4,237.4 124.6,239.8 128,240.8 131.8,239.9 135.3,239.1 139,236.6 140.7,234 143.7,229.1 146.8,220.9 141.6,220 135.3,218.9 133.1,217.1 132.6,212.7 132.4,210.8 131.6,208.6 130.2,208.6ZM158.1,212.6C160.1,214.4 161.4,219.2 161.7,223.1 161.9,226.4 162.1,230 158.1,234.3L152.8,240C152.8,240 135.8,240.4 127.2,240.6 120.9,240.7 116.5,240.2 115.1,241.3 112.3,243.4 111.7,249.2 114,251.5 120.8,258.4 123.5,256.1 139.4,255L139.5,265C127.9,264.8 123.1,263.8 127.7,270.3 130.4,274.2 132.7,273.8 139.6,273L139.7,281.6C131.4,282.3 127.9,281.5 128.8,285.3 130.1,291.3 133.2,290.3 139.8,289.6L139.9,297.6 120.9,299C122.6,297.9 121,287.1 120.4,281.9 119.5,273.3 118.8,271.1 116.5,268.1 112.9,263.3 110.2,261.8 108.1,263.5 106.4,265 106.5,272.2 109.1,293.4 110.9,308.8 110,309.2 127.5,307.8L140,306.8 140.2,316.7C137.8,316.9 117.1,318.7 104.8,319.5 102.9,306.4 103,299.4 94.9,299.4 85.9,299.4 87.7,306.8 88.4,320.6 83.4,321.2 74.2,316.6 71.6,321.5 69.3,325.8 81.3,335.2 83.7,334.9L89.2,334.1 90.1,348.5C90.8,358.3 92.6,371 103.6,368.3 112.5,366.1 108.5,362.3 106.3,331.7L140.3,328.8 140.5,340.4 125.3,341C122,341.1 118.7,340 117.2,341.9 116,343.3 119.4,355.2 121,357.1 122,358.4 123.7,358.9 130.1,358L174.9,351.5 180.6,357.9C180.3,358.1 174.8,356.6 174.8,356.7 174.8,359.8 181.6,371.3 186.4,376 188.9,378.4 192.5,381.3 195.9,381.4 202.7,381.5 208.5,377 212.6,368.9 216.8,360.7 223.2,345.6 226.3,336.4 230.2,325.2 229.6,324.9 221.7,317 216.7,312 210.9,309.3 205.3,307.2 199.5,305 193.8,307 190,309.1 187.7,310.4 183.8,312.8 180,313.1L155,314.8 154.9,304.8 167.8,304.3C179.2,303.9 180.8,303.5 185.7,300.9 191.4,297.7 195.9,292.2 198.3,285.3 201.2,277.3 199,271.1 193.5,266 190.5,263.1 185.6,263 181.1,263.2L154.4,264 154.3,254H179.6C186.4,254 192.5,255.4 193.3,248.2 193.6,246.1 192.8,244.5 191.9,243.3 191.1,242 189.4,240 187.4,240L171.1,239.9 183.4,228.6C184.8,227.3 186,226 185.5,223.4 184,216.3 176.6,210.4 167.5,209.7 163.1,209.3 155,209.8 158.1,212.6ZM175.9,271.4C179.8,271.3 181.2,273.6 180.6,281.1 179.9,291.5 178.4,294.6 170.8,295L154.8,295.9 154.7,287.4C167.6,286.3 171.1,287.1 172.5,282.1 174.1,276.5 165.8,278.5 154.6,279.4L154.5,271.7ZM192.7,323.8C201.4,323.6 199.9,335.8 198.8,342.3 197.1,351.9 194.5,358.2 191.6,358.1H186.1C188.4,349 189.4,341.1 187,335.5 185.3,331.4 183.1,329.7 178.8,329.3 174.9,328.9 168.2,328 167.4,332.4 167.1,333.9 168.3,337.8 168.7,339.2L155.3,339.4 155.1,326.4 192.3,323.8C192.4,323.8 192.6,323.8 192.7,323.8Z"/>
</svg>
