<svg width="300" height="400" viewBox="-150 -200 300 400"
	xmlns="http://www.w3.org/2000/svg"
	xmlns:xlink="http://www.w3.org/1999/xlink">
	<path fill="#050" d="M0,-117A117,117 0,0,0 -117,0 117,117 0,0,0 0,117 117,117 0,0,0 117,0 117,117 0,0,0 0,-117ZM0,-107A107,107 0,0,1 107,0 107,107 0,0,1 0,107 107,107 0,0,1 -107,0 107,107 0,0,1 0,-107ZM0,-97A97,97 0,0,0 -97,0 97,97 0,0,0 0,97 97,97 0,0,0 97,0 97,97 0,0,0 0,-97ZM0,-88.2 20.1,-71.5 12.3,-47.4A49,49 0,0,0 3,-48.9V-73H-3V-48.8A49,49 0,0,0 -12.2,-47.4L-20.1,-71.5ZM-51.9,-71.4 -25.8,-69.6 -17.9,-45.5A49,49 0,0,0 -26.3,-41.3L-40.5,-60.8 -45.3,-57.3 -31.1,-37.7A49,49 0,0,0 -37.7,-31.1L-58.3,-46ZM51.9,-71.4 58.3,-46 37.8,-31.2A49,49 0,0,0 31.2,-37.8L45.3,-57.3 40.5,-60.8 26.3,-41.3A49,49 0,0,0 18,-45.6L25.8,-69.6ZM0,-46A46,46 0,0,1 46,0 46,46 0,0,1 0,46 46,46 0,0,1 -46,0 46,46 0,0,1 0,-46ZM-61.8,-41.2 -41.3,-26.3A49,49 0,0,0 -45.5,-17.9L-68.5,-25.4 -70.4,-19.7 -47.4,-12.2A49,49 0,0,0 -48.8,-3H-74.2L-83.9,-27.3ZM61.8,-41.2L83.9,-27.3 74.2,-3H48.9A49,49 0,0,0 47.4,-12.3L70.4,-19.7 68.5,-25.4 45.6,-18A49,49 0,0,0 41.3,-26.3ZM-74.2,3H-48.8A49,49 0,0,0 -47.4,12.2L-70.4,19.7 -68.5,25.4 -45.5,17.9A49,49 0,0,0 -41.3,26.3L-61.8,41.2 -83.9,27.3ZM48.8,3H74.2L83.9,27.3 61.8,41.2 41.3,26.3A49,49 0,0,0 45.5,17.9L68.5,25.4 70.4,19.7 47.4,12.2A49,49 0,0,0 48.8,3ZM-37.7,31.1A49,49 0,0,0 -31.1,37.7L-45.3,57.3 -40.5,60.8 -26.3,41.3A49,49 0,0,0 -17.9,45.5L-25.8,69.6 -51.9,71.4 -58.3,46ZM37.7,31.1 58.3,46 51.9,71.4 25.8,69.6 17.9,45.5A49,49 0,0,0 26.3,41.3L40.5,60.8 45.3,57.3 31.1,37.7A49,49 0,0,0 37.7,31.1ZM-12.2,47.4A49,49 0,0,0 -3,48.8V73H3V48.8A49,49 0,0,0 12.2,47.4L20.1,71.5 0,88.2 -20.1,71.5Z"/>
	<path fill="#b00" d="M0,-38A38,38 0,0,0 -5.7,-37.6 38,38 0,0,0 -34.1,-16.6 50,50 0,0,1 -34.1,-16.6 38,38 0,0,0 -34.1,-16.6 38,38 0,0,0 -35.3,-13.8 38,38 0,0,0 -36,-11.9 38,38 0,0,0 -36.7,-9.4 38,38 0,0,0 -37.3,-6.9 38,38 0,0,0 -37.7,-4.8 38,38 0,0,0 -38,0 38,38 0,0,0 -37.6,5.7 38,38 0,0,0 -37.5,5.8 38,38 0,0,0 -36.3,11.2 38,38 0,0,0 -36.2,11.3 38,38 0,0,0 -34.1,16.6 38,38 0,0,0 -16.6,34.1 50,50 0,0,1 -16.6,34.1 38,38 0,0,0 -16.6,34.1 38,38 0,0,0 -13.8,35.3 38,38 0,0,0 -11.9,36 38,38 0,0,0 -9.4,36.7 38,38 0,0,0 -6.9,37.3 38,38 0,0,0 -4.8,37.7 38,38 0,0,0 0,38 38,38 0,0,0 5.7,37.6 38,38 0,0,0 5.8,37.5 38,38 0,0,0 11.2,36.3 38,38 0,0,0 11.3,36.2 38,38 0,0,0 16.6,34.1 38,38 0,0,0 37.6,5.7 38,38 0,0,0 38,0 38,38 0,0,0 37.8,-4.2 38,38 0,0,0 37.7,-4.5 38,38 0,0,0 37.1,-8.4 38,38 0,0,0 37,-8.6 38,38 0,0,0 35.8,-12.6 38,38 0,0,0 34.2,-16.6 38,38 0,0,0 34.2,-16.6 50,50 0,0,1 34.2,-16.6 38,38 0,0,0 16.6,-34.2 50,50 0,0,1 16.6,-34.2 38,38 0,0,0 16.5,-34.2 38,38 0,0,0 12.6,-35.8 38,38 0,0,0 8.7,-37 38,38 0,0,0 8.3,-37.1 38,38 0,0,0 4.5,-37.7 38,38 0,0,0 4.2,-37.8 38,38 0,0,0 0,-38ZM12.1,-28.5A31,31 0,0,1 28.5,-12.1 50,50 0,0,1 3.2,-3.2 50,50 0,0,1 12.1,-28.5ZM-12,-28.5A50,50 0,0,1 -3.2,-3.2 50,50 0,0,1 -28.5,-12.1 31,31 0,0,1 -12,-28.5ZM3.2,3.2A50,50 0,0,1 28.5,12 31,31 0,0,1 12.1,28.5 50,50 0,0,1 3.2,3.2ZM-3.2,3.2A50,50 0,0,1 -12.1,28.5 31,31 0,0,1 -28.5,12.1 50,50 0,0,1 -3.2,3.2Z"/>
</svg>
