<svg width="300" height="400" viewBox="-150 -200 300 400"
	xmlns="http://www.w3.org/2000/svg"
	xmlns:xlink="http://www.w3.org/1999/xlink">
	<g opacity="0">
		<path id="a" d="M0,-41A41,41 0,0,0 -41,0 41,41 0,0,0 0,41 41,41 0,0,0 41,0 41,41 0,0,0 0,-41ZM12.9,-29.3A32,32 0,0,1 29.3,-12.9 13,13 0,0,0 28,-13 13,13 0,0,0 15.7,-4H4V-15.6A13,13 0,0,0 13,-28 13,13 0,0,0 12.9,-29.3ZM-12.9,-29.2A13,13 0,0,0 -13,-28 13,13 0,0,0 -4,-15.7V-4H-15.6A13,13 0,0,0 -28,-13 13,13 0,0,0 -29.2,-12.9 32,32 0,0,1 -12.9,-29.2ZM-15.7,4H-4V15.7A13,13 0,0,0 -13,28 13,13 0,0,0 -12.9,29.2 32,32 0,0,1 -29.2,12.9 13,13 0,0,0 -28,13 13,13 0,0,0 -15.7,4ZM4,4H15.7A13,13 0,0,0 28,13 13,13 0,0,0 29.2,12.9 32,32 0,0,1 12.9,29.2 13,13 0,0,0 13,28 13,13 0,0,0 4,15.7Z"/>
	</g>
	<use xlink:href="#a" fill="#050" x="-77" y="-134"/>
	<use xlink:href="#a" fill="#050" y="-88"/>
	<use xlink:href="#a" fill="#050" x="77" y="-42"/>
	<use xlink:href="#a" fill="#b00" x="-45" y="45"/>
	<use xlink:href="#a" fill="#b00" x="45" y="45"/>
	<use xlink:href="#a" fill="#b00" x="-45" y="135"/>
	<use xlink:href="#a" fill="#b00" x="45" y="135"/>
</svg>
