<svg width="300" height="400" viewBox="-150 -200 300 400"
	xmlns="http://www.w3.org/2000/svg"
	xmlns:xlink="http://www.w3.org/1999/xlink">
	<g opacity="0">
		<path id="a" d="M0,-58A58,58 0,0,0 -58,0 58,58 0,0,0 0,58 58,58 0,0,0 58,0 58,58 0,0,0 0,-58ZM18,-41.2A45,45 0,0,1 41.2,-18 18,18 0,0,0 40,-18 18,18 0,0,0 22.7,-5H5V-22.7A18,18 0,0,0 18,-40 18,18 0,0,0 18,-41.2ZM-17.9,-41.2A18,18 0,0,0 -18,-40 18,18 0,0,0 -5,-22.7V-5H-22.7A18,18 0,0,0 -40,-18 18,18 0,0,0 -41.2,-17.9 45,45 0,0,1 -17.9,-41.2ZM-22.7,5H-5V22.7A18,18 0,0,0 -18,40 18,18 0,0,0 -17.9,41.2 45,45 0,0,1 -41.2,17.9 18,18 0,0,0 -40,18 18,18 0,0,0 -22.7,5ZM5,5H22.7A18,18 0,0,0 40,18 18,18 0,0,0 41.2,17.9 45,45 0,0,1 17.9,41.2 18,18 0,0,0 18,40 18,18 0,0,0 5,22.7Z"/>
	</g>
	<use xlink:href="#a" fill="#011" x="-65" y="-116"/>
	<use xlink:href="#a" fill="#b00"/>
	<use xlink:href="#a" fill="#050" x="65" y="116"/>
</svg>
