<svg width="300" height="400" viewBox="-150 -200 300 400"
	xmlns="http://www.w3.org/2000/svg"
	xmlns:xlink="http://www.w3.org/1999/xlink">
	<g opacity="0">
		<path id="a" d="M0,-69A69,69 0,0,0 -69,0 69,69 0,0,0 0,69 69,69 0,0,0 69,0 69,69 0,0,0 0,-69ZM20.9,-49.8A54,54 0,0,1 49.8,-20.9 21,21 0,0,0 48,-21 21,21 0,0,0 28.6,-8H8V-28.6A21,21 0,0,0 21,-48 21,21 0,0,0 20.9,-49.8ZM-20.8,-49.6A21,21 0,0,0 -21,-48 21,21 0,0,0 -8,-28.6V-8H-28.6A21,21 0,0,0 -48,-21 21,21 0,0,0 -49.6,-20.8 54,54 0,0,1 -20.8,-49.6ZM-28.6,8H-8V28.6A21,21 0,0,0 -21,48 21,21 0,0,0 -20.8,49.6 54,54 0,0,1 -49.6,20.8 21,21 0,0,0 -48,21 21,21 0,0,0 -28.6,8ZM8,8H28.6A21,21 0,0,0 48,21 21,21 0,0,0 49.6,20.8 54,54 0,0,1 20.8,49.6 21,21 0,0,0 21,48 21,21 0,0,0 8,28.6Z"/>
	</g>
	<use xlink:href="#a" fill="#011" y="-91"/>
	<use xlink:href="#a" fill="#050" y="91"/>
</svg>
