<svg width="300" height="400" viewBox="-150 -200 300 400"
	xmlns="http://www.w3.org/2000/svg"
	xmlns:xlink="http://www.w3.org/1999/xlink">
	<g opacity="0">
		<path id="a" d="M0,-49A49,49 0,0,0 -49,0 49,49 0,0,0 0,49 49,49 0,0,0 49,0 49,49 0,0,0 0,-49ZM15.9,-32.3A36,36 0,0,1 32.3,-15.9 16,16 0,0,0 18.2,-6H6V-18.2A16,16 0,0,0 15.9,-32.3ZM-15.9,-32.2A16,16 0,0,0 -6,-18.2V-6H-18.2A16,16 0,0,0 -32.1,-15.9 36,36 0,0,1 -15.9,-32.2ZM-18.2,6H-6V18.2A16,16 0,0,0 -15.9,32.2 36,36 0,0,1 -32.2,15.9 16,16 0,0,0 -18.2,6ZM6,6H18.2A16,16 0,0,0 32.2,15.9 36,36 0,0,1 15.9,32.2 16,16 0,0,0 6,18.2Z"/>
	</g>
	<use xlink:href="#a" fill="#050" x="-54" y="-89"/>
	<use xlink:href="#a" fill="#011" x="54" y="-89"/>
	<use xlink:href="#a" fill="#b00"/>
	<use xlink:href="#a" fill="#011" x="-54" y="89"/>
	<use xlink:href="#a" fill="#050" x="54" y="89"/>
</svg>
