<svg width="300" height="400"
	xmlns="http://www.w3.org/2000/svg">
	<path fill="#b00" d="M153.1,335.6C148.9,334 147.5,328.6 146.7,324.6 143.2,307.9 144.5,306.2 143.2,261L142,220.3 120.6,225.6C116.1,226.7 111.9,227 109.7,224.2 101.3,213.4 90.9,194 80.5,176.3 70.1,158.6 61.4,151.7 62.6,147.9 64.4,142.3 71.9,139.7 77.2,139.8 81.2,139.8 85.2,141.2 88.6,143.7 95.6,148.8 98.5,151.3 114.7,146.6L138.3,139.8 133.8,105.2C132.7,96.6 129.3,86.5 129.1,74.5 128.9,60.8 135.9,63.9 143.9,68.2 152.3,72.7 172.1,80.3 176.2,86.6 178,89.4 177.9,91.5 176.3,94 173,99.1 169.7,104.1 168.4,109.6 166.4,117.6 166.5,127.3 166.7,134.6 172.8,133.5 178.7,131.4 184.8,128.9 196.7,124 197.2,120.7 206.5,127.7L232.5,147C242.1,154 236.7,159.4 230.8,168.3L201.7,211.9C197,218.9 195.9,219 192.5,219 189.6,219 186.7,217.7 181.9,215 177,212.2 173.5,213.8 166.2,215.3L165.2,267C164.4,309.4 164.2,322.7 163.1,326.9 162,331.4 158.2,337.6 153.1,335.6ZM141.3,201.6 139.8,161.3L108.3,168.8 124.2,205.2ZM185.5,196.4 193.2,169.5C197.5,154.5 196.3,153.7 189.1,152.5 183.6,151.6 172.5,155.3 167,156.8L166.3,198.8Z"/>
</svg>
