<svg width="300" height="400"
	xmlns="http://www.w3.org/2000/svg">
	<path fill="#050" d="M182.9,301.3C175.4,294 168.9,287.8 160.2,280 154.8,283.8 148.5,287.3 142.4,289.2 136.8,290.9 127.1,294 122.8,289.5 118.5,285 121.9,283.3 129.7,278.3 135.5,274.6 147,267.2 147,267.2 143.2,264.4 133.9,259.4 134.6,255.9 135.6,250.7 140.9,250.8 145,250.9 150.6,251 156.2,253.8 160.5,255.6L168.7,245.6 154.9,244.1C149.6,243.5 142.2,243.1 140.2,241 136.9,237.6 136.8,235.4 139.2,232.3 140.7,230.5 144.5,229.8 153.1,229.5 166.2,229 175.5,224.9 178.9,226.7 184.3,229.7 189.2,234 192,239 194.3,243 193.7,245.7 188.2,251.9 184.7,255.8 179.7,260.1 176.5,263.4 180.6,266.5 186.5,270.5 188.1,271.6 200.7,280.6 203.1,307.5 193.5,309.1 191.1,309.5 188.3,306.4 182.9,301.3ZM93.3,304.6C86,299.6 85,291.5 79.1,284.3 74.2,278.4 73.3,276.2 75.6,274.2 78.5,271.7 82.2,271.6 85,273.5 87.8,275.4 93.5,278 98.2,277 101.1,276.4 106.3,271.5 109.1,266.3 112.8,259.4 116.2,252.4 113.2,250.8 106.3,247.2 96.5,253.3 91,248.9 86.7,245.6 86.3,236.7 90.3,234 95.6,230.4 104,230.9 109.5,230.6 110.5,226.8 112.1,220.9 110.5,219.9L100.3,219.8C93.9,219.7 87.3,218 87.8,211.3 88.4,204.1 98.3,201.9 102.6,201.3L112.4,199.9C112.9,197 115.3,190.1 113,189.2 109.2,187.6 106.2,189.7 101.4,188.8 99.5,188.4 97.5,186.2 96.4,184.4 85,200.5 74.2,221.4 59.8,232.6 49.7,240.5 44,239.2 49.6,229.7L79.5,178.8C72.9,175.8 64.8,173.7 60.6,168.3 58.4,165.5 60.6,160.7 63.4,159.4 70.3,156.4 79.4,159.1 89,161.3L97.9,144.3C93.5,144.8 89,144.7 85.2,144.7 77.4,144.6 74.2,135.8 76.2,130.5 77.6,126.8 77.6,126.8 84.6,126.2 92.4,125.6 97.3,123.3 105,116.6 110.7,111.6 113.2,109.7 116.9,110.3 125.1,111.7 128.8,119.9 132.7,124.4 139.1,119.1 141.3,117.8 148.7,111.9 152.1,109.3 153.2,106.8 152.1,102.2 149.9,93.4 151.7,92.3 156.9,90.5 163.3,88.3 171.5,94.1 175.9,97.8 180.3,101.5 180.6,106.8 175.3,111.6L160.8,124.8 170.8,134C174.3,131.2 180.8,127.7 181.5,122.5 182.2,116.9 184.4,111.7 186.9,110.3 190.3,108.5 192,109.2 198.7,114.5 205.6,119.9 208,123.9 208,129.5 208,135.2 203,141.1 197,141.8 190.8,142.6 189.2,142.2 182.6,147.3 187.7,153.1 207.5,178.6 221.6,191.8 233.2,202.7 258.2,216.2 266,223.8 275.1,232.6 254.3,236.9 245,237.1 223.9,237.6 211.4,221.7 201.3,206.6 192.5,193.4 185.2,185.7 178.5,177.7 174,184.1 173.6,188 172.8,193.2 172,198.5 172,202.3 174.3,202.3 177.9,202.3 180.7,196.6 183.8,197.2 187.6,198 190.9,204.5 191.6,207.8 192.6,212.9 192.3,214.8 188,217.2 185.3,218.8 179.4,220.6 174.1,220.7 168.3,220.8 162.6,218.8 160.5,216.7 157.2,213.2 158.7,208.9 158.8,205.5L159.5,186.9 151.7,187.1 150.3,200C149.2,210.4 147.6,214.6 142.7,219.2 140.5,221.2 139.2,221.1 135.8,220.9L129.5,220.6 125.8,233.3C128.5,234.8 131.7,236.5 131.7,239.6 131.8,248.3 127.9,258.7 123.6,269 118.2,281.8 110.7,294.2 103.3,302.1 99,306.7 97.7,307.5 93.3,304.6ZM138.8,201.7C139.9,194.3 138.1,187.6 134.6,181.3 130.7,188.5 127.2,194.8 125.4,199.7 130.1,200.2 130.8,202.3 131.5,203.1 132.7,204.4 132.2,207.9 131.3,212.8 136.5,212 138.1,206.6 138.8,201.7ZM134.6,174.3C140.4,167.1 143.5,164.4 152.1,168.9 158.9,172.4 162.1,170.6 170.5,167.6 156.9,149.2 137.9,147.1 132,130.5L104,170.2C110.7,172 114.3,173.3 119.8,169.9 127.7,165 129.5,168.9 134.6,174.3Z"/>
</svg>
