<svg width="300" height="400"
	xmlns="http://www.w3.org/2000/svg">
	<path fill="#011" d="M50,50V60 90 100 200 300 310 340 350H150 250V340 310 300 200 100 90 60 50H150ZM60,60H124V90H60ZM134,60H142V90H134ZM158,60H166V90H158ZM176,60H240V90H176ZM68,68V82H116V68ZM184,68V82H232V68ZM60,100H90V175H60ZM100,100H150 200V200 300H150 100V200ZM210,100H240V175H210ZM68,108V167H82V108ZM218,108V167H232V108ZM60,185H90V192H60ZM210,185H240V192H210ZM60,208H90V215H60ZM210,208H240V215H210ZM60,225H90V300H60ZM210,225H240V300H210ZM68,233V292H82V233ZM218,233V292H232V233ZM60,310H124V340H60ZM134,310H142V340H134ZM158,310H166V340H158ZM176,310H240V340H176ZM68,318V332H116V318ZM184,318V332H232V318Z"/>
</svg>
